{"glyphs":{"0":{"ha":767,"x_min":53,"x_max":715,"o":"m 715 593 q 618 254 715 415 q 338 68 507 68 q 189 121 258 68 q 90 247 124 170 q 53 449 53 332 q 145 787 53 624 q 417 979 254 979 q 644 853 561 979 q 715 593 715 745 m 616 488 q 481 852 616 743 q 357 905 415 905 q 186 779 241 905 q 146 553 146 686 q 209 295 146 416 q 410 147 285 147 q 576 269 523 147 q 616 488 616 359 z "},"1":{"ha":767,"x_min":195,"x_max":594,"o":"m 594 87 l 236 87 l 236 120 l 269 120 q 359 206 359 120 l 359 810 q 308 869 359 869 q 195 838 284 869 l 195 871 l 526 986 l 526 959 q 469 880 469 943 l 469 218 q 561 120 469 120 l 594 120 l 594 87 z "},"2":{"ha":767,"x_min":66,"x_max":701,"o":"m 701 296 l 652 56 l 621 56 l 621 64 q 596 87 621 87 l 66 87 l 66 120 l 264 359 q 510 709 467 603 q 535 814 535 772 q 501 904 535 867 q 414 940 467 940 q 258 846 321 940 q 195 667 203 767 l 149 667 l 149 873 q 454 975 311 975 q 600 934 541 975 q 667 804 667 888 q 593 623 667 718 q 455 477 563 584 l 167 193 l 549 193 q 669 296 651 193 l 701 296 z "},"3":{"ha":767,"x_min":111,"x_max":692,"o":"m 692 406 q 568 166 692 270 q 312 68 450 68 q 111 111 223 68 l 111 337 l 157 337 q 224 182 168 243 q 377 116 285 116 q 517 178 465 116 q 567 326 567 237 q 510 488 567 431 q 347 545 452 545 l 235 545 l 235 576 q 417 660 333 587 q 507 833 507 739 q 477 909 507 880 q 398 939 446 939 q 250 845 307 939 q 199 669 203 767 l 153 669 l 153 873 q 446 975 313 975 q 572 941 521 975 q 631 832 631 903 q 347 576 631 690 q 417 578 395 578 q 692 406 692 578 z "},"4":{"ha":767,"x_min":43,"x_max":683,"o":"m 683 335 l 545 335 l 545 206 q 630 120 545 120 l 650 120 l 650 87 l 309 87 l 309 120 l 338 120 q 433 206 433 120 l 433 335 l 43 335 l 43 366 l 309 703 q 511 981 438 865 l 545 981 l 545 404 l 683 404 l 683 335 m 433 404 l 433 762 q 264 577 340 673 l 127 404 l 433 404 z "},"5":{"ha":767,"x_min":134,"x_max":695,"o":"m 695 432 q 582 178 695 288 q 323 68 468 68 q 134 113 227 68 l 134 337 l 182 337 q 242 187 195 245 q 383 119 297 119 q 525 193 476 119 q 567 353 567 256 q 520 528 567 455 q 369 611 466 611 q 195 503 262 611 l 155 503 l 176 955 l 579 955 q 621 989 620 955 l 652 989 l 652 751 l 621 751 q 522 853 621 853 l 214 853 l 201 583 q 427 653 290 653 q 612 599 538 653 q 695 432 695 538 z "},"6":{"ha":767,"x_min":85,"x_max":708,"o":"m 708 351 q 607 147 708 232 q 391 68 512 68 q 157 191 241 68 q 85 454 85 297 q 188 802 85 648 q 490 975 304 975 q 649 941 566 975 l 649 708 l 599 708 q 566 858 597 796 q 446 938 524 938 q 307 859 368 938 q 234 709 258 796 q 205 517 205 604 q 211 431 205 488 q 466 564 324 564 q 637 511 572 564 q 708 351 708 454 m 578 311 q 540 447 578 391 q 418 511 496 511 q 291 449 337 511 q 249 309 249 393 q 290 170 249 228 q 413 104 335 104 q 538 170 492 104 q 578 311 578 228 z "},"7":{"ha":767,"x_min":129,"x_max":711,"o":"m 711 913 q 480 527 553 711 q 395 87 402 329 l 273 87 q 311 347 280 241 q 536 741 363 525 l 625 852 l 266 852 q 185 830 208 852 q 161 749 162 808 l 129 749 l 129 986 l 161 986 l 161 981 q 198 955 161 955 l 711 955 l 711 913 z "},"8":{"ha":767,"x_min":63,"x_max":724,"o":"m 724 332 q 541 111 724 201 q 345 68 456 68 q 159 111 237 68 q 63 265 63 165 q 136 409 63 341 q 273 505 176 447 q 323 534 286 512 q 283 555 311 541 q 171 628 202 597 q 122 747 122 675 q 235 916 122 848 q 440 975 332 975 q 583 943 522 975 q 661 829 661 903 q 583 690 661 764 q 452 589 547 657 q 517 554 469 579 q 654 469 615 503 q 724 332 724 410 m 549 806 q 500 905 549 871 q 389 937 456 937 q 276 902 323 937 q 224 800 224 864 q 294 679 224 733 q 422 606 332 650 q 549 806 549 718 m 606 292 q 496 441 606 385 q 355 518 437 471 q 240 425 275 465 q 186 292 186 364 q 250 156 186 207 q 395 109 309 109 q 541 157 479 109 q 606 292 606 210 z "},"9":{"ha":767,"x_min":77,"x_max":698,"o":"m 698 586 q 649 338 698 454 q 499 138 597 214 q 298 68 408 68 q 137 102 214 68 l 137 334 l 186 334 q 219 186 187 250 q 335 105 260 105 q 527 267 461 105 q 576 536 576 389 q 573 609 576 559 q 311 480 448 480 q 145 537 210 480 q 77 696 77 597 q 178 895 77 812 q 391 975 273 975 q 626 852 543 975 q 698 586 698 746 m 534 735 q 494 873 534 812 q 374 941 448 941 q 244 876 290 941 q 203 731 203 818 q 245 593 203 648 q 372 531 292 531 q 494 597 449 531 q 534 735 534 654 z "}," ":{"ha":339,"x_min":0,"x_max":0,"o":""},"!":{"ha":328,"x_min":107,"x_max":327,"o":"m 327 180 l 199 172 q 107 774 199 500 l 239 808 q 327 180 327 515 m 327 136 q 321 -2 327 94 l 189 -2 l 197 130 l 327 136 z "},"\"":{"ha":340,"x_min":116,"x_max":340,"o":"m 340 724 l 279 720 q 235 952 279 832 l 298 968 q 340 724 340 825 m 222 712 l 161 707 q 116 940 161 820 l 180 956 q 222 712 222 813 z "},"#":{"ha":926,"x_min":62,"x_max":863,"o":"m 863 323 l 642 323 l 583 46 l 512 46 l 571 323 l 271 323 l 213 46 l 142 46 l 200 323 l 62 323 l 62 394 l 215 394 l 271 658 l 62 658 l 62 728 l 285 728 l 345 1007 l 415 1007 l 355 728 l 654 728 l 712 1007 l 783 1007 l 724 728 l 863 728 l 863 658 l 711 658 l 656 394 l 863 394 l 863 323 m 640 658 l 341 658 l 286 395 l 585 395 l 640 658 z "},"$":{"ha":637,"x_min":79,"x_max":597,"o":"m 597 342 q 525 179 597 254 q 371 78 465 116 l 371 -36 l 322 -36 l 322 70 l 279 68 q 79 115 195 66 l 79 353 l 124 353 q 322 115 153 126 l 322 481 q 176 584 208 555 q 98 736 98 656 q 171 886 98 817 q 322 968 237 947 l 322 1079 l 371 1079 l 371 974 l 397 974 q 553 941 457 974 l 553 729 l 507 729 q 371 926 486 898 l 371 600 q 445 547 403 576 q 551 464 524 494 q 597 342 597 412 m 322 633 l 322 928 q 235 891 269 924 q 199 804 199 857 q 322 633 199 713 m 491 270 q 371 445 491 371 l 371 120 q 491 270 491 150 z "},"%":{"ha":684,"x_min":73,"x_max":688,"o":"m 317 629 q 286 554 317 585 q 211 522 255 522 q 136 554 167 522 q 104 629 104 585 q 136 705 104 673 q 211 736 167 736 q 286 705 255 736 q 317 629 317 673 m 684 735 q 455 289 609 542 q 189 -85 307 47 l 73 -14 q 575 800 433 440 l 684 735 m 688 36 q 656 -40 688 -8 q 581 -71 625 -71 q 506 -40 537 -71 q 475 36 475 -8 q 506 111 475 80 q 581 142 537 142 q 656 111 625 142 q 688 36 688 80 z "},"&":{"ha":882,"x_min":49,"x_max":894,"o":"m 894 279 q 713 68 783 68 q 481 256 633 68 q 372 134 411 168 q 228 68 299 68 q 100 127 153 68 q 49 260 49 184 q 275 570 49 397 q 201 788 201 709 q 298 931 201 879 q 478 975 378 975 q 581 948 539 975 q 631 859 631 917 q 576 753 631 804 q 475 682 551 730 q 391 626 427 652 q 536 398 488 471 q 617 626 599 496 l 860 626 l 860 591 q 559 368 692 591 q 758 184 696 184 q 865 292 800 184 l 894 279 m 519 857 q 493 916 519 895 q 428 938 467 938 q 348 905 378 938 q 318 823 318 873 q 377 654 318 766 q 468 743 447 718 q 519 857 519 804 m 462 281 q 289 543 349 433 q 178 318 178 427 q 208 217 178 259 q 298 170 241 170 q 462 281 372 170 z "},"'":{"ha":217,"x_min":68,"x_max":181,"o":"m 181 910 q 173 833 181 881 l 136 615 l 110 615 l 77 836 q 68 910 68 890 q 126 975 68 975 q 181 910 181 975 z "},"(":{"ha":387,"x_min":103,"x_max":387,"o":"m 387 -138 l 287 -215 q 103 353 103 45 q 285 917 103 659 l 376 836 q 263 601 306 745 q 224 353 224 469 q 268 103 224 242 q 387 -138 315 -43 z "},")":{"ha":387,"x_min":102,"x_max":387,"o":"m 387 353 q 203 -215 387 45 l 102 -138 q 222 103 174 -43 q 266 353 266 242 q 227 601 266 469 q 114 836 184 745 l 205 917 q 387 353 387 659 z "},"*":{"ha":587,"x_min":107,"x_max":591,"o":"m 591 414 q 441 243 518 321 q 587 77 511 172 l 501 3 q 361 165 436 85 q 181 17 277 86 l 112 102 q 283 243 198 161 q 107 387 191 332 l 178 473 q 361 321 267 409 q 505 488 435 399 l 591 414 z "},"+":{"ha":675,"x_min":104,"x_max":675,"o":"m 675 295 l 666 182 q 447 198 554 195 q 425 -39 443 73 l 314 -27 q 336 198 334 75 q 116 176 214 196 l 104 286 q 336 309 215 304 q 320 523 332 426 l 433 531 q 448 310 446 426 q 675 295 564 309 z "},",":{"ha":314,"x_min":102,"x_max":314,"o":"m 314 111 q 282 30 314 60 q 201 0 250 0 q 130 37 157 0 q 102 136 102 75 q 134 252 102 197 q 233 345 170 311 q 271 285 239 340 q 205 214 223 256 q 287 181 256 214 q 314 111 314 152 z "},"-":{"ha":675,"x_min":104,"x_max":675,"o":"m 675 295 l 666 182 q 389 199 528 199 q 116 176 231 199 l 104 286 q 420 310 250 310 q 675 295 553 310 z "},"‐":{"ha":675,"x_min":104,"x_max":675,"o":"m 675 295 l 666 182 q 389 199 528 199 q 116 176 231 199 l 104 286 q 420 310 250 310 q 675 295 553 310 z "},".":{"ha":315,"x_min":102,"x_max":315,"o":"m 315 107 q 283 32 315 63 q 208 0 252 0 q 133 32 164 0 q 102 107 102 63 q 133 182 102 151 q 208 214 164 214 q 283 182 252 214 q 315 107 315 151 z "},"/":{"ha":627,"x_min":73,"x_max":616,"o":"m 616 651 q 427 187 559 452 q 194 -209 300 -67 l 73 -148 q 501 707 391 331 l 616 651 z "},":":{"ha":315,"x_min":102,"x_max":315,"o":"m 315 381 q 283 306 315 337 q 208 274 252 274 q 133 306 164 274 q 102 381 102 337 q 133 456 102 425 q 208 488 164 488 q 283 456 252 488 q 315 381 315 425 m 315 107 q 283 32 315 63 q 208 0 252 0 q 133 32 164 0 q 102 107 102 63 q 133 182 102 151 q 208 214 164 214 q 283 182 252 214 q 315 107 315 151 z "},";":{"ha":333,"x_min":84,"x_max":311,"o":"m 250 644 q 226 586 250 610 q 168 562 202 562 q 110 586 134 562 q 86 644 86 610 q 110 701 86 677 q 167 726 134 726 q 226 702 201 726 q 250 644 250 678 m 311 111 q 84 -216 311 -69 l 84 -176 q 235 54 235 -68 q 214 120 235 84 q 151 87 192 87 q 85 154 85 87 q 118 216 85 193 q 188 237 147 237 q 278 203 245 237 q 311 111 311 168 z "},"<":{"ha":926,"x_min":96,"x_max":829,"o":"m 829 183 l 96 492 l 96 558 l 829 867 l 829 787 l 194 526 l 829 263 l 829 183 z "},"=":{"ha":684,"x_min":104,"x_max":675,"o":"m 675 390 l 666 277 q 389 294 528 294 q 116 271 231 294 l 104 381 q 420 405 250 405 q 675 390 553 405 m 675 193 l 666 80 q 389 97 528 97 q 116 74 231 97 l 104 184 q 420 208 250 208 q 675 193 553 208 z "},">":{"ha":926,"x_min":96,"x_max":829,"o":"m 829 491 l 96 183 l 96 262 l 732 524 l 96 787 l 96 867 l 829 557 l 829 491 z "},"?":{"ha":622,"x_min":64,"x_max":602,"o":"m 602 823 q 538 671 602 748 q 411 541 475 606 q 316 394 335 463 q 303 296 304 353 l 236 296 q 264 471 237 401 q 355 623 287 531 q 452 820 452 753 q 418 904 452 873 q 330 935 384 935 q 170 846 233 935 q 109 667 115 769 l 64 667 l 64 871 q 402 975 252 975 q 538 941 486 975 q 602 823 602 902 m 350 150 q 326 92 350 116 q 269 68 302 68 q 211 92 235 68 q 187 150 187 116 q 211 208 187 183 q 267 232 234 232 q 326 208 302 232 q 350 150 350 184 z "},"@":{"ha":1273,"x_min":69,"x_max":1246,"o":"m 1246 199 q 1021 -102 1181 11 q 661 -215 860 -215 q 357 -138 493 -215 q 141 87 214 -58 q 69 395 69 230 q 251 860 69 672 q 711 1050 435 1050 q 1057 926 925 1050 q 1190 587 1190 799 q 1000 161 1190 317 q 825 99 925 99 q 718 194 718 99 q 735 299 718 221 q 623 176 661 210 q 476 106 545 106 q 376 154 412 106 q 345 262 345 196 q 410 487 345 372 q 563 667 470 590 q 722 737 647 737 q 837 642 810 737 l 858 720 l 947 732 l 852 414 q 802 200 802 245 q 865 144 802 144 q 1079 308 990 144 q 1155 583 1155 448 q 1031 899 1155 781 q 710 1016 908 1016 q 407 927 541 1016 q 199 684 272 838 q 124 357 124 523 q 194 85 124 212 q 391 -113 267 -47 q 662 -179 515 -179 q 996 -76 845 -179 q 1209 199 1147 27 l 1246 199 m 812 601 q 719 706 812 706 q 522 538 615 706 q 439 275 439 390 q 525 179 439 179 q 673 270 594 179 q 769 423 736 343 q 812 601 812 526 z "},"A":{"ha":839,"x_min":6,"x_max":838,"o":"m 838 87 l 594 87 l 594 120 l 610 120 q 621 142 621 120 q 618 157 621 149 l 537 393 l 241 393 q 194 197 194 262 q 274 120 194 120 l 310 120 l 310 87 l 6 87 l 6 120 q 144 282 83 124 l 422 991 l 463 991 l 703 298 q 749 188 728 223 q 838 120 789 122 l 838 87 m 522 435 l 399 795 l 256 435 l 522 435 z "},"B":{"ha":752,"x_min":39,"x_max":705,"o":"m 705 393 q 593 173 705 264 q 357 87 489 87 l 39 87 l 39 120 q 121 144 99 121 q 142 228 142 168 l 142 815 q 121 898 142 876 q 39 922 100 921 l 39 955 l 450 955 q 598 928 549 955 q 665 802 665 892 q 473 549 665 662 q 631 523 581 547 q 705 393 705 487 m 543 711 q 502 854 543 795 q 375 923 455 923 q 268 890 308 923 l 268 575 l 400 575 q 543 711 543 575 m 574 310 q 509 480 574 417 q 337 544 444 544 l 268 544 l 268 186 q 414 132 338 132 q 534 184 490 132 q 574 310 574 232 z "},"C":{"ha":854,"x_min":52,"x_max":818,"o":"m 818 253 q 426 68 603 68 q 151 192 257 68 q 52 481 52 310 q 281 902 52 750 q 544 975 390 975 q 798 932 678 975 l 798 728 l 749 728 q 660 882 741 827 q 484 932 587 932 q 247 818 334 932 q 168 559 168 714 q 256 286 168 397 q 509 166 351 166 q 818 294 659 166 l 818 253 z "},"D":{"ha":984,"x_min":43,"x_max":934,"o":"m 934 612 q 784 233 934 378 q 399 87 633 87 l 43 87 l 43 120 q 125 144 103 121 q 146 228 146 168 l 146 815 q 125 898 146 876 q 43 922 104 921 l 43 955 l 576 955 q 934 612 934 955 m 806 524 q 469 924 806 924 q 272 872 350 924 l 272 195 q 484 132 380 132 q 728 254 640 132 q 806 524 806 362 z "},"E":{"ha":665,"x_min":43,"x_max":653,"o":"m 653 337 l 597 58 l 564 58 q 538 87 563 87 l 43 87 l 43 120 q 125 144 104 121 q 146 228 146 167 l 146 814 q 125 898 146 875 q 43 922 104 921 l 43 955 l 528 955 q 573 989 572 955 l 605 989 l 605 730 l 555 730 q 323 922 553 922 l 272 922 q 264 790 264 848 q 454 564 264 564 l 521 564 l 521 517 l 272 510 l 272 120 l 344 120 q 605 337 572 120 l 653 337 z "},"F":{"ha":593,"x_min":41,"x_max":604,"o":"m 604 727 l 555 727 q 321 922 555 922 l 270 922 q 262 789 262 848 q 301 612 262 667 q 463 547 347 547 l 519 547 l 519 500 l 270 495 l 270 228 q 373 120 270 123 l 373 87 l 41 87 l 41 120 q 123 144 101 121 q 144 228 144 168 l 144 815 q 123 898 144 876 q 41 922 102 921 l 41 955 l 555 955 q 574 985 570 955 l 604 985 l 604 727 z "},"G":{"ha":926,"x_min":55,"x_max":889,"o":"m 889 429 q 837 397 856 428 q 821 336 821 372 l 821 56 l 787 56 q 696 176 783 176 q 602 138 657 176 q 575 120 584 125 q 403 68 484 68 q 224 126 310 68 q 100 268 142 182 q 55 473 55 359 q 120 727 55 610 q 302 911 185 844 q 553 975 413 975 q 799 933 661 975 l 799 728 l 749 728 q 661 880 738 825 q 490 930 591 930 q 252 823 340 930 q 170 571 170 723 q 251 292 170 412 q 495 155 342 155 q 636 199 576 155 q 703 326 703 248 q 575 429 703 429 l 551 429 l 551 460 l 889 460 l 889 429 z "},"H":{"ha":955,"x_min":41,"x_max":912,"o":"m 912 87 l 581 87 l 581 120 q 662 144 640 121 q 684 228 684 168 l 684 541 l 270 541 l 270 228 q 373 120 270 123 l 373 87 l 41 87 l 41 120 q 123 144 101 121 q 144 228 144 168 l 144 815 q 123 898 144 876 q 41 922 102 921 l 41 955 l 373 955 l 373 922 q 291 898 313 921 q 270 815 270 876 l 270 583 l 684 583 l 684 815 q 662 898 684 876 q 581 922 641 921 l 581 955 l 912 955 l 912 922 q 830 898 852 921 q 809 815 809 876 l 809 228 q 830 144 809 167 q 912 120 852 121 l 912 87 z "},"I":{"ha":420,"x_min":50,"x_max":381,"o":"m 381 87 l 50 87 l 50 120 q 131 144 109 121 q 153 228 153 168 l 153 815 q 131 898 153 876 q 50 922 110 921 l 50 955 l 381 955 l 381 922 q 299 899 321 921 q 278 815 278 876 l 278 228 q 381 120 278 123 l 381 87 z "},"J":{"ha":405,"x_min":-102,"x_max":377,"o":"m 377 922 q 295 898 317 921 q 274 814 274 875 l 274 245 q 115 -147 274 17 q -31 -219 45 -219 q -102 -207 -62 -219 l -102 8 l -54 8 q -29 -85 -50 -46 q 46 -138 -1 -138 q 149 87 149 -138 l 149 814 q 127 898 149 876 q 45 922 106 921 l 45 955 l 377 955 l 377 922 z "},"K":{"ha":810,"x_min":40,"x_max":829,"o":"m 829 87 l 610 87 l 269 545 l 269 228 q 372 120 269 123 l 372 87 l 40 87 l 40 120 q 121 144 100 121 q 143 228 143 168 l 143 814 q 122 898 143 876 q 40 922 100 921 l 40 955 l 372 955 l 372 922 q 290 898 311 921 q 269 814 269 876 l 269 541 l 436 705 q 547 877 547 814 q 477 922 547 920 l 477 955 l 789 955 l 789 922 q 601 814 701 911 l 381 602 l 619 284 q 829 120 742 120 l 829 87 z "},"L":{"ha":651,"x_min":44,"x_max":654,"o":"m 654 336 l 596 56 l 564 56 q 535 87 564 87 l 44 87 l 44 120 q 125 144 104 121 q 147 228 147 168 l 147 814 q 126 898 147 875 q 44 922 104 921 l 44 955 l 377 955 l 377 922 q 294 899 315 921 q 273 814 273 876 l 273 120 l 361 120 q 606 336 567 120 l 654 336 z "},"M":{"ha":1230,"x_min":4,"x_max":1221,"o":"m 1221 87 l 887 87 l 887 120 q 960 142 939 121 q 980 214 980 162 q 979 237 980 224 l 926 777 q 760 454 810 570 l 590 56 l 559 56 l 242 845 l 219 602 q 203 340 203 437 q 311 120 203 126 l 311 87 l 4 87 l 4 120 q 98 219 62 134 q 137 359 114 258 q 180 631 166 484 l 197 812 q 197 840 197 819 q 176 905 197 888 q 108 922 157 921 l 108 955 l 330 955 l 621 237 l 787 631 q 911 955 881 853 l 1154 955 l 1154 922 q 1076 906 1099 921 q 1048 836 1048 887 q 1048 820 1048 827 l 1100 279 q 1123 165 1108 191 q 1221 120 1147 122 l 1221 87 z "},"N":{"ha":941,"x_min":23,"x_max":933,"o":"m 933 922 q 809 515 809 911 l 809 56 l 777 56 l 192 847 l 192 595 q 204 331 192 420 q 317 120 231 131 l 317 87 l 23 87 l 23 120 q 146 587 146 139 l 146 821 q 124 900 146 878 q 45 922 102 921 l 45 955 l 267 955 l 760 292 l 760 494 q 637 922 760 909 l 637 955 l 933 955 l 933 922 z "},"O":{"ha":1013,"x_min":52,"x_max":962,"o":"m 962 562 q 886 306 962 427 q 690 123 810 185 q 461 68 581 68 q 169 185 286 68 q 52 477 52 302 q 197 826 52 677 q 541 975 342 975 q 896 790 768 975 q 962 562 962 695 m 847 443 q 795 678 847 569 q 637 856 739 798 q 456 911 541 911 q 241 817 321 911 q 166 591 166 728 q 271 275 166 410 q 561 128 385 128 q 770 223 689 128 q 847 443 847 313 z "},"P":{"ha":665,"x_min":40,"x_max":686,"o":"m 686 800 q 585 590 686 688 q 372 492 484 492 q 269 517 326 492 l 269 228 q 372 120 269 123 l 372 87 l 40 87 l 40 120 q 122 144 100 121 q 143 228 143 167 l 143 815 q 122 898 143 876 q 40 922 100 921 l 40 955 l 469 955 q 686 800 686 955 m 551 713 q 515 855 551 799 q 391 922 472 922 q 269 878 328 922 l 269 608 q 424 543 355 543 q 551 713 551 543 z "},"Q":{"ha":1013,"x_min":55,"x_max":1005,"o":"m 1005 -45 q 918 -138 943 -116 q 808 -193 857 -193 q 610 -77 750 -193 q 397 79 453 54 q 358 87 377 87 q 217 -2 305 87 l 217 40 q 285 115 249 85 q 114 262 175 161 q 55 482 55 360 q 302 905 55 748 q 547 975 410 975 q 903 784 781 975 q 962 565 962 692 q 849 253 962 389 q 563 82 735 117 q 716 -16 607 71 q 861 -96 817 -96 q 1005 -2 909 -96 l 1005 -45 m 851 449 q 797 681 851 572 q 640 858 740 796 q 458 916 545 916 q 245 819 326 916 q 168 593 168 728 q 363 197 168 338 q 562 132 453 132 q 773 228 691 132 q 851 449 851 318 z "},"R":{"ha":752,"x_min":38,"x_max":785,"o":"m 785 87 l 622 87 q 535 146 572 87 l 267 564 l 267 228 q 371 120 267 123 l 371 87 l 38 87 l 38 120 q 119 144 98 121 q 141 228 141 168 l 141 815 q 120 898 141 876 q 38 922 98 921 l 38 955 l 469 955 q 661 806 661 955 q 446 516 661 640 l 597 282 q 785 120 699 125 l 785 87 m 522 709 q 488 850 522 790 q 371 923 446 923 q 267 889 315 923 l 267 606 q 403 549 346 549 q 522 709 522 549 z "},"S":{"ha":622,"x_min":65,"x_max":585,"o":"m 585 340 q 479 144 585 227 q 264 68 382 68 q 65 111 176 68 l 65 355 l 113 355 q 165 191 113 260 q 315 113 224 113 q 432 155 387 113 q 477 269 477 197 q 409 408 477 343 q 278 502 382 433 q 149 595 191 559 q 86 730 86 650 q 185 909 86 837 q 385 975 274 975 q 546 940 446 975 l 546 727 l 496 727 q 449 865 492 808 q 323 928 400 928 q 228 894 266 928 q 190 803 190 859 q 269 663 190 734 q 404 566 299 635 q 526 474 497 503 q 585 340 585 415 z "},"T":{"ha":724,"x_min":15,"x_max":720,"o":"m 720 728 l 671 728 q 465 922 669 922 l 429 922 l 429 228 q 532 120 429 123 l 532 87 l 200 87 l 200 120 q 281 144 260 121 q 303 228 303 168 l 303 922 l 256 922 q 62 728 68 922 l 15 728 l 15 985 l 45 985 q 71 955 54 955 l 664 955 q 687 985 687 955 l 720 985 l 720 728 z "},"U":{"ha":941,"x_min":32,"x_max":926,"o":"m 926 922 q 800 498 800 903 q 798 337 800 354 q 753 186 791 242 q 471 68 674 68 q 175 189 257 68 q 135 333 135 248 l 135 814 q 114 898 135 875 q 32 922 92 921 l 32 955 l 363 955 l 363 922 q 282 898 303 921 q 260 814 260 875 l 260 338 q 359 146 260 209 q 500 111 416 111 q 726 233 673 111 q 752 415 752 292 q 743 696 752 616 q 627 922 716 914 l 627 955 l 926 955 l 926 922 z "},"V":{"ha":854,"x_min":26,"x_max":854,"o":"m 854 922 q 713 755 780 922 l 437 58 l 397 58 l 153 766 q 26 922 99 921 l 26 955 l 266 955 l 266 922 q 239 903 239 922 q 247 870 239 892 l 462 250 l 600 600 q 656 831 656 744 q 549 922 656 921 l 549 955 l 854 955 l 854 922 z "},"W":{"ha":1345,"x_min":38,"x_max":1345,"o":"m 1345 922 q 1196 734 1271 921 l 925 56 l 884 56 l 688 629 q 581 407 621 509 l 442 56 l 403 56 l 174 730 q 86 901 128 865 q 38 922 62 920 l 38 955 l 275 955 l 275 922 q 250 900 250 922 q 252 886 250 895 l 467 250 l 581 535 q 630 772 630 660 q 516 922 630 916 l 516 955 l 756 955 l 756 922 q 727 901 727 922 q 730 886 727 895 l 947 250 l 1086 601 q 1149 831 1149 762 q 1120 905 1149 885 q 1040 922 1097 921 l 1040 955 l 1345 955 l 1345 922 z "},"X":{"ha":839,"x_min":2,"x_max":830,"o":"m 830 87 l 560 87 l 560 120 q 587 141 587 121 q 583 155 587 147 l 387 481 q 233 189 233 279 q 324 120 233 121 l 324 87 l 2 87 l 2 120 q 201 282 91 127 l 368 515 l 217 766 q 45 922 127 916 l 45 955 l 309 955 l 309 922 q 282 905 282 921 q 285 895 282 900 l 448 624 q 567 856 567 791 q 464 922 567 921 l 464 955 l 789 955 l 789 922 q 591 766 695 909 l 464 593 l 680 238 q 778 137 724 166 q 830 120 800 125 l 830 87 z "},"Y":{"ha":810,"x_min":24,"x_max":838,"o":"m 838 922 q 676 770 764 921 l 471 420 l 471 228 q 574 120 471 123 l 574 87 l 242 87 l 242 120 q 323 144 302 121 q 345 228 345 168 l 345 420 l 176 761 q 117 862 142 828 q 24 922 72 922 l 24 955 l 270 955 l 270 922 q 244 904 244 922 q 247 892 244 897 l 460 469 q 625 844 625 726 q 591 909 625 892 q 514 922 568 922 l 514 955 l 838 955 l 838 922 z "},"Z":{"ha":825,"x_min":53,"x_max":807,"o":"m 807 337 l 751 58 l 719 58 q 703 87 718 87 l 53 87 l 53 127 l 611 922 l 410 922 q 223 888 282 922 q 140 728 146 844 l 94 728 l 94 985 l 125 985 q 151 955 126 955 l 758 955 l 758 915 l 198 120 l 402 120 q 631 157 555 120 q 758 337 732 205 l 807 337 z "},"[":{"ha":434,"x_min":145,"x_max":366,"o":"m 366 -68 l 145 -68 l 145 1047 l 366 1047 l 366 1005 l 242 1005 l 242 -26 l 366 -26 l 366 -68 z "},"\\":{"ha":709,"x_min":77,"x_max":632,"o":"m 632 62 l 557 62 l 77 1055 l 151 1055 l 632 62 z "},"]":{"ha":434,"x_min":92,"x_max":284,"o":"m 284 -68 l 92 -68 l 92 -26 l 187 -26 l 187 1004 l 92 1004 l 92 1046 l 284 1046 l 284 -68 z "},"^":{"ha":651,"x_min":25,"x_max":626,"o":"m 626 469 l 564 469 l 326 866 l 89 469 l 25 469 l 317 955 l 338 955 l 626 469 z "},"_":{"ha":694,"x_min":-8,"x_max":703,"o":"m 703 -174 l -8 -174 l -8 -104 l 703 -104 l 703 -174 z "},"`":{"ha":463,"x_min":114,"x_max":277,"o":"m 277 823 l 253 809 l 159 915 q 114 981 114 965 q 155 1023 114 1023 q 200 980 179 1023 l 277 823 z "},"a":{"ha":651,"x_min":39,"x_max":643,"o":"m 643 169 q 475 68 540 68 q 416 133 416 68 l 416 233 q 162 68 255 68 q 73 110 109 68 q 39 204 39 150 q 416 522 39 351 l 416 603 q 332 689 416 689 q 203 611 255 689 q 151 462 159 547 l 105 462 l 105 625 q 399 728 261 728 q 492 699 465 728 q 519 603 519 669 l 519 179 q 547 149 519 149 q 643 211 574 149 l 643 169 m 424 467 q 247 397 326 446 q 142 250 142 332 q 169 182 142 208 q 237 157 195 157 q 385 270 335 157 q 424 467 422 353 z "},"b":{"ha":709,"x_min":-1,"x_max":683,"o":"m 683 483 q 646 312 683 397 q 547 171 610 227 q 433 102 490 120 q 300 87 385 87 l 237 87 q 165 84 182 87 q 109 45 125 76 l 64 45 q 102 205 102 115 l 102 873 q 57 933 102 933 q -1 918 36 933 l -1 951 l 225 1044 l 225 1017 q 206 981 206 1006 l 206 516 q 331 652 301 625 q 492 727 415 727 q 638 649 586 727 q 683 483 683 582 m 581 414 q 551 559 581 500 q 433 635 512 635 q 256 511 326 635 q 197 291 197 406 q 206 193 197 248 q 382 142 289 142 q 540 230 488 142 q 581 414 581 300 z "},"c":{"ha":622,"x_min":31,"x_max":571,"o":"m 571 254 q 283 68 422 68 q 98 159 170 68 q 31 360 31 243 q 125 614 31 506 q 368 728 224 728 q 552 684 453 728 l 552 507 l 503 507 q 454 635 500 585 q 328 687 406 687 q 176 600 232 687 q 128 424 128 526 q 179 244 128 319 q 337 158 237 158 q 571 301 438 158 l 571 254 z "},"d":{"ha":724,"x_min":30,"x_max":711,"o":"m 711 136 l 538 68 l 506 68 l 506 288 q 387 147 422 180 q 227 68 304 68 q 78 157 134 68 q 30 332 30 233 q 128 595 30 470 q 368 728 233 728 q 506 692 426 728 l 506 874 q 462 932 506 932 q 404 918 439 932 l 404 955 l 638 1044 l 638 1017 q 609 970 609 1005 l 609 212 q 657 156 609 156 q 711 171 679 156 l 711 136 m 514 519 q 506 602 514 566 q 324 680 412 680 q 176 575 230 680 q 133 387 133 490 q 169 238 133 305 q 288 157 212 157 q 456 294 387 157 q 514 519 514 408 z "},"e":{"ha":608,"x_min":30,"x_max":581,"o":"m 581 258 q 286 68 429 68 q 100 163 176 68 q 30 364 30 252 q 115 608 30 498 q 338 726 208 726 q 500 653 439 726 q 560 481 557 585 l 123 481 q 121 443 121 455 q 176 254 121 334 q 342 162 239 162 q 581 302 459 162 l 581 258 m 449 515 q 406 631 441 587 q 297 684 364 684 q 183 631 231 684 q 129 515 139 584 l 449 515 z "},"f":{"ha":434,"x_min":36,"x_max":471,"o":"m 471 829 l 422 829 q 339 954 419 954 q 257 892 285 954 q 235 783 235 844 q 353 656 235 656 l 409 656 l 409 625 l 243 625 l 243 226 q 266 145 243 169 q 347 120 290 121 l 347 87 l 36 87 l 36 120 q 116 145 93 121 q 140 226 140 169 l 140 625 l 36 625 l 36 656 l 66 656 q 146 748 120 656 q 234 925 176 854 q 402 1015 307 1015 q 471 1001 427 1015 l 471 829 z "},"g":{"ha":694,"x_min":-23,"x_max":682,"o":"m 682 22 q 521 -167 682 -96 q 258 -222 394 -222 q 83 -192 161 -222 q -23 -68 -23 -151 q 108 76 -23 15 q 309 138 191 115 q 260 213 260 174 q 351 332 260 260 q 327 328 344 331 q 254 320 275 320 q 121 361 174 320 q 61 482 61 406 q 161 658 61 584 q 359 726 254 726 q 484 693 403 726 q 630 655 577 655 l 678 655 l 678 623 l 540 623 q 556 559 556 588 q 515 448 556 503 q 430 361 490 413 q 349 263 349 292 q 479 181 349 224 q 608 129 571 151 q 682 22 682 85 m 450 522 q 416 633 450 587 q 315 686 378 686 q 207 635 247 686 q 170 520 170 590 q 205 407 170 454 q 309 355 244 355 q 413 408 373 355 q 450 522 450 455 m 586 -16 q 526 56 586 26 q 429 92 514 62 l 351 120 q 73 -57 73 50 q 160 -157 73 -124 q 302 -181 222 -181 q 479 -146 399 -181 q 586 -16 586 -101 z "},"h":{"ha":767,"x_min":34,"x_max":739,"o":"m 739 87 l 502 87 l 502 120 q 532 157 532 121 l 532 562 q 460 650 532 650 q 288 498 357 650 q 231 257 231 373 q 315 120 231 120 l 342 120 l 342 87 l 34 87 l 34 120 q 113 145 90 121 q 136 226 136 170 l 136 895 q 92 935 136 935 q 34 922 66 935 l 34 955 l 267 1048 l 267 1019 q 239 970 239 1008 l 239 503 q 524 728 398 728 q 635 580 635 728 l 635 226 q 658 145 635 168 q 739 120 681 121 l 739 87 z "},"i":{"ha":376,"x_min":40,"x_max":351,"o":"m 260 945 q 241 899 260 918 q 195 880 222 880 q 150 899 168 880 q 131 945 131 918 q 149 990 131 971 q 194 1010 168 1010 q 241 991 222 1010 q 260 945 260 972 m 351 87 l 40 87 l 40 120 q 120 145 97 121 q 144 226 144 169 l 144 597 q 95 640 144 640 q 56 631 77 640 q 40 625 45 626 l 40 659 l 214 728 l 247 728 l 247 226 q 270 145 247 169 q 351 120 294 121 l 351 87 z "},"j":{"ha":361,"x_min":-88,"x_max":256,"o":"m 256 945 q 237 899 256 918 q 192 880 218 880 q 146 899 165 880 q 127 945 127 918 q 146 990 127 970 q 191 1009 165 1009 q 237 991 218 1009 q 256 945 256 972 m 243 138 q 173 -93 243 22 q -16 -223 94 -223 q -88 -208 -50 -223 l -88 -24 l -39 -24 q -22 -112 -39 -76 q 47 -160 1 -160 q 119 -101 92 -160 q 140 -3 140 -54 l 140 573 q 92 636 140 636 q 37 621 68 636 l 37 656 l 212 726 l 243 726 l 243 138 z "},"k":{"ha":694,"x_min":35,"x_max":711,"o":"m 711 87 l 503 87 l 241 419 l 240 210 q 345 120 240 122 l 345 87 l 35 87 l 35 120 q 115 145 92 121 q 138 226 138 169 l 138 861 q 89 933 138 933 q 35 922 69 933 l 35 955 l 268 1048 l 268 1020 q 241 979 241 1011 l 241 419 l 396 551 q 447 634 447 595 q 366 677 447 676 l 366 709 l 684 709 l 684 677 q 477 574 600 676 l 339 460 l 473 290 q 711 120 606 121 l 711 87 z "},"l":{"ha":376,"x_min":40,"x_max":351,"o":"m 351 87 l 40 87 l 40 120 q 121 145 97 121 q 144 226 144 169 l 144 871 q 93 933 144 933 q 40 922 71 933 l 40 955 l 277 1048 l 277 1020 q 248 970 248 1006 l 248 226 q 271 145 248 169 q 351 120 294 121 l 351 87 z "},"m":{"ha":1114,"x_min":35,"x_max":1090,"o":"m 1090 87 l 854 87 l 854 120 q 883 152 883 121 l 883 541 q 811 650 883 650 q 652 501 713 650 q 604 270 604 385 q 623 163 604 195 q 715 120 648 121 l 715 87 l 481 87 l 481 120 q 509 145 509 121 l 509 562 q 493 621 509 597 q 441 648 474 648 q 280 500 341 648 q 233 267 233 384 q 251 162 233 193 q 342 120 275 120 l 342 87 l 35 87 l 35 120 q 114 145 91 121 q 137 226 137 170 l 137 581 q 93 637 137 637 q 35 623 71 637 l 35 656 l 208 726 l 240 726 l 240 519 q 351 653 314 618 q 502 727 428 727 q 612 569 612 727 q 612 526 612 551 q 724 656 688 623 q 875 728 802 728 q 956 693 926 728 q 986 606 986 658 l 986 226 q 1009 145 986 169 q 1090 120 1033 121 l 1090 87 z "},"n":{"ha":767,"x_min":35,"x_max":739,"o":"m 739 87 l 503 87 l 503 120 q 531 153 531 121 l 531 572 q 465 650 531 650 q 289 497 359 650 q 233 252 233 373 q 252 153 233 180 q 344 120 276 121 l 344 87 l 35 87 l 35 120 q 115 145 92 121 q 138 226 138 169 l 138 572 q 94 640 138 640 q 35 623 77 640 l 35 656 l 212 728 l 240 728 l 240 505 q 360 647 313 602 q 520 728 446 728 q 635 581 635 728 l 635 226 q 658 145 635 169 q 739 120 682 121 l 739 87 z "},"o":{"ha":680,"x_min":28,"x_max":650,"o":"m 650 432 q 552 178 650 286 q 307 68 451 68 q 101 151 176 68 q 28 362 28 231 q 125 614 28 507 q 368 726 225 726 q 574 645 499 726 q 650 432 650 564 m 557 357 q 522 514 557 439 q 419 637 484 594 q 310 673 366 673 q 165 603 215 673 q 120 443 120 541 q 190 233 120 329 q 376 129 267 129 q 513 202 463 129 q 557 357 557 267 z "},"p":{"ha":738,"x_min":24,"x_max":707,"o":"m 707 476 q 611 203 707 328 q 363 68 507 68 q 229 100 302 68 l 229 -60 q 253 -142 229 -118 q 334 -168 277 -167 l 334 -201 l 24 -201 l 24 -168 q 104 -142 81 -167 q 127 -60 127 -117 l 127 588 q 87 639 127 639 q 24 621 73 639 l 24 655 l 199 726 l 229 726 l 229 506 q 347 649 302 606 q 509 728 430 728 q 659 646 603 728 q 707 476 707 574 m 605 414 q 575 566 605 502 q 458 650 536 650 q 280 508 351 650 q 222 272 222 391 q 229 186 222 240 q 397 109 324 109 q 557 216 499 109 q 605 414 605 304 z "},"q":{"ha":724,"x_min":30,"x_max":713,"o":"m 713 -202 l 402 -202 l 402 -170 q 481 -144 458 -169 q 505 -62 505 -119 l 505 277 q 374 141 419 179 q 206 68 286 68 q 71 153 119 68 q 30 316 30 223 q 90 523 30 422 q 244 671 151 627 q 437 706 321 707 l 503 705 q 616 747 596 705 l 652 747 q 609 545 609 672 l 609 -62 q 633 -144 609 -119 q 713 -170 656 -169 l 713 -202 m 513 517 q 505 605 513 555 q 333 658 414 658 q 181 560 235 658 q 138 374 138 481 q 168 232 138 292 q 281 155 206 155 q 456 289 387 155 q 513 517 513 399 z "},"r":{"ha":550,"x_min":35,"x_max":534,"o":"m 534 507 l 486 507 q 414 630 485 630 q 275 479 328 630 q 235 257 235 363 q 270 144 235 172 q 387 120 300 120 l 387 87 l 35 87 l 35 120 q 115 145 92 121 q 139 226 139 169 l 139 578 q 95 637 139 637 q 35 623 77 637 l 35 655 l 213 728 l 243 728 l 243 507 q 480 726 371 726 q 534 716 503 726 l 534 507 z "},"s":{"ha":507,"x_min":56,"x_max":471,"o":"m 471 277 q 390 125 471 188 q 223 68 315 68 q 56 109 151 68 l 56 296 l 102 296 q 144 169 106 220 q 260 111 188 111 q 345 141 311 111 q 379 223 379 172 q 338 313 379 273 q 253 373 319 332 l 166 428 q 77 559 77 491 q 151 686 77 638 q 298 728 214 728 q 431 701 360 728 l 431 523 l 382 523 q 347 636 382 588 q 245 689 309 689 q 188 666 210 689 q 165 608 165 644 q 207 528 165 566 q 285 473 226 510 q 405 395 391 407 q 471 277 471 341 z "},"t":{"ha":405,"x_min":20,"x_max":393,"o":"m 393 626 l 227 626 l 227 191 q 260 148 227 148 q 359 202 294 148 q 371 211 367 208 l 371 172 q 187 68 256 68 q 123 166 123 68 l 123 626 l 20 626 l 20 656 q 104 681 79 656 q 130 764 130 705 l 130 866 l 269 922 l 269 887 q 226 791 226 877 q 271 671 226 698 q 336 656 296 656 l 393 656 l 393 626 z "},"u":{"ha":767,"x_min":21,"x_max":738,"o":"m 738 140 l 551 66 l 517 66 l 517 291 q 397 147 444 191 q 234 68 314 68 q 122 227 122 68 l 122 597 q 59 656 122 656 q 21 652 45 656 l 21 684 l 254 726 l 254 699 q 225 652 225 691 l 225 233 q 292 144 225 144 q 467 296 395 144 q 525 537 525 420 q 452 658 525 658 q 414 652 439 658 l 414 684 l 650 726 l 650 699 q 620 652 620 694 l 620 216 q 667 153 620 153 q 738 174 694 153 l 738 140 z "},"v":{"ha":665,"x_min":9,"x_max":672,"o":"m 672 676 q 526 506 595 668 l 336 56 l 300 56 l 127 545 q 9 676 81 675 l 9 709 l 227 709 l 227 676 q 201 652 201 676 q 208 619 201 638 l 353 212 l 438 425 q 481 595 481 530 q 382 676 481 675 l 382 709 l 672 709 l 672 676 z "},"w":{"ha":1042,"x_min":18,"x_max":1051,"o":"m 1051 676 q 952 599 996 668 q 895 481 928 562 l 717 56 l 676 56 l 531 474 q 481 378 498 413 l 458 329 q 435 279 441 296 l 344 56 l 303 56 l 147 509 q 104 613 121 584 q 18 676 68 673 l 18 709 l 235 709 l 235 676 q 208 655 208 675 q 213 632 208 646 l 358 211 l 435 395 q 484 594 484 513 q 387 676 484 674 l 387 709 l 608 709 l 608 676 q 578 656 578 676 q 585 628 578 648 l 730 211 l 814 416 q 859 597 859 525 q 760 676 859 676 l 760 709 l 1051 709 l 1051 676 z "},"x":{"ha":724,"x_min":21,"x_max":712,"o":"m 712 87 l 469 87 l 469 120 q 492 134 492 120 q 480 160 492 146 l 343 359 q 241 178 241 239 q 323 120 241 121 l 323 87 l 21 87 l 21 120 q 231 279 106 127 l 323 390 l 209 551 q 48 676 122 674 l 48 709 l 296 709 l 296 676 q 269 657 269 675 q 275 641 269 649 l 389 474 q 477 626 477 576 q 410 676 477 675 l 410 709 l 685 709 l 685 676 q 530 585 616 673 q 410 442 498 553 l 547 249 q 712 120 636 123 l 712 87 z "},"y":{"ha":651,"x_min":-9,"x_max":662,"o":"m 662 676 q 595 648 618 673 q 535 536 566 616 l 302 -67 q 100 -219 249 -206 l -9 -90 l 27 -60 q 146 -127 81 -127 q 254 -54 218 -127 q 300 56 266 -31 l 311 83 l 125 544 q 81 632 100 608 q -1 676 48 675 l -1 709 l 218 709 l 218 676 q 193 660 193 675 q 197 643 193 653 l 365 224 l 431 401 q 476 600 476 521 q 379 676 476 676 l 379 709 l 662 709 l 662 676 z "},"z":{"ha":622,"x_min":41,"x_max":578,"o":"m 578 56 l 547 56 q 491 87 545 87 l 41 87 l 41 120 l 437 676 l 310 676 q 130 524 138 676 l 85 524 l 85 739 l 117 739 l 117 734 q 153 709 117 709 l 562 709 l 562 675 l 165 120 l 310 120 q 533 294 526 120 l 578 294 l 578 56 z "},"{":{"ha":665,"x_min":195,"x_max":564,"o":"m 564 -217 q 395 -130 461 -199 q 326 45 326 -57 q 343 165 326 86 q 356 241 356 222 q 307 351 356 306 q 195 401 261 393 l 195 427 q 357 575 357 462 q 346 658 357 607 q 328 785 328 743 q 396 960 328 888 q 564 1046 461 1029 l 564 1019 q 459 969 500 1009 q 414 864 414 926 q 422 786 414 833 q 443 644 443 677 q 249 416 443 492 q 441 178 441 337 q 422 57 441 145 q 411 -35 411 1 q 564 -193 411 -157 l 564 -217 z "},"|":{"ha":709,"x_min":317,"x_max":391,"o":"m 391 -201 l 317 -201 l 317 1048 l 391 1048 l 391 -201 z "},"}":{"ha":665,"x_min":102,"x_max":471,"o":"m 471 402 q 309 253 309 367 q 319 170 309 218 q 338 43 338 81 q 270 -131 338 -59 q 102 -217 205 -200 l 102 -190 q 207 -140 165 -180 q 252 -35 252 -98 q 243 42 252 -3 q 223 185 223 153 q 416 413 223 336 q 225 650 225 492 q 243 772 225 687 q 255 863 255 831 q 102 1021 255 985 l 102 1046 q 271 958 204 1027 q 340 784 340 886 q 322 664 340 745 q 310 587 310 610 q 359 477 310 522 q 471 427 403 438 l 471 402 z "},"~":{"ha":926,"x_min":100,"x_max":827,"o":"m 827 623 q 783 487 825 541 q 657 427 736 427 q 527 458 600 427 l 404 509 q 255 552 301 552 q 132 429 155 552 l 100 429 q 142 562 102 509 q 262 624 186 624 q 521 541 328 624 q 669 497 624 497 q 758 533 724 497 q 794 623 789 567 l 827 623 z "},"␡":{"ha":1085,"x_min":59,"x_max":1031,"o":"m 1031 87 l 783 87 l 783 485 l 836 485 l 836 134 l 1031 134 l 1031 87 m 732 87 l 435 87 l 435 485 l 723 485 l 723 438 l 488 438 l 488 317 l 708 317 l 708 270 l 488 270 l 488 134 l 732 134 l 732 87 m 388 288 q 267 94 388 124 q 202 87 239 87 l 59 87 l 59 485 l 196 485 q 267 479 243 485 q 372 383 342 462 q 388 288 388 342 m 334 290 q 263 430 334 403 q 195 438 242 438 l 111 438 l 111 134 l 197 134 q 294 162 266 134 q 334 290 334 202 z "}," ":{"ha":339,"x_min":0,"x_max":0,"o":""},"¡":{"ha":441,"x_min":122,"x_max":297,"o":"m 244 665 q 226 623 244 641 q 183 604 208 604 q 140 622 158 604 q 122 665 122 640 q 140 708 122 690 q 182 726 158 726 q 226 708 208 726 q 244 665 244 690 m 297 55 q 148 -64 245 55 l 148 490 l 219 562 l 219 236 q 297 55 219 193 z "},"¢":{"ha":622,"x_min":31,"x_max":571,"o":"m 571 376 q 351 201 456 234 l 351 87 l 302 87 l 302 191 q 76 314 154 191 q 31 482 31 386 q 105 712 31 608 q 302 847 182 821 l 302 955 l 351 955 l 351 852 q 551 810 455 852 l 551 632 l 505 632 q 460 751 499 702 q 351 810 418 804 l 351 284 q 571 429 444 286 l 571 376 m 302 287 l 302 810 q 170 713 218 796 q 127 550 127 640 q 169 385 127 457 q 302 287 217 304 z "},"£":{"ha":810,"x_min":104,"x_max":811,"o":"m 811 292 q 749 153 775 196 q 634 68 696 68 q 462 112 581 68 q 290 155 344 155 q 144 52 205 155 l 104 52 q 192 184 124 87 q 269 298 252 270 q 311 427 311 373 q 268 542 311 489 l 104 542 l 104 589 l 176 589 q 214 612 214 589 q 207 639 214 620 q 186 732 186 690 q 294 911 186 839 q 502 975 389 975 q 707 932 575 975 l 707 728 l 659 728 q 600 872 650 814 q 461 937 545 937 q 339 889 387 937 q 292 767 292 841 q 357 633 292 682 q 504 589 416 589 l 602 589 l 602 542 l 408 542 q 416 503 416 522 q 366 374 416 453 q 281 260 354 357 q 326 267 306 267 q 483 227 363 267 q 659 177 632 177 q 781 302 728 177 l 811 292 z "},"¤":{"ha":694,"x_min":18,"x_max":675,"o":"m 675 259 l 635 222 l 538 319 q 355 249 448 249 q 248 267 304 249 q 155 319 186 286 l 56 222 l 18 259 l 116 357 q 47 549 47 437 q 116 741 47 655 l 18 836 l 56 875 l 155 779 q 349 848 235 848 q 538 779 458 848 l 635 875 l 675 836 l 577 741 q 647 550 647 651 q 577 357 647 446 l 675 259 m 593 548 q 558 672 593 613 q 468 761 524 730 q 347 793 410 793 q 173 721 244 793 q 102 547 102 650 q 173 374 102 445 q 347 303 245 303 q 520 375 448 303 q 593 548 593 446 z "},"¥":{"ha":810,"x_min":24,"x_max":838,"o":"m 838 922 q 676 770 764 921 l 498 468 l 781 468 l 781 419 l 471 419 l 471 321 l 781 321 l 781 272 l 471 272 l 471 228 q 574 120 471 123 l 574 87 l 242 87 l 242 120 q 323 144 302 121 q 345 228 345 168 l 345 272 l 73 272 l 73 321 l 345 321 l 345 419 l 73 419 l 73 468 l 321 468 l 176 761 q 117 862 142 828 q 24 922 72 922 l 24 955 l 270 955 l 270 922 q 244 904 244 922 q 247 892 244 897 l 460 469 q 625 844 625 726 q 591 909 625 892 q 514 922 568 922 l 514 955 l 838 955 l 838 922 z "},"¦":{"ha":278,"x_min":109,"x_max":165,"o":"m 165 549 l 109 549 l 109 1052 l 165 1052 l 165 549 m 165 -212 l 109 -212 l 109 291 l 165 291 l 165 -212 z "},"§":{"ha":578,"x_min":64,"x_max":517,"o":"m 517 422 q 359 209 517 282 q 466 124 438 155 q 515 3 515 71 q 422 -162 515 -98 q 233 -219 339 -219 q 72 -180 155 -219 l 72 5 l 122 5 q 159 -120 123 -71 q 273 -176 200 -176 q 381 -135 335 -176 q 428 -31 428 -93 q 371 79 428 29 q 262 150 350 97 q 130 245 168 207 q 64 389 64 311 q 237 604 64 535 q 131 686 160 654 q 82 806 82 739 q 159 962 82 906 q 331 1011 227 1011 q 481 981 406 1011 l 481 810 l 434 810 q 389 923 425 879 q 283 975 349 975 q 195 941 231 975 q 159 854 159 907 q 210 751 159 798 q 309 682 233 730 q 451 577 414 615 q 517 422 517 509 m 447 382 q 389 497 447 444 q 279 572 357 526 q 142 427 142 538 q 210 311 142 369 q 326 232 243 281 q 447 382 447 292 z "},"¨":{"ha":463,"x_min":41,"x_max":425,"o":"m 425 916 q 405 867 425 887 q 356 847 385 847 q 308 867 328 847 q 288 916 288 887 q 307 964 288 943 q 355 984 327 984 q 404 964 384 984 q 425 916 425 945 m 178 916 q 158 868 178 888 q 109 848 138 848 q 61 868 81 848 q 41 916 41 888 q 61 964 41 944 q 109 984 81 984 q 158 965 138 984 q 178 916 178 945 z "},"©":{"ha":1063,"x_min":52,"x_max":1011,"o":"m 1011 494 q 871 154 1011 294 q 531 15 732 15 q 191 154 330 15 q 52 494 52 293 q 191 835 52 695 q 531 975 330 975 q 872 835 732 975 q 1011 494 1011 696 m 975 494 q 913 719 975 614 q 747 881 852 824 q 531 937 643 937 q 216 808 345 937 q 87 494 87 680 q 216 179 87 308 q 531 50 345 50 q 845 179 716 50 q 975 494 975 309 m 773 347 q 536 199 686 199 q 327 286 408 199 q 248 500 248 371 q 329 718 248 628 q 539 810 412 810 q 656 785 593 810 q 698 774 681 774 q 725 812 724 774 l 745 812 l 758 613 l 739 613 q 546 780 691 780 q 387 690 444 780 q 339 505 339 613 q 390 321 339 391 q 557 241 448 241 q 758 357 675 241 l 773 347 z "},"ª":{"ha":434,"x_min":26,"x_max":426,"o":"m 426 608 q 315 540 358 540 q 276 586 276 540 l 276 650 q 110 542 172 542 q 50 569 73 542 q 26 632 26 595 q 276 842 26 726 l 276 888 q 223 953 276 953 q 134 903 169 953 q 100 802 104 860 l 69 802 l 69 909 q 264 977 172 977 q 344 914 344 977 l 344 620 q 360 594 344 594 q 426 633 382 594 l 426 608 m 280 802 q 163 757 215 789 q 94 661 94 715 q 156 600 94 600 q 254 673 221 600 q 280 802 279 727 z "},"«":{"ha":579,"x_min":47,"x_max":545,"o":"m 545 87 l 482 87 l 252 359 l 482 625 l 541 625 l 388 359 l 545 87 m 337 87 l 277 87 l 47 359 l 278 625 l 337 625 l 184 359 l 337 87 z "},"¬":{"ha":926,"x_min":96,"x_max":829,"o":"m 829 332 l 755 332 l 755 648 l 96 648 l 96 722 l 829 722 l 829 332 z "},"­":{"ha":783,"x_min":24,"x_max":750,"o":"m 750 628 l 24 628 l 24 683 l 750 683 l 750 628 z "},"−":{"ha":783,"x_min":24,"x_max":750,"o":"m 750 628 l 24 628 l 24 683 l 750 683 l 750 628 z "},"®":{"ha":1063,"x_min":52,"x_max":1011,"o":"m 1011 494 q 871 154 1011 294 q 531 15 732 15 q 191 154 330 15 q 52 494 52 293 q 191 835 52 695 q 531 975 330 975 q 872 835 732 975 q 1011 494 1011 696 m 975 494 q 913 719 975 614 q 747 881 852 824 q 531 937 643 937 q 216 808 345 937 q 87 494 87 680 q 216 179 87 308 q 531 50 345 50 q 845 179 716 50 q 975 494 975 309 m 807 206 l 669 206 l 614 283 l 471 481 l 423 481 l 423 326 q 455 237 423 252 q 510 231 467 231 l 510 206 l 262 206 l 262 231 q 332 250 318 231 q 344 326 344 266 l 344 682 q 330 752 344 735 q 262 771 313 772 l 262 793 l 434 793 q 557 787 522 793 q 663 734 626 774 q 698 641 698 696 q 653 538 698 577 q 547 496 612 502 l 659 344 q 701 288 692 298 q 753 244 728 256 q 807 231 779 231 l 807 206 m 610 649 q 481 763 610 763 q 423 751 451 763 l 423 509 q 444 509 437 509 q 610 649 610 509 z "},"¯":{"ha":463,"x_min":56,"x_max":409,"o":"m 409 880 l 56 880 l 56 953 l 409 953 l 409 880 z "},"ˉ":{"ha":463,"x_min":56,"x_max":409,"o":"m 409 880 l 56 880 l 56 953 l 409 953 l 409 880 z "},"°":{"ha":521,"x_min":70,"x_max":484,"o":"m 484 772 q 423 626 484 686 q 277 566 363 566 q 130 626 190 566 q 70 772 70 686 q 130 919 70 859 q 277 979 190 979 q 424 920 364 979 q 484 772 484 860 m 440 772 q 393 889 440 842 q 277 936 346 936 q 161 888 208 936 q 113 772 113 841 q 160 656 113 703 q 277 609 208 609 q 393 656 345 609 q 440 772 440 704 z "},"±":{"ha":642,"x_min":71,"x_max":566,"o":"m 566 307 l 349 307 l 349 135 l 292 135 l 292 307 l 71 307 l 71 363 l 292 363 l 292 585 l 349 585 l 349 363 l 566 363 l 566 307 m 566 31 l 71 31 l 71 87 l 566 87 l 566 31 z "},"²":{"ha":492,"x_min":44,"x_max":434,"o":"m 434 671 l 401 509 l 379 509 q 367 527 378 527 l 44 527 l 44 552 q 206 740 164 686 q 315 954 315 881 q 255 1017 315 1017 q 127 867 166 1017 l 94 867 l 94 985 q 300 1045 208 1045 q 417 943 417 1045 q 376 846 417 897 q 300 769 358 823 l 127 610 l 340 610 q 410 671 397 610 l 434 671 z "},"³":{"ha":492,"x_min":73,"x_max":432,"o":"m 432 704 q 355 565 432 621 q 200 513 286 513 q 73 538 140 513 l 73 692 l 106 692 q 143 591 111 634 q 235 542 180 542 q 311 573 283 542 q 338 653 338 604 q 157 789 338 783 l 157 814 q 257 857 216 823 q 304 952 304 897 q 245 1015 304 1015 q 161 963 195 1015 q 129 864 131 918 l 96 864 l 96 983 q 292 1044 216 1044 q 396 962 396 1044 q 330 862 396 905 q 215 808 295 839 q 354 798 318 808 q 432 704 432 778 z "},"´":{"ha":463,"x_min":183,"x_max":350,"o":"m 350 983 q 326 939 350 966 l 212 812 l 183 831 l 270 993 q 309 1023 286 1023 q 337 1011 325 1023 q 350 983 350 999 z "},"µ":{"ha":709,"x_min":39,"x_max":698,"o":"m 698 223 q 664 115 694 157 q 567 66 629 66 q 458 198 471 66 q 239 68 339 68 q 115 151 155 68 q 115 121 115 141 q 116 90 116 99 q 121 -9 117 24 q 134 -69 123 -33 q 149 -147 149 -124 q 135 -192 149 -173 q 95 -213 120 -213 q 54 -193 70 -213 q 39 -149 39 -174 q 54 -74 39 -127 q 75 53 73 -2 q 81 307 76 117 l 81 332 l 81 709 l 173 709 l 173 295 q 286 142 173 142 q 458 239 355 142 l 458 709 l 547 709 l 547 277 q 552 190 547 213 q 604 132 564 132 q 669 223 651 132 l 698 223 z "},"μ":{"ha":709,"x_min":39,"x_max":698,"o":"m 698 223 q 664 115 694 157 q 567 66 629 66 q 458 198 471 66 q 239 68 339 68 q 115 151 155 68 q 115 121 115 141 q 116 90 116 99 q 121 -9 117 24 q 134 -69 123 -33 q 149 -147 149 -124 q 135 -192 149 -173 q 95 -213 120 -213 q 54 -193 70 -213 q 39 -149 39 -174 q 54 -74 39 -127 q 75 53 73 -2 q 81 307 76 117 l 81 332 l 81 709 l 173 709 l 173 295 q 286 142 173 142 q 458 239 355 142 l 458 709 l 547 709 l 547 277 q 552 190 547 213 q 604 132 564 132 q 669 223 651 132 l 698 223 z "},"¶":{"ha":608,"x_min":-5,"x_max":610,"o":"m 610 930 q 530 903 545 927 q 518 812 518 884 l 518 -222 l 479 -222 l 479 918 l 352 918 l 352 -222 l 312 -222 l 312 463 q -5 699 -5 456 q 41 848 -5 781 q 167 937 90 918 q 352 955 235 955 l 610 955 l 610 930 z "},"·":{"ha":275,"x_min":58,"x_max":221,"o":"m 221 521 q 197 463 221 487 q 139 439 173 439 q 82 464 106 439 q 58 521 58 488 q 81 578 58 554 q 138 603 104 603 q 197 579 172 603 q 221 521 221 555 z "},"∙":{"ha":275,"x_min":58,"x_max":221,"o":"m 221 521 q 197 463 221 487 q 139 439 173 439 q 82 464 106 439 q 58 521 58 488 q 81 578 58 554 q 138 603 104 603 q 197 579 172 603 q 221 521 221 555 z "},"¸":{"ha":463,"x_min":147,"x_max":368,"o":"m 368 -62 q 328 -134 368 -106 q 245 -158 292 -158 q 147 -141 207 -158 l 147 -104 q 234 -123 202 -123 q 292 -75 292 -123 q 225 -22 292 -22 l 189 -22 l 189 103 l 225 103 l 225 12 q 250 13 242 13 q 368 -62 368 13 z "},"¹":{"ha":492,"x_min":114,"x_max":374,"o":"m 374 519 l 138 519 l 138 544 l 159 544 q 211 591 211 544 l 211 907 q 174 960 211 960 q 114 946 153 960 l 114 970 l 323 1044 l 323 1024 q 301 989 301 1020 l 301 591 q 349 544 301 544 l 374 544 l 374 519 z "},"º":{"ha":448,"x_min":22,"x_max":433,"o":"m 433 779 q 367 612 433 685 q 208 540 301 540 q 72 593 121 540 q 22 733 22 647 q 85 900 22 828 q 245 975 151 975 q 384 921 333 975 q 433 779 433 868 m 372 732 q 328 869 372 806 q 208 940 280 940 q 113 894 146 940 q 82 789 82 852 q 127 649 82 713 q 250 578 178 578 q 342 627 309 578 q 372 732 372 670 z "},"»":{"ha":579,"x_min":34,"x_max":532,"o":"m 532 359 l 302 87 l 242 87 l 395 359 l 242 625 l 301 625 l 532 359 m 328 359 l 97 87 l 34 87 l 191 359 l 38 625 l 97 625 l 328 359 z "},"¼":{"ha":1186,"x_min":119,"x_max":1128,"o":"m 1128 223 l 1052 223 l 1052 153 q 1097 101 1052 101 l 1112 101 l 1112 77 l 888 77 l 888 101 l 908 101 q 962 153 962 101 l 962 223 l 731 223 l 731 248 l 886 427 q 1017 601 909 454 l 1052 601 l 1052 269 l 1128 269 l 1128 223 m 934 1046 l 306 66 l 246 66 l 876 1046 l 934 1046 m 378 519 l 142 519 l 142 544 l 163 544 q 216 591 216 544 l 216 907 q 179 960 216 960 q 119 946 157 960 l 119 970 l 328 1046 l 328 1024 q 306 989 306 1020 l 306 591 q 353 544 306 544 l 378 544 l 378 519 m 962 269 l 962 456 q 787 269 888 391 l 962 269 z "},"½":{"ha":1186,"x_min":119,"x_max":1128,"o":"m 1128 226 l 1095 64 l 1073 64 q 1061 83 1072 83 l 738 83 l 738 107 q 900 294 861 243 q 1010 509 1010 436 q 949 573 1010 573 q 821 422 861 573 l 788 422 l 788 544 q 994 601 902 601 q 1112 498 1112 601 q 1057 384 1112 446 q 962 295 1037 361 q 821 165 908 248 l 1034 165 q 1104 226 1093 165 l 1128 226 m 934 1046 l 306 64 l 246 64 l 876 1046 l 934 1046 m 378 519 l 142 519 l 142 544 l 163 544 q 216 591 216 544 l 216 907 q 179 960 216 960 q 119 946 158 960 l 119 970 l 328 1046 l 328 1024 q 306 989 306 1020 l 306 591 q 353 544 306 544 l 378 544 l 378 519 z "},"¾":{"ha":1186,"x_min":77,"x_max":1129,"o":"m 1129 223 l 1052 223 l 1052 153 q 1097 101 1052 101 l 1112 101 l 1112 77 l 891 77 l 891 101 l 909 101 q 962 153 962 101 l 962 223 l 731 223 l 731 248 l 880 419 q 1017 601 957 509 l 1052 601 l 1052 269 l 1129 269 l 1129 223 m 949 1046 l 323 66 l 262 66 l 891 1046 l 949 1046 m 437 704 q 360 565 437 621 q 205 513 290 513 q 77 538 144 513 l 77 692 l 111 692 q 148 591 115 634 q 240 542 185 542 q 315 573 288 542 q 342 653 342 604 q 161 789 342 783 l 161 814 q 262 857 220 823 q 309 952 309 897 q 250 1015 309 1015 q 165 963 199 1015 q 134 864 136 918 l 100 864 l 100 983 q 297 1044 220 1044 q 401 962 401 1044 q 220 808 401 875 q 359 798 323 808 q 437 704 437 777 m 962 269 l 962 456 q 787 269 886 390 l 962 269 z "},"¿":{"ha":622,"x_min":-7,"x_max":530,"o":"m 409 601 q 385 543 409 567 q 328 519 361 519 q 270 543 294 519 q 247 601 247 567 q 270 658 247 634 q 326 682 293 682 q 385 659 361 682 q 409 601 409 635 m 530 -122 q 188 -224 345 -224 q 54 -190 106 -224 q -7 -72 -7 -150 q 39 57 -7 -7 q 135 159 65 93 q 249 290 219 239 q 292 454 292 361 l 360 454 q 331 277 359 349 q 237 123 307 214 q 141 -69 141 -3 q 175 -154 141 -123 q 262 -186 208 -186 q 425 -98 360 -186 q 486 83 481 -20 l 530 83 l 530 -122 z "},"À":{"ha":839,"x_min":6,"x_max":838,"o":"m 838 87 l 594 87 l 594 120 l 610 120 q 621 142 621 120 q 618 157 621 149 l 537 393 l 241 393 q 194 197 194 262 q 274 120 194 120 l 310 120 l 310 87 l 6 87 l 6 120 q 144 282 83 124 l 422 991 l 463 991 l 703 298 q 749 188 728 223 q 838 120 789 122 l 838 87 m 522 435 l 399 795 l 256 435 l 522 435 m 492 1042 l 467 1028 l 373 1134 q 328 1200 328 1184 q 369 1242 328 1242 q 414 1199 393 1242 l 492 1042 z "},"×":{"ha":642,"x_min":89,"x_max":544,"o":"m 544 149 l 505 110 l 317 296 l 129 110 l 89 149 l 275 337 l 89 526 l 131 564 l 317 376 l 505 564 l 544 526 l 355 337 l 544 149 z "},"à":{"ha":651,"x_min":39,"x_max":643,"o":"m 643 169 q 475 68 540 68 q 416 133 416 68 l 416 233 q 162 68 255 68 q 73 110 109 68 q 39 204 39 150 q 416 522 39 351 l 416 603 q 332 689 416 689 q 203 611 255 689 q 151 462 159 547 l 105 462 l 105 625 q 399 728 261 728 q 492 699 465 728 q 519 603 519 669 l 519 179 q 547 149 519 149 q 643 211 574 149 l 643 169 m 424 467 q 247 397 326 446 q 142 250 142 332 q 169 182 142 208 q 237 157 195 157 q 385 270 335 157 q 424 467 422 353 m 404 823 l 379 809 l 285 915 q 240 981 240 965 q 281 1023 240 1023 q 326 980 305 1023 l 404 823 z "},"â":{"ha":651,"x_min":39,"x_max":643,"o":"m 643 169 q 475 68 540 68 q 416 133 416 68 l 416 233 q 162 68 255 68 q 73 110 109 68 q 39 204 39 150 q 416 522 39 351 l 416 603 q 332 689 416 689 q 203 611 255 689 q 151 462 159 547 l 105 462 l 105 625 q 399 728 261 728 q 492 699 465 728 q 519 603 519 669 l 519 179 q 547 149 519 149 q 643 211 574 149 l 643 169 m 424 467 q 247 397 326 446 q 142 250 142 332 q 169 182 142 208 q 237 157 195 157 q 385 270 335 157 q 424 467 422 353 m 511 837 l 467 837 l 321 922 l 178 837 l 132 837 l 321 1001 l 511 837 z "},"ç":{"ha":622,"x_min":35,"x_max":574,"o":"m 574 251 q 313 69 439 83 l 313 9 q 352 12 337 12 q 451 -63 451 12 q 408 -136 451 -109 q 323 -159 371 -159 q 236 -139 282 -159 l 236 -101 q 316 -122 278 -122 q 382 -72 382 -122 q 307 -21 382 -21 q 279 -22 296 -21 l 279 69 q 100 164 171 69 q 35 362 35 250 q 208 677 35 558 q 370 726 278 726 q 556 681 455 726 l 556 505 l 507 505 q 456 635 505 583 q 331 687 408 687 q 180 599 235 687 q 133 422 133 523 q 183 243 133 319 q 338 157 241 157 q 574 298 439 157 l 574 251 z "},"è":{"ha":608,"x_min":30,"x_max":581,"o":"m 581 258 q 286 68 429 68 q 100 163 176 68 q 30 364 30 252 q 115 608 30 498 q 338 726 208 726 q 500 653 439 726 q 560 481 557 585 l 123 481 q 121 443 121 455 q 176 254 121 334 q 342 162 239 162 q 581 302 459 162 l 581 258 m 449 515 q 406 631 441 587 q 297 684 364 684 q 183 631 231 684 q 129 515 139 584 l 449 515 m 384 823 l 359 809 l 265 915 q 220 981 220 965 q 261 1023 220 1023 q 307 980 286 1023 l 384 823 z "},"é":{"ha":608,"x_min":30,"x_max":581,"o":"m 581 258 q 286 68 429 68 q 100 163 176 68 q 30 364 30 252 q 115 608 30 498 q 338 726 208 726 q 500 653 439 726 q 560 481 557 585 l 123 481 q 121 443 121 455 q 176 254 121 334 q 342 162 239 162 q 581 302 459 162 l 581 258 m 449 515 q 406 631 441 587 q 297 684 364 684 q 183 631 231 684 q 129 515 139 584 l 449 515 m 425 983 q 401 939 425 966 l 286 812 l 258 831 l 345 993 q 383 1023 361 1023 q 412 1011 399 1023 q 425 983 425 999 z "},"ê":{"ha":608,"x_min":30,"x_max":581,"o":"m 581 258 q 286 68 429 68 q 100 163 176 68 q 30 364 30 252 q 115 608 30 498 q 338 726 208 726 q 500 653 439 726 q 560 481 557 585 l 123 481 q 121 443 121 455 q 176 254 121 334 q 342 162 239 162 q 581 302 459 162 l 581 258 m 449 515 q 406 631 441 587 q 297 684 364 684 q 183 631 231 684 q 129 515 139 584 l 449 515 m 506 837 l 461 837 l 316 922 l 173 837 l 127 837 l 316 1001 l 506 837 z "},"ë":{"ha":608,"x_min":30,"x_max":581,"o":"m 581 258 q 286 68 429 68 q 100 163 176 68 q 30 364 30 252 q 115 608 30 498 q 338 726 208 726 q 500 653 439 726 q 560 481 557 585 l 123 481 q 121 443 121 455 q 176 254 121 334 q 342 162 239 162 q 581 302 459 162 l 581 258 m 449 515 q 406 631 441 587 q 297 684 364 684 q 183 631 231 684 q 129 515 139 584 l 449 515 m 519 916 q 499 867 519 887 q 451 847 479 847 q 402 867 422 847 q 382 916 382 887 q 402 964 382 943 q 450 984 422 984 q 499 964 479 984 q 519 916 519 945 m 273 916 q 253 868 273 888 q 204 848 233 848 q 156 868 176 848 q 136 916 136 888 q 156 964 136 944 q 203 984 176 984 q 253 965 233 984 q 273 916 273 945 z "},"î":{"ha":376,"x_min":-12,"x_max":367,"o":"m 351 87 l 40 87 l 40 120 q 120 145 97 121 q 144 226 144 169 l 144 597 q 95 640 144 640 q 56 631 77 640 q 40 625 45 626 l 40 659 l 214 728 l 247 728 l 247 226 q 270 145 247 169 q 351 120 294 121 l 351 87 m 367 837 l 322 837 l 177 922 l 34 837 l -12 837 l 177 1001 l 367 837 z "},"ï":{"ha":376,"x_min":-4,"x_max":379,"o":"m 351 87 l 40 87 l 40 120 q 120 145 97 121 q 144 226 144 169 l 144 597 q 95 640 144 640 q 56 631 77 640 q 40 625 45 626 l 40 659 l 214 728 l 247 728 l 247 226 q 270 145 247 169 q 351 120 294 121 l 351 87 m 379 916 q 359 867 379 887 q 311 847 339 847 q 262 867 282 847 q 242 916 242 887 q 262 964 242 943 q 309 984 281 984 q 359 964 338 984 q 379 916 379 945 m 132 916 q 112 868 132 888 q 64 848 92 848 q 16 868 35 848 q -4 916 -4 888 q 16 964 -4 944 q 63 984 35 984 q 112 965 92 984 q 132 916 132 945 z "},"ô":{"ha":680,"x_min":28,"x_max":650,"o":"m 650 432 q 552 178 650 286 q 307 68 451 68 q 101 151 176 68 q 28 362 28 231 q 125 614 28 507 q 368 726 225 726 q 574 645 499 726 q 650 432 650 564 m 557 357 q 522 514 557 439 q 419 637 484 594 q 310 673 366 673 q 165 603 215 673 q 120 443 120 541 q 190 233 120 329 q 376 129 267 129 q 513 202 463 129 q 557 357 557 267 m 532 837 l 488 837 l 342 922 l 199 837 l 153 837 l 342 1001 l 532 837 z "},"÷":{"ha":642,"x_min":71,"x_max":566,"o":"m 372 524 q 356 482 372 499 q 316 465 340 465 q 275 482 292 465 q 258 524 258 500 q 275 564 258 548 q 316 580 292 580 q 356 564 340 580 q 372 524 372 547 m 566 307 l 71 307 l 71 363 l 566 363 l 566 307 m 372 146 q 356 104 372 121 q 316 87 340 87 q 275 105 292 87 q 258 146 258 122 q 275 187 258 170 q 316 203 292 203 q 356 187 340 203 q 372 146 372 170 z "},"ù":{"ha":767,"x_min":21,"x_max":738,"o":"m 738 140 l 551 66 l 517 66 l 517 291 q 397 147 444 191 q 234 68 314 68 q 122 227 122 68 l 122 597 q 59 656 122 656 q 21 652 45 656 l 21 684 l 254 726 l 254 699 q 225 652 225 691 l 225 233 q 292 144 225 144 q 467 296 395 144 q 525 537 525 420 q 452 658 525 658 q 414 652 439 658 l 414 684 l 650 726 l 650 699 q 620 652 620 694 l 620 216 q 667 153 620 153 q 738 174 694 153 l 738 140 m 425 823 l 401 809 l 307 915 q 262 981 262 965 q 302 1023 262 1023 q 348 980 327 1023 l 425 823 z "},"û":{"ha":767,"x_min":21,"x_max":738,"o":"m 738 140 l 551 66 l 517 66 l 517 291 q 397 147 444 191 q 234 68 314 68 q 122 227 122 68 l 122 597 q 59 656 122 656 q 21 652 45 656 l 21 684 l 254 726 l 254 699 q 225 652 225 691 l 225 233 q 292 144 225 144 q 467 296 395 144 q 525 537 525 420 q 452 658 525 658 q 414 652 439 658 l 414 684 l 650 726 l 650 699 q 620 652 620 694 l 620 216 q 667 153 620 153 q 738 174 694 153 l 738 140 m 550 837 l 505 837 l 360 922 l 217 837 l 171 837 l 360 1001 l 550 837 z "},"ü":{"ha":767,"x_min":21,"x_max":738,"o":"m 738 140 l 551 66 l 517 66 l 517 291 q 397 147 444 191 q 234 68 314 68 q 122 227 122 68 l 122 597 q 59 656 122 656 q 21 652 45 656 l 21 684 l 254 726 l 254 699 q 225 652 225 691 l 225 233 q 292 144 225 144 q 467 296 395 144 q 525 537 525 420 q 452 658 525 658 q 414 652 439 658 l 414 684 l 650 726 l 650 699 q 620 652 620 694 l 620 216 q 667 153 620 153 q 738 174 694 153 l 738 140 m 554 916 q 534 867 554 887 q 486 847 514 847 q 437 867 457 847 q 417 916 417 887 q 437 964 417 943 q 484 984 456 984 q 534 964 513 984 q 554 916 554 945 m 307 916 q 287 868 307 888 q 239 848 267 848 q 191 868 210 848 q 171 916 171 888 q 191 964 171 944 q 238 984 210 984 q 287 965 267 984 q 307 916 307 945 z "},"ÿ":{"ha":651,"x_min":-9,"x_max":662,"o":"m 662 676 q 595 648 618 673 q 535 536 566 616 l 302 -67 q 100 -219 249 -206 l -9 -90 l 27 -60 q 146 -127 81 -127 q 254 -54 218 -127 q 300 56 266 -31 l 311 83 l 125 544 q 81 632 100 608 q -1 676 48 675 l -1 709 l 218 709 l 218 676 q 193 660 193 675 q 197 643 193 653 l 365 224 l 431 401 q 476 600 476 521 q 379 676 476 676 l 379 709 l 662 709 l 662 676 m 522 916 q 502 867 522 887 q 454 847 482 847 q 405 867 425 847 q 385 916 385 887 q 405 964 385 943 q 452 984 425 984 q 502 964 481 984 q 522 916 522 945 m 275 916 q 255 868 275 888 q 207 848 235 848 q 159 868 178 848 q 139 916 139 888 q 159 964 139 944 q 206 984 178 984 q 255 965 235 984 q 275 916 275 945 z "},"ı":{"ha":376,"x_min":40,"x_max":351,"o":"m 351 87 l 40 87 l 40 120 q 120 145 97 121 q 144 226 144 169 l 144 597 q 95 640 144 640 q 56 631 77 640 q 40 625 45 626 l 40 659 l 214 728 l 247 728 l 247 226 q 270 145 247 169 q 351 120 294 121 l 351 87 z "},"Œ":{"ha":1201,"x_min":54,"x_max":1177,"o":"m 1177 314 l 1125 56 l 1090 56 l 1091 62 q 1061 87 1091 87 l 714 87 q 610 78 692 87 q 482 68 522 68 q 119 254 243 68 q 54 477 54 351 q 220 843 54 690 q 560 968 357 968 q 631 963 588 968 q 745 955 704 955 l 1061 955 q 1100 987 1100 955 l 1133 987 l 1133 728 l 1084 728 q 871 922 1084 922 l 800 922 q 791 787 791 873 q 833 622 791 675 q 989 562 880 562 l 1049 562 l 1049 515 l 800 509 l 800 120 l 876 120 q 1125 314 1086 120 l 1177 314 m 676 120 l 676 850 q 477 919 591 919 q 248 823 333 919 q 166 585 166 730 q 224 349 166 458 q 390 173 284 232 q 604 113 496 113 q 676 120 648 113 z "},"œ":{"ha":1143,"x_min":32,"x_max":1101,"o":"m 1101 257 q 804 68 939 68 q 581 219 669 68 q 309 68 469 68 q 105 154 182 68 q 32 364 32 236 q 130 618 32 511 q 376 728 230 728 q 616 587 538 728 q 852 728 720 728 q 1017 657 957 728 q 1077 484 1072 591 l 640 484 q 639 451 639 461 q 693 256 639 338 q 863 162 755 162 q 1101 304 977 162 l 1101 257 m 965 517 q 922 633 961 587 q 813 686 880 686 q 701 632 749 686 q 645 517 658 584 l 965 517 m 555 357 q 490 566 555 469 q 309 673 417 673 q 168 603 218 673 q 121 446 121 540 q 190 237 121 334 q 373 130 265 130 q 512 201 463 130 q 555 357 555 264 z "},"Š":{"ha":622,"x_min":65,"x_max":585,"o":"m 585 340 q 479 144 585 227 q 264 68 382 68 q 65 111 176 68 l 65 355 l 113 355 q 165 191 113 260 q 315 113 224 113 q 432 155 387 113 q 477 269 477 197 q 409 408 477 343 q 278 502 382 433 q 149 595 191 559 q 86 730 86 650 q 185 909 86 837 q 385 975 274 975 q 546 940 446 975 l 546 727 l 496 727 q 449 865 492 808 q 323 928 400 928 q 228 894 266 928 q 190 803 190 859 q 269 663 190 734 q 404 566 299 635 q 526 474 497 503 q 585 340 585 415 m 548 1221 l 358 1057 l 168 1221 l 214 1221 l 358 1131 l 503 1221 l 548 1221 z "},"š":{"ha":507,"x_min":56,"x_max":471,"o":"m 471 277 q 390 125 471 188 q 223 68 315 68 q 56 109 151 68 l 56 296 l 102 296 q 144 169 106 220 q 260 111 188 111 q 345 141 311 111 q 379 223 379 172 q 338 313 379 273 q 253 373 319 332 l 166 428 q 77 559 77 491 q 151 686 77 638 q 298 728 214 728 q 431 701 360 728 l 431 523 l 382 523 q 347 636 382 588 q 245 689 309 689 q 188 666 210 689 q 165 608 165 644 q 207 528 165 566 q 285 473 226 510 q 405 395 391 407 q 471 277 471 341 m 455 999 l 265 835 l 75 999 l 121 999 l 265 909 l 410 999 l 455 999 z "},"Ÿ":{"ha":810,"x_min":24,"x_max":838,"o":"m 838 922 q 676 770 764 921 l 471 420 l 471 228 q 574 120 471 123 l 574 87 l 242 87 l 242 120 q 323 144 302 121 q 345 228 345 168 l 345 420 l 176 761 q 117 862 142 828 q 24 922 72 922 l 24 955 l 270 955 l 270 922 q 244 904 244 922 q 247 892 244 897 l 460 469 q 625 844 625 726 q 591 909 625 892 q 514 922 568 922 l 514 955 l 838 955 l 838 922 m 623 1136 q 603 1087 623 1107 q 555 1067 583 1067 q 506 1087 526 1067 q 486 1136 486 1107 q 506 1184 486 1164 q 553 1204 526 1204 q 603 1185 583 1204 q 623 1136 623 1165 m 376 1137 q 356 1088 376 1108 q 308 1068 336 1068 q 260 1088 279 1068 q 240 1137 240 1108 q 260 1184 240 1164 q 307 1204 279 1204 q 356 1185 336 1204 q 376 1137 376 1166 z "},"ƒ":{"ha":738,"x_min":0,"x_max":738,"o":"m 738 970 l 628 852 l 605 873 q 612 901 612 888 q 595 942 612 925 q 554 959 578 959 q 446 880 492 959 q 404 745 404 811 q 531 659 404 659 l 595 659 l 588 627 l 376 627 l 254 138 q 180 -50 224 22 q 47 -202 138 -117 l 0 -202 q 132 -45 89 -125 q 191 152 172 33 l 263 627 l 168 627 l 177 659 q 267 694 231 659 q 324 778 287 713 q 433 929 385 881 q 628 1021 528 1021 q 738 970 699 1021 z "},"ˆ":{"ha":463,"x_min":41,"x_max":420,"o":"m 420 837 l 376 837 l 231 922 l 87 837 l 41 837 l 231 1001 l 420 837 z "},"ˇ":{"ha":463,"x_min":38,"x_max":418,"o":"m 418 999 l 229 835 l 38 999 l 84 999 l 229 909 l 374 999 l 418 999 z "},"،":{"ha":314,"x_min":102,"x_max":314,"o":"m 314 111 q 282 30 314 60 q 201 0 250 0 q 130 37 157 0 q 102 136 102 75 q 134 252 102 197 q 233 345 170 311 q 271 285 239 340 q 205 214 223 256 q 287 181 256 214 q 314 111 314 152 z "},"؛":{"ha":314,"x_min":102,"x_max":315,"o":"m 314 389 q 282 308 314 338 q 201 278 250 278 q 130 315 157 278 q 102 414 102 353 q 134 530 102 475 q 233 623 170 589 q 271 563 239 618 q 205 492 223 534 q 287 459 256 492 q 314 389 314 430 m 315 107 q 283 32 315 63 q 208 0 252 0 q 133 32 164 0 q 102 107 102 63 q 133 182 102 151 q 208 214 164 214 q 283 182 252 214 q 315 107 315 151 z "},"؟":{"ha":571,"x_min":104,"x_max":583,"o":"m 583 776 l 526 674 q 368 726 453 726 q 273 689 321 726 q 220 593 220 648 q 300 463 220 519 q 458 359 379 411 q 565 161 549 282 l 441 161 q 314 309 406 243 q 172 414 178 407 q 104 586 104 481 q 193 778 104 699 q 358 848 272 848 q 583 776 471 848 m 571 129 q 565 -2 571 90 l 433 -2 l 441 129 l 571 129 z "},"ء":{"ha":454,"x_min":106,"x_max":454,"o":"m 454 76 q 174 -40 290 31 l 117 35 l 184 70 q 106 195 106 123 q 370 365 106 360 l 375 279 q 267 267 296 274 q 194 198 194 248 q 225 143 194 164 q 292 123 254 123 q 429 164 326 123 l 454 76 z "},"آ":{"ha":304,"x_min":-106,"x_max":488,"o":"m 92 604 q 70 658 86 639 q 36 699 53 677 q 74 810 29 760 q 168 861 119 861 q 219 829 204 861 q 229 777 233 798 q 209 706 220 743 q 199 624 199 668 q 218 393 199 533 q 237 179 237 253 q 170 12 237 121 q -11 -129 102 -97 q 74 -9 50 -54 q 108 77 98 35 q 121 149 118 119 q 123 207 123 179 q 121 271 123 232 q 115 342 118 310 l 92 604 m 47 886 q 9 868 21 882 q -8 852 -3 854 q -77 876 -47 848 q -106 932 -106 903 q -87 963 -106 954 q -55 970 -68 971 q -9 956 -32 962 q 36 950 14 950 q 180 962 94 950 q 302 974 267 974 q 404 933 340 974 q 488 825 468 893 q 425 872 449 856 q 370 896 400 889 q 325 904 340 903 q 289 905 309 905 q 246 903 271 905 q 205 900 221 901 l 47 886 z "},"أ":{"ha":380,"x_min":68,"x_max":379,"o":"m 328 1007 q 117 921 206 973 l 77 972 l 132 1000 q 68 1096 68 1040 q 264 1223 68 1219 l 268 1164 q 130 1099 130 1154 q 153 1055 130 1072 q 208 1038 177 1038 q 312 1067 224 1038 l 328 1007 m 375 0 l 256 0 q 258 75 258 31 q 224 485 258 237 q 153 856 191 728 l 281 880 q 343 536 315 743 q 379 104 379 281 q 375 0 379 47 z "},"ؤ":{"ha":555,"x_min":-621,"x_max":490,"o":"m 147 724 q 127 688 122 708 q 145 665 132 672 q 174 657 158 657 q 211 669 182 657 q 245 679 240 681 q 268 658 265 676 q 271 618 271 640 q 157 565 244 603 q 68 532 71 528 q 54 558 61 543 q 47 581 47 572 q 52 594 47 585 q 70 609 56 604 q 96 618 83 614 q 62 671 68 639 q 58 696 58 684 q 79 753 58 726 q 122 787 100 781 q 158 794 144 794 q 210 784 187 794 q 232 758 232 774 q 219 729 232 739 q 187 724 205 718 q 165 728 167 728 q 147 724 158 728 m -47 -376 q 231 -245 114 -353 q 349 8 349 -138 q 290 -2 332 8 q 235 -12 249 -12 q 179 -4 225 -12 q 110 48 132 4 q 87 179 87 92 q 150 376 87 314 q 279 439 212 439 q 432 335 374 439 q 490 83 490 231 q 322 -319 490 -155 q -54 -483 154 -483 q -229 -459 -129 -483 q -409 -359 -329 -436 q -536 -228 -490 -281 q -597 -128 -582 -174 q -616 -67 -612 -83 q -621 -48 -621 -52 q -610 -37 -621 -33 q -596 -53 -598 -39 q -593 -77 -594 -66 q -488 -209 -532 -169 q -367 -299 -444 -250 q -228 -365 -290 -349 q -108 -380 -166 -380 q -47 -376 -79 -380 m 257 293 q 215 250 227 293 q 207 191 208 200 q 227 144 204 170 q 271 121 250 118 q 326 140 313 126 q 339 175 339 154 q 338 196 338 191 q 315 258 338 220 q 257 293 293 297 z "},"إ":{"ha":410,"x_min":106,"x_max":419,"o":"m 328 0 l 208 0 q 211 75 211 31 q 177 485 211 237 q 106 856 144 728 l 234 880 q 296 536 267 743 q 332 104 332 281 q 328 0 332 47 m 419 -313 q 208 -399 297 -347 l 168 -349 l 222 -321 q 159 -224 159 -281 q 355 -97 159 -101 l 359 -157 q 220 -221 220 -167 q 244 -266 220 -249 q 298 -282 268 -282 q 403 -254 315 -282 l 419 -313 z "},"ئ":{"ha":842,"x_min":102,"x_max":842,"o":"m 842 488 l 699 488 q 642 461 665 488 q 623 413 623 439 q 677 317 623 370 q 777 219 773 223 q 830 77 830 153 q 687 -137 830 -61 q 395 -201 566 -201 q 102 25 102 -201 q 161 256 102 119 q 260 442 205 361 l 368 378 q 229 45 229 165 q 285 -63 229 -35 q 407 -82 323 -82 q 697 79 697 -82 q 645 178 697 125 q 549 276 597 227 q 496 411 496 340 q 562 556 496 495 q 708 615 625 615 l 842 615 l 842 488 m 407 634 q 196 548 285 600 l 156 599 l 210 627 q 146 723 146 667 q 343 850 146 846 l 347 791 q 208 726 208 781 q 232 682 208 699 q 286 665 256 665 q 391 694 303 665 l 407 634 z "},"ا":{"ha":301,"x_min":18,"x_max":286,"o":"m 120 1029 q 101 993 94 1017 q 119 971 105 979 q 146 962 133 962 q 182 975 152 962 q 218 986 212 987 q 239 967 234 983 q 243 925 243 951 q 131 872 218 909 q 41 839 44 835 q 23 872 28 857 q 23 899 18 888 q 42 915 28 909 q 68 924 56 920 q 35 967 41 946 q 30 1002 30 989 q 51 1061 30 1035 q 94 1095 71 1088 q 130 1101 116 1101 q 181 1091 159 1101 q 203 1065 203 1080 q 191 1035 203 1046 q 159 1031 178 1025 q 137 1035 142 1035 q 120 1029 127 1035 m 140 608 q 118 663 134 643 q 84 703 101 682 q 122 814 77 764 q 216 865 168 865 q 267 833 252 865 q 277 781 281 802 q 257 710 267 747 q 247 628 247 672 q 266 397 247 538 q 286 183 286 257 q 217 16 286 125 q 37 -125 149 -93 q 122 -5 98 -50 q 156 81 146 39 q 169 153 166 123 q 172 211 172 183 q 169 275 172 236 q 163 346 166 314 l 140 608 z "},"ب":{"ha":1153,"x_min":102,"x_max":1152,"o":"m 1141 284 q 1152 216 1152 252 q 1101 68 1152 133 q 970 0 1048 0 l 333 0 q 172 76 239 0 q 102 279 102 156 q 148 455 102 355 q 236 596 188 542 l 332 517 q 259 397 290 470 q 229 270 229 325 q 267 158 229 197 q 353 123 301 123 l 929 123 q 994 155 968 123 q 1019 225 1019 186 q 1015 256 1019 241 l 912 556 l 1027 609 q 1141 284 1072 498 m 694 -240 q 545 -241 611 -229 l 545 -107 q 617 -100 559 -100 q 694 -104 670 -100 l 694 -240 z "},"ة":{"ha":564,"x_min":101,"x_max":564,"o":"m 564 192 q 522 59 564 115 q 408 0 477 0 l 254 0 q 101 163 101 0 q 127 307 101 218 q 180 442 151 390 l 287 396 q 229 194 229 262 q 274 123 229 123 l 379 123 q 425 148 407 123 q 441 199 441 170 q 375 331 441 245 q 172 500 294 437 l 237 597 q 453 426 345 558 q 564 192 564 292 m 476 767 q 465 626 471 767 q 290 640 414 637 q 111 631 166 642 l 105 770 q 290 782 159 782 q 476 767 431 782 z "},"ت":{"ha":1149,"x_min":102,"x_max":1152,"o":"m 815 679 q 804 538 810 679 q 629 551 753 549 q 450 543 505 553 l 444 682 q 629 694 498 694 q 815 679 770 694 m 1141 284 q 1152 216 1152 252 q 1101 68 1152 133 q 970 0 1048 0 l 333 0 q 172 76 239 0 q 102 279 102 156 q 148 455 102 355 q 236 596 188 542 l 332 517 q 259 397 290 470 q 229 270 229 325 q 267 158 229 197 q 353 123 301 123 l 929 123 q 994 155 968 123 q 1019 225 1019 186 q 1015 256 1019 241 l 912 556 l 1027 609 q 1141 284 1072 498 z "},"ث":{"ha":1156,"x_min":102,"x_max":1152,"o":"m 691 728 q 542 728 608 739 l 542 861 q 614 869 557 868 q 691 865 667 869 l 691 728 m 808 675 q 797 534 804 675 q 623 548 747 546 q 443 540 498 550 l 437 679 q 622 690 492 690 q 808 675 764 690 m 1141 284 q 1152 216 1152 252 q 1101 68 1152 133 q 970 0 1048 0 l 333 0 q 172 76 239 0 q 102 279 102 156 q 148 455 102 355 q 236 596 188 542 l 332 517 q 259 397 290 470 q 229 270 229 325 q 267 158 229 197 q 353 123 301 123 l 929 123 q 994 155 968 123 q 1019 225 1019 186 q 1015 256 1019 241 l 912 556 l 1027 609 q 1141 284 1072 498 z "},"ج":{"ha":714,"x_min":102,"x_max":714,"o":"m 700 199 q 714 141 714 174 q 680 45 714 87 q 589 0 644 0 l 353 0 q 239 -103 239 0 q 259 -162 239 -136 q 316 -196 281 -191 l 694 -256 l 675 -386 l 267 -321 q 147 -245 195 -310 q 102 -103 102 -182 q 168 57 102 -7 q 353 123 237 123 l 569 123 q 587 138 583 123 q 581 166 589 152 l 433 437 q 409 457 422 457 q 388 437 395 457 l 279 153 l 156 194 l 293 527 q 404 591 319 591 q 524 527 489 591 l 700 199 m 572 -186 q 422 -186 489 -175 l 422 -53 q 495 -45 437 -46 q 572 -50 548 -45 l 572 -186 z "},"ح":{"ha":714,"x_min":102,"x_max":714,"o":"m 700 199 q 714 141 714 174 q 680 45 714 87 q 589 0 644 0 l 353 0 q 239 -103 239 0 q 259 -162 239 -136 q 316 -196 281 -191 l 694 -256 l 675 -386 l 267 -321 q 147 -245 195 -310 q 102 -103 102 -182 q 168 57 102 -7 q 353 123 237 123 l 569 123 q 587 138 583 123 q 581 166 589 152 l 433 437 q 409 457 422 457 q 388 437 395 457 l 279 153 l 156 194 l 293 527 q 404 591 319 591 q 524 527 489 591 l 700 199 z "},"خ":{"ha":714,"x_min":102,"x_max":714,"o":"m 467 678 q 317 677 384 689 l 317 811 q 390 819 332 818 q 467 814 443 819 l 467 678 m 700 199 q 714 141 714 174 q 680 45 714 87 q 589 0 644 0 l 353 0 q 239 -103 239 0 q 259 -162 239 -136 q 316 -196 281 -191 l 694 -256 l 675 -386 l 267 -321 q 147 -245 195 -310 q 102 -103 102 -182 q 168 57 102 -7 q 353 123 237 123 l 569 123 q 587 138 583 123 q 581 166 589 152 l 433 437 q 409 457 422 457 q 388 437 395 457 l 279 153 l 156 194 l 293 527 q 404 591 319 591 q 524 527 489 591 l 700 199 z "},"د":{"ha":505,"x_min":102,"x_max":505,"o":"m 468 283 q 505 167 505 233 q 467 52 505 98 q 355 0 425 0 l 102 0 l 102 123 l 323 123 q 368 178 368 123 q 359 212 368 199 l 142 519 l 235 599 l 468 283 z "},"ذ":{"ha":505,"x_min":94,"x_max":505,"o":"m 243 682 q 94 682 160 693 l 94 815 q 166 823 109 822 q 243 819 219 823 l 243 682 m 468 283 q 505 167 505 233 q 467 52 505 98 q 355 0 425 0 l 102 0 l 102 123 l 323 123 q 368 178 368 123 q 359 212 368 199 l 142 519 l 235 599 l 468 283 z "},"ر":{"ha":355,"x_min":104,"x_max":355,"o":"m 355 133 q 199 -257 355 -90 l 104 -180 q 231 157 231 -15 q 180 372 231 235 l 112 558 l 222 614 l 298 400 q 355 133 355 240 z "},"ز":{"ha":355,"x_min":73,"x_max":355,"o":"m 222 682 q 73 681 140 692 l 73 814 q 146 822 88 821 q 222 818 199 822 l 222 682 m 355 133 q 199 -257 355 -90 l 104 -180 q 231 157 231 -15 q 180 372 231 235 l 112 558 l 222 614 l 298 400 q 355 133 355 240 z "},"س":{"ha":1408,"x_min":104,"x_max":1411,"o":"m 1396 299 q 1411 220 1411 262 q 1358 69 1411 134 q 1208 0 1299 0 q 1105 26 1154 0 q 1046 75 1063 49 q 918 0 1010 0 q 814 18 851 0 q 657 -149 802 -90 q 365 -199 534 -199 q 104 12 104 -199 q 152 219 104 94 q 262 422 201 344 l 358 361 q 271 181 309 283 q 232 12 232 74 q 376 -80 232 -80 q 698 83 698 -80 q 694 123 698 102 l 606 544 q 724 582 656 560 l 784 294 q 810 189 801 211 q 895 123 838 123 q 949 153 929 123 q 968 220 968 180 q 964 251 968 236 l 900 544 l 1019 587 l 1083 294 q 1114 188 1099 219 q 1196 123 1145 123 q 1254 157 1232 123 q 1273 227 1273 187 q 1267 261 1273 246 l 1168 541 l 1282 587 l 1396 299 z "},"ش":{"ha":1408,"x_min":104,"x_max":1411,"o":"m 1002 867 q 853 867 920 878 l 853 1000 q 926 1008 868 1007 q 1002 1004 979 1008 l 1002 867 m 1120 814 q 1108 673 1115 814 q 934 687 1058 685 q 754 679 810 689 l 749 818 q 933 829 803 829 q 1120 814 1075 829 m 1396 299 q 1411 220 1411 262 q 1358 69 1411 134 q 1208 0 1299 0 q 1105 26 1154 0 q 1046 75 1063 49 q 918 0 1010 0 q 814 18 851 0 q 657 -149 802 -90 q 365 -199 534 -199 q 104 12 104 -199 q 152 219 104 94 q 262 422 201 344 l 358 361 q 271 181 309 283 q 232 12 232 74 q 376 -80 232 -80 q 698 83 698 -80 q 694 123 698 102 l 606 544 q 724 582 656 560 l 784 294 q 810 189 801 211 q 895 123 838 123 q 949 153 929 123 q 968 220 968 180 q 964 251 968 236 l 900 544 l 1019 587 l 1083 294 q 1114 188 1099 219 q 1196 123 1145 123 q 1254 157 1232 123 q 1273 227 1273 187 q 1267 261 1273 246 l 1168 541 l 1282 587 l 1396 299 z "},"ص":{"ha":1367,"x_min":104,"x_max":1367,"o":"m 1349 361 q 1367 235 1367 290 q 1333 107 1367 157 q 1008 -3 1257 -3 q 814 18 899 -3 q 657 -149 802 -90 q 365 -199 534 -199 q 104 12 104 -199 q 152 219 104 94 q 262 422 201 344 l 358 361 q 271 181 309 283 q 232 12 232 74 q 376 -80 232 -80 q 621 -34 549 -80 q 694 123 694 13 q 606 544 694 327 q 716 595 656 560 q 786 400 758 517 q 815 189 814 283 q 950 469 846 341 q 1139 595 1053 595 q 1272 522 1212 595 q 1349 361 1324 458 m 1242 224 q 1211 378 1242 297 q 1125 472 1175 472 q 1004 347 1066 472 q 935 130 948 235 q 1040 123 1002 123 q 1242 224 1242 123 z "},"ض":{"ha":1367,"x_min":104,"x_max":1367,"o":"m 1189 682 q 1040 681 1106 692 l 1040 814 q 1112 822 1055 821 q 1189 818 1165 822 l 1189 682 m 1349 361 q 1367 235 1367 290 q 1333 107 1367 157 q 1008 -3 1257 -3 q 814 18 899 -3 q 657 -149 802 -90 q 365 -199 534 -199 q 104 12 104 -199 q 152 219 104 94 q 262 422 201 344 l 358 361 q 271 181 309 283 q 232 12 232 74 q 376 -80 232 -80 q 621 -34 549 -80 q 694 123 694 13 q 606 544 694 327 q 716 595 656 560 q 786 400 758 517 q 815 189 814 283 q 950 469 846 341 q 1139 595 1053 595 q 1272 522 1212 595 q 1349 361 1324 458 m 1242 224 q 1211 378 1242 297 q 1125 472 1175 472 q 1004 347 1066 472 q 935 130 948 235 q 1040 123 1002 123 q 1242 224 1242 123 z "},"ط":{"ha":711,"x_min":-20,"x_max":719,"o":"m 711 253 q 629 67 719 140 q 422 0 546 0 l -20 0 l -20 123 l 81 123 q 128 155 120 123 q 132 230 131 164 q 93 541 133 331 q 24 841 60 712 l 140 877 q 195 630 158 825 q 235 374 231 435 q 333 519 267 448 q 460 599 407 599 q 627 490 549 599 q 711 253 703 382 m 589 241 q 555 376 589 297 q 468 469 515 469 q 359 348 420 469 q 286 123 299 231 l 433 123 q 589 241 589 123 z "},"ظ":{"ha":713,"x_min":-20,"x_max":719,"o":"m 497 680 q 348 679 414 690 l 348 812 q 420 820 363 819 q 497 816 473 820 l 497 680 m 711 253 q 629 67 719 140 q 422 0 546 0 l -20 0 l -20 123 l 81 123 q 128 155 120 123 q 132 230 131 164 q 93 541 133 331 q 24 841 60 712 l 140 877 q 195 630 158 825 q 235 374 231 435 q 333 519 267 448 q 460 599 407 599 q 627 490 549 599 q 711 253 703 382 m 589 241 q 555 376 589 297 q 468 469 515 469 q 359 348 420 469 q 286 123 299 231 l 433 123 q 589 241 589 123 z "},"ع":{"ha":703,"x_min":104,"x_max":703,"o":"m 703 -256 l 681 -384 l 321 -323 q 170 -241 235 -308 q 104 -105 104 -174 q 241 96 104 20 q 171 181 207 123 q 123 335 123 260 q 217 524 123 439 q 402 603 307 603 q 433 600 418 603 l 663 556 l 637 439 l 474 471 q 429 475 452 475 q 299 436 354 475 q 241 333 241 395 q 320 185 241 250 q 484 123 396 123 l 649 123 l 649 0 l 469 0 q 241 -104 241 0 q 278 -170 241 -140 q 371 -208 314 -199 l 703 -256 z "},"غ":{"ha":712,"x_min":104,"x_max":703,"o":"m 432 681 q 283 680 349 692 l 283 814 q 355 821 298 821 q 432 817 408 821 l 432 681 m 703 -256 l 681 -384 l 321 -323 q 170 -241 235 -308 q 104 -105 104 -174 q 241 96 104 20 q 171 181 207 123 q 123 335 123 260 q 217 524 123 439 q 402 603 307 603 q 433 600 418 603 l 663 556 l 637 439 l 474 471 q 429 475 452 475 q 299 436 354 475 q 241 333 241 395 q 320 185 241 250 q 484 123 396 123 l 649 123 l 649 0 l 469 0 q 241 -104 241 0 q 278 -170 241 -140 q 371 -208 314 -199 l 703 -256 z "},"ـ":{"ha":133,"x_min":-20,"x_max":165,"o":"m -20 134 l 165 134 l 165 0 l -20 0 l -20 134 z "},"ف":{"ha":1154,"x_min":102,"x_max":1154,"o":"m 874 681 q 725 680 791 692 l 725 814 q 798 821 740 821 q 874 817 850 821 l 874 681 m 1154 197 q 1086 53 1154 109 q 930 0 1022 0 l 333 0 q 172 76 239 0 q 102 279 102 156 q 144 451 102 355 q 229 588 182 534 l 325 517 q 259 401 290 477 q 229 270 229 324 q 267 158 229 197 q 353 123 301 123 l 929 123 q 1029 170 1029 123 q 916 155 981 155 q 636 356 636 155 q 680 515 636 437 q 806 606 730 606 q 1039 454 918 606 q 1154 197 1154 309 m 987 304 q 917 416 968 359 q 826 477 863 477 q 775 433 795 477 q 760 366 760 399 q 787 297 760 317 q 871 280 812 280 q 987 304 947 280 z "},"ق":{"ha":909,"x_min":102,"x_max":906,"o":"m 823 820 q 812 679 819 820 q 637 692 762 690 q 458 684 513 694 l 452 823 q 637 835 507 835 q 823 820 779 835 m 895 -62 q 730 -248 865 -163 q 452 -335 592 -335 q 189 -239 281 -335 q 102 2 102 -150 q 197 311 102 153 l 304 260 q 245 133 271 212 q 219 4 219 54 q 264 -138 219 -78 q 428 -214 321 -214 q 665 -145 553 -214 q 780 0 777 -76 l 593 0 q 448 41 494 0 q 395 205 395 89 q 474 470 395 338 q 642 604 555 604 q 783 513 718 604 q 880 285 844 427 q 906 49 906 184 q 895 -62 906 -26 m 782 123 q 743 343 780 231 q 640 474 699 474 q 549 376 596 474 q 505 227 505 286 q 597 123 505 123 l 782 123 z "},"ك":{"ha":1110,"x_min":102,"x_max":1106,"o":"m 1105 203 q 1106 179 1106 191 q 1067 56 1106 108 q 962 0 1026 0 l 406 0 q 195 77 282 0 q 102 286 102 158 q 244 608 102 440 l 332 524 q 227 307 227 403 q 274 178 227 233 q 387 123 322 123 l 918 123 q 988 197 988 123 q 987 214 988 206 l 964 391 q 853 494 954 463 q 760 503 831 500 q 676 500 694 504 q 652 498 663 498 q 585 576 585 498 q 589 615 585 594 l 600 673 q 648 756 608 718 q 735 807 685 791 q 898 822 785 822 q 1074 808 1013 822 l 1074 688 q 918 707 977 707 q 713 615 713 707 q 905 603 855 615 q 1078 429 1063 564 l 1105 203 z "},"ل":{"ha":819,"x_min":102,"x_max":819,"o":"m 814 45 q 652 -148 795 -85 q 363 -199 536 -199 q 102 12 102 -199 q 150 219 102 94 q 260 422 199 344 l 356 361 q 269 181 307 283 q 230 12 230 74 q 374 -80 230 -80 q 621 -34 547 -80 q 694 123 694 13 q 666 500 694 260 q 606 861 637 744 l 724 899 q 788 521 758 753 q 819 131 819 277 q 814 45 819 77 z "},"م":{"ha":761,"x_min":102,"x_max":760,"o":"m 726 317 q 760 205 760 262 q 690 62 760 119 q 493 0 615 0 q 306 152 306 0 q 340 268 306 179 q 374 370 374 357 q 370 377 374 377 q 283 293 340 377 q 220 125 220 201 q 295 -32 220 48 q 450 -134 366 -106 l 393 -237 q 193 -90 282 -200 q 102 132 102 23 q 210 404 102 279 q 393 517 309 517 q 469 485 437 517 q 498 420 498 455 q 465 264 498 332 q 432 165 432 195 q 505 123 432 123 q 594 151 560 123 q 629 217 629 178 q 615 262 629 240 l 446 538 l 553 600 l 726 317 z "},"ن":{"ha":819,"x_min":102,"x_max":819,"o":"m 517 458 q 368 457 435 469 l 368 591 q 441 598 383 597 q 517 594 494 598 l 517 458 m 814 45 q 652 -148 795 -85 q 363 -199 536 -199 q 102 12 102 -199 q 150 219 102 94 q 260 422 199 344 l 356 361 q 269 181 307 283 q 230 12 230 74 q 374 -80 230 -80 q 621 -34 547 -80 q 694 123 694 13 q 660 338 694 203 q 595 541 629 460 l 702 589 q 783 367 748 507 q 819 111 819 223 q 814 45 819 74 z "},"ه":{"ha":564,"x_min":101,"x_max":564,"o":"m 564 192 q 522 59 564 115 q 408 0 477 0 l 254 0 q 101 163 101 0 q 127 307 101 218 q 180 442 151 390 l 287 396 q 229 194 229 262 q 274 123 229 123 l 379 123 q 425 148 407 123 q 441 199 441 170 q 375 331 441 245 q 172 500 294 437 l 237 597 q 453 426 345 558 q 564 192 564 292 z "},"و":{"ha":543,"x_min":102,"x_max":543,"o":"m 543 131 q 380 -254 543 -87 l 286 -168 q 390 0 365 -100 l 264 0 q 161 62 205 0 q 102 309 102 144 q 145 515 102 430 q 258 604 190 604 q 450 440 355 604 q 543 131 543 281 m 416 123 q 418 157 418 140 q 358 366 418 256 q 275 466 304 466 q 225 297 225 466 q 245 185 225 236 q 309 123 269 123 l 416 123 z "},"ى":{"ha":842,"x_min":102,"x_max":842,"o":"m 842 488 l 699 488 q 642 461 665 488 q 623 413 623 439 q 677 317 623 370 q 777 219 773 223 q 830 77 830 153 q 687 -137 830 -61 q 395 -201 566 -201 q 102 25 102 -201 q 161 256 102 119 q 260 442 205 361 l 368 378 q 229 45 229 165 q 285 -63 229 -35 q 407 -82 323 -82 q 697 79 697 -82 q 645 178 697 125 q 549 276 597 227 q 496 411 496 340 q 562 556 496 495 q 708 615 625 615 l 842 615 l 842 488 m 617 -328 q 606 -469 612 -328 q 431 -456 555 -458 q 252 -464 307 -454 l 246 -325 q 431 -313 300 -313 q 617 -328 572 -313 z "},"ي":{"ha":842,"x_min":102,"x_max":842,"o":"m 842 488 l 699 488 q 642 461 665 488 q 623 413 623 439 q 677 317 623 370 q 777 219 773 223 q 830 77 830 153 q 687 -137 830 -61 q 395 -201 566 -201 q 102 25 102 -201 q 161 256 102 119 q 260 442 205 361 l 368 378 q 229 45 229 165 q 285 -63 229 -35 q 407 -82 323 -82 q 697 79 697 -82 q 645 178 697 125 q 549 276 597 227 q 496 411 496 340 q 562 556 496 495 q 708 615 625 615 l 842 615 l 842 488 z "},"ً":{"ha":407,"x_min":-58,"x_max":332,"o":"m 305 1377 q -22 1174 155 1321 l -58 1224 q 280 1434 111 1365 l 305 1377 m 332 1255 q 5 1052 182 1199 l -31 1102 q 307 1312 138 1243 l 332 1255 z "},"ٌ":{"ha":407,"x_min":-50,"x_max":248,"o":"m 248 1307 q 173 1138 248 1210 q 10 1069 100 1069 q 6 1125 10 1074 l 26 1128 q 31 1166 31 1152 q 14 1192 31 1192 q -35 1169 -1 1192 l -50 1213 q 22 1244 -16 1244 q 59 1229 47 1244 q 66 1134 81 1201 q 145 1182 113 1146 q 66 1253 66 1204 q 113 1384 66 1319 q 180 1442 155 1442 q 248 1307 248 1442 m 202 1314 q 176 1385 202 1385 q 142 1344 165 1385 q 118 1272 118 1301 q 180 1229 118 1239 q 202 1314 202 1257 z "},"ٍ":{"ha":407,"x_min":108,"x_max":498,"o":"m 471 -475 q 143 -677 320 -530 l 108 -627 q 446 -417 276 -486 l 471 -475 m 498 -597 q 170 -800 347 -652 l 135 -749 q 473 -539 303 -608 l 498 -597 z "},"َ":{"ha":407,"x_min":-31,"x_max":332,"o":"m 332 1255 q 5 1052 182 1199 l -31 1102 q 307 1312 138 1243 l 332 1255 z "},"ُ":{"ha":407,"x_min":6,"x_max":248,"o":"m 248 1306 q 173 1137 248 1209 q 10 1069 100 1069 q 6 1124 10 1073 q 145 1181 98 1129 q 66 1253 66 1203 q 113 1383 66 1318 q 180 1441 155 1441 q 248 1306 248 1441 m 202 1314 q 176 1385 202 1385 q 142 1343 165 1385 q 118 1271 118 1300 q 180 1228 118 1238 q 202 1314 202 1257 z "},"ِ":{"ha":407,"x_min":108,"x_max":471,"o":"m 471 -495 q 143 -698 320 -551 l 108 -648 q 446 -437 276 -507 l 471 -495 z "},"ّ":{"ha":407,"x_min":-29,"x_max":323,"o":"m 323 1190 q 300 1109 323 1143 q 230 1071 275 1071 q 158 1105 195 1071 q 77 1069 132 1068 q 2 1110 34 1069 q -29 1200 -29 1152 q -20 1298 -29 1244 l 37 1285 q 28 1224 28 1258 q 77 1132 28 1132 q 116 1178 116 1132 q 100 1282 116 1192 q 162 1289 124 1284 q 179 1179 178 1180 q 228 1136 191 1136 q 257 1172 257 1136 q 222 1289 257 1214 l 274 1316 q 323 1190 323 1234 z "},"ْ":{"ha":407,"x_min":14,"x_max":265,"o":"m 265 1191 q 229 1103 265 1139 q 140 1067 192 1067 q 51 1103 87 1067 q 14 1191 14 1139 q 51 1280 14 1243 q 140 1316 87 1316 q 229 1280 192 1316 q 265 1191 265 1243 m 204 1192 q 185 1237 204 1218 q 140 1256 166 1256 q 94 1237 113 1256 q 75 1192 75 1218 q 94 1146 75 1165 q 140 1128 113 1128 q 185 1146 166 1128 q 204 1192 204 1165 z "},"٠":{"ha":597,"x_min":140,"x_max":513,"o":"m 513 254 q 459 122 513 176 q 327 68 404 68 q 195 122 250 68 q 140 254 140 176 q 195 386 140 331 q 327 440 250 440 q 459 386 404 440 q 513 254 513 331 m 404 254 q 381 309 404 286 q 327 332 359 332 q 272 309 295 332 q 250 254 250 286 q 272 200 250 222 q 327 178 295 178 q 381 200 359 178 q 404 254 404 222 z "},"١":{"ha":422,"x_min":96,"x_max":322,"o":"m 318 -68 l 199 -68 q 201 7 201 -37 q 168 417 201 169 q 96 788 134 661 l 224 812 q 286 468 258 675 q 322 36 322 214 q 318 -68 322 -21 z "},"٢":{"ha":610,"x_min":106,"x_max":610,"o":"m 610 439 q 562 281 610 347 q 428 210 509 210 q 320 250 356 210 q 328 86 326 199 q 327 -68 332 -33 l 208 -68 q 211 7 211 -37 q 177 417 211 169 q 106 788 144 661 l 221 812 q 298 463 267 686 q 334 375 306 408 q 400 343 362 343 q 464 375 438 343 q 489 451 489 406 q 452 603 489 502 q 380 765 419 694 l 488 812 q 566 650 528 756 q 610 439 610 528 z "},"٣":{"ha":920,"x_min":106,"x_max":920,"o":"m 920 430 q 865 276 920 339 q 718 210 806 210 q 611 243 665 210 q 549 299 566 271 q 503 243 535 270 q 428 210 465 210 q 320 243 350 210 q 328 83 326 193 q 327 -68 332 -33 l 208 -68 q 211 10 211 -35 q 178 413 211 174 q 106 774 146 651 l 213 822 q 298 463 270 666 q 335 373 306 406 q 404 340 363 340 q 454 369 434 340 q 474 436 474 397 q 471 461 474 449 l 410 777 l 529 816 l 593 504 q 706 347 625 347 q 784 451 784 347 q 749 602 784 500 q 677 759 715 703 l 788 812 q 877 629 836 746 q 920 430 920 507 z "},"٤":{"ha":909,"x_min":106,"x_max":909,"o":"m 909 772 q 882 655 909 762 q 664 706 792 706 q 542 665 593 706 q 491 559 491 623 q 596 396 491 454 q 789 349 681 349 l 905 349 l 905 224 l 361 224 q 320 243 343 224 q 328 83 326 193 q 327 -68 332 -33 l 208 -68 q 211 10 211 -35 q 178 413 211 174 q 106 774 146 651 l 213 822 q 296 463 277 648 q 381 349 307 349 l 452 349 q 368 555 368 431 q 447 738 368 659 q 680 827 536 827 q 909 772 792 827 z "},"٥":{"ha":827,"x_min":104,"x_max":827,"o":"m 827 237 q 748 28 827 117 q 568 -61 669 -61 q 506 -35 537 -61 q 458 -8 475 -8 q 412 -38 444 -8 q 313 -68 380 -68 q 157 12 216 -68 q 104 190 104 85 q 176 431 104 280 q 321 661 243 567 l 419 570 q 302 382 354 489 q 242 174 242 256 q 326 83 242 83 q 401 119 369 83 q 450 156 433 156 q 506 126 473 156 q 568 96 538 96 q 654 129 621 96 q 692 234 692 166 q 578 495 692 345 q 357 721 485 620 l 433 817 q 692 559 570 730 q 827 237 827 373 z "},"٦":{"ha":779,"x_min":101,"x_max":779,"o":"m 779 511 l 420 -83 l 309 -14 l 433 188 q 351 174 393 174 q 176 249 248 174 q 101 448 101 327 q 174 663 101 552 q 313 810 235 755 l 393 712 q 233 465 233 606 q 376 317 233 317 q 602 465 511 317 l 671 578 l 779 511 z "},"٧":{"ha":932,"x_min":104,"x_max":932,"o":"m 932 747 q 616 -68 690 420 l 477 -68 q 104 726 344 486 l 197 811 q 398 553 290 745 q 535 238 500 375 q 648 548 572 383 q 817 819 735 737 l 932 747 z "},"٨":{"ha":929,"x_min":101,"x_max":929,"o":"m 929 24 l 836 -62 q 635 196 744 5 q 498 511 534 374 q 385 201 461 366 q 216 -70 298 12 l 101 2 q 418 817 344 329 l 556 817 q 929 24 690 263 z "},"٩":{"ha":680,"x_min":102,"x_max":680,"o":"m 680 673 q 659 515 680 644 q 637 259 637 387 q 654 -68 637 72 l 529 -68 q 504 236 518 -24 q 225 316 337 236 q 102 557 102 405 q 209 768 102 682 q 432 848 308 848 q 596 802 522 848 q 680 673 680 751 m 543 612 q 502 686 543 658 q 397 715 460 715 q 264 662 317 715 q 219 557 219 615 q 302 412 219 469 q 513 355 385 355 q 528 498 513 410 q 543 612 543 587 z "},"٪":{"ha":684,"x_min":73,"x_max":688,"o":"m 317 629 q 286 554 317 585 q 211 522 255 522 q 136 554 167 522 q 104 629 104 585 q 136 705 104 673 q 211 736 167 736 q 286 705 255 736 q 317 629 317 673 m 684 735 q 455 289 609 542 q 189 -85 307 47 l 73 -14 q 575 800 433 440 l 684 735 m 688 36 q 656 -40 688 -8 q 581 -71 625 -71 q 506 -40 537 -71 q 475 36 475 -8 q 506 111 475 80 q 581 142 537 142 q 656 111 625 142 q 688 36 688 80 z "},"٭":{"ha":783,"x_min":102,"x_max":783,"o":"m 760 475 q 524 287 658 366 l 471 365 q 690 546 604 443 l 760 475 m 489 361 l 395 355 q 350 633 395 505 l 445 659 q 489 361 489 514 m 783 206 l 756 111 q 477 220 609 143 l 518 304 q 783 206 650 229 m 407 369 l 366 286 q 102 382 233 359 l 128 479 q 407 369 275 445 m 535 -45 l 439 -71 q 395 229 395 74 l 488 233 q 535 -45 488 86 m 414 224 q 195 44 281 145 l 125 115 q 361 302 229 225 l 414 224 z "},"ٰ":{"ha":162,"x_min":22,"x_max":156,"o":"m 153 736 l 83 736 q 84 762 84 747 q 64 903 84 817 q 22 1030 45 986 l 98 1038 q 156 771 156 899 q 153 736 156 752 z "},"ٱ":{"ha":380,"x_min":21,"x_max":392,"o":"m 375 0 l 256 0 q 258 75 258 31 q 224 485 258 237 q 153 856 191 728 l 281 880 q 343 536 315 743 q 379 104 379 281 q 375 0 379 47 m 296 1157 q 364 1109 335 1157 q 392 1011 392 1064 q 391 991 392 1000 q 244 933 329 933 q 227 934 238 933 q 210 934 216 934 q 73 887 130 934 q 21 946 47 916 q 104 996 62 984 q 182 1004 127 1002 q 228 1122 187 1079 q 296 1157 260 1157 m 330 1028 q 291 1092 323 1092 q 252 1064 269 1092 q 236 1003 235 1036 q 260 1002 249 1002 q 330 1028 314 1002 z "},"ٴ":{"ha":0,"x_min":-9,"x_max":251,"o":"m 251 1042 q 40 956 129 1008 l 0 1007 l 54 1035 q -9 1131 -9 1075 q 187 1259 -9 1255 l 191 1199 q 52 1135 52 1189 q 76 1090 52 1107 q 130 1074 100 1074 q 235 1102 147 1074 l 251 1042 z "},"پ":{"ha":1149,"x_min":102,"x_max":1152,"o":"m 1141 284 q 1152 216 1152 252 q 1101 68 1152 133 q 970 0 1048 0 l 333 0 q 172 76 239 0 q 102 279 102 156 q 148 455 102 355 q 236 596 188 542 l 332 517 q 259 397 290 470 q 229 270 229 325 q 267 158 229 197 q 353 123 301 123 l 929 123 q 994 155 968 123 q 1019 225 1019 186 q 1015 256 1019 241 l 912 556 l 1027 609 q 1141 284 1072 498 m 815 -115 q 804 -256 810 -115 q 629 -242 753 -244 q 450 -250 505 -240 l 444 -111 q 629 -100 498 -100 q 815 -115 770 -100 m 684 -435 q 535 -435 602 -424 l 535 -302 q 608 -294 550 -295 q 684 -298 661 -294 l 684 -435 z "},"چ":{"ha":714,"x_min":102,"x_max":714,"o":"m 700 199 q 714 141 714 174 q 680 45 714 87 q 589 0 644 0 l 353 0 q 239 -103 239 0 q 259 -162 239 -136 q 316 -196 281 -191 l 694 -256 l 675 -386 l 267 -321 q 147 -245 195 -310 q 102 -103 102 -182 q 168 57 102 -7 q 353 123 237 123 l 569 123 q 587 138 583 123 q 581 166 589 152 l 433 437 q 409 457 422 457 q 388 437 395 457 l 279 153 l 156 194 l 293 527 q 404 591 319 591 q 524 527 489 591 l 700 199 m 548 -33 q 542 -111 545 -33 q 446 -103 514 -104 q 347 -108 378 -102 l 344 -32 q 448 -25 374 -25 q 548 -33 524 -25 m 484 -193 q 402 -194 430 -188 l 402 -119 q 442 -115 410 -115 q 484 -119 471 -116 l 484 -193 z "},"ژ":{"ha":420,"x_min":45,"x_max":416,"o":"m 299 872 q 150 871 216 883 l 150 1005 q 222 1013 165 1012 q 299 1008 275 1013 l 299 872 m 416 819 q 405 678 412 819 q 231 692 355 690 q 51 684 106 694 l 45 823 q 230 834 100 834 q 416 819 372 834 m 403 133 q 247 -257 403 -90 l 151 -180 q 278 157 278 -15 q 228 372 278 235 l 159 558 l 270 614 l 346 400 q 403 133 403 240 z "},"ڤ":{"ha":1154,"x_min":102,"x_max":1154,"o":"m 1154 197 q 1086 53 1154 109 q 930 0 1022 0 l 333 0 q 172 76 239 0 q 102 279 102 156 q 144 451 102 355 q 229 588 182 534 l 325 517 q 259 401 290 477 q 229 270 229 324 q 267 158 229 197 q 353 123 301 123 l 929 123 q 1029 170 1029 123 q 916 155 981 155 q 636 356 636 155 q 680 515 636 437 q 806 606 730 606 q 1039 454 918 606 q 1154 197 1154 309 m 987 304 q 917 416 968 359 q 826 477 863 477 q 775 433 795 477 q 760 366 760 399 q 787 297 760 317 q 871 280 812 280 q 987 304 947 280 m 851 861 q 702 860 768 871 l 702 994 q 774 1001 717 1000 q 851 997 827 1001 l 851 861 m 968 808 q 957 667 964 808 q 783 680 907 678 q 603 672 659 682 l 597 811 q 782 823 652 823 q 968 808 924 823 z "},"ک":{"ha":1110,"x_min":102,"x_max":1106,"o":"m 1105 203 q 1106 179 1106 191 q 1067 56 1106 108 q 962 0 1026 0 l 406 0 q 195 77 282 0 q 102 286 102 158 q 244 608 102 440 l 332 524 q 227 307 227 403 q 274 178 227 233 q 387 123 322 123 l 918 123 q 988 197 988 123 q 987 214 988 206 l 964 391 q 853 494 954 463 q 760 503 831 500 q 676 500 694 504 q 652 498 663 498 q 585 576 585 498 q 589 615 585 594 l 600 673 q 648 756 608 718 q 735 807 685 791 q 898 822 785 822 q 1074 808 1013 822 l 1074 688 q 918 707 977 707 q 713 615 713 707 q 905 603 855 615 q 1078 429 1063 564 l 1105 203 z "},"گ":{"ha":1110,"x_min":102,"x_max":1106,"o":"m 1076 892 q 1075 852 1073 881 q 873 869 977 869 q 671 842 747 869 l 661 882 q 899 904 758 904 q 1076 892 992 904 m 1105 203 q 1106 179 1106 191 q 1067 56 1106 108 q 962 0 1026 0 l 406 0 q 195 77 282 0 q 102 286 102 158 q 244 608 102 440 l 332 524 q 227 307 227 403 q 274 178 227 233 q 387 123 322 123 l 918 123 q 988 197 988 123 q 987 214 988 206 l 964 391 q 853 494 954 463 q 760 503 831 500 q 676 500 694 504 q 652 498 663 498 q 585 576 585 498 q 589 615 585 594 l 600 673 q 648 756 608 718 q 735 807 685 791 q 898 822 785 822 q 1074 808 1013 822 l 1074 688 q 918 707 977 707 q 713 615 713 707 q 905 603 855 615 q 1078 429 1063 564 l 1105 203 z "},"ی":{"ha":842,"x_min":102,"x_max":842,"o":"m 842 488 l 699 488 q 642 461 665 488 q 623 413 623 439 q 677 317 623 370 q 777 219 773 223 q 830 77 830 153 q 687 -137 830 -61 q 395 -201 566 -201 q 102 25 102 -201 q 161 256 102 119 q 260 442 205 361 l 368 378 q 229 45 229 165 q 285 -63 229 -35 q 407 -82 323 -82 q 697 79 697 -82 q 645 178 697 125 q 549 276 597 227 q 496 411 496 340 q 562 556 496 495 q 708 615 625 615 l 842 615 l 842 488 z "},"ە":{"ha":564,"x_min":101,"x_max":564,"o":"m 564 192 q 522 59 564 115 q 408 0 477 0 l 254 0 q 101 163 101 0 q 127 307 101 218 q 180 442 151 390 l 287 396 q 229 194 229 262 q 274 123 229 123 l 379 123 q 425 148 407 123 q 441 199 441 170 q 375 331 441 245 q 172 500 294 437 l 237 597 q 453 426 345 558 q 564 192 564 292 z "},"ۤ":{"ha":407,"x_min":-169,"x_max":430,"o":"m 430 1121 q 242 1019 341 1038 q 79 1009 160 1015 q -91 940 -17 1000 l -169 1028 q 18 1122 -85 1105 q 189 1133 103 1128 q 354 1203 287 1143 l 430 1121 z "},"۰":{"ha":597,"x_min":140,"x_max":513,"o":"m 513 254 q 459 122 513 176 q 327 68 404 68 q 195 122 250 68 q 140 254 140 176 q 195 386 140 331 q 327 440 250 440 q 459 386 404 440 q 513 254 513 331 m 404 254 q 381 309 404 286 q 327 332 359 332 q 272 309 295 332 q 250 254 250 286 q 272 200 250 222 q 327 178 295 178 q 381 200 359 178 q 404 254 404 222 z "},"۱":{"ha":422,"x_min":96,"x_max":322,"o":"m 318 -68 l 199 -68 q 201 7 201 -37 q 168 417 201 169 q 96 788 134 661 l 224 812 q 286 468 258 675 q 322 36 322 214 q 318 -68 322 -21 z "},"۲":{"ha":610,"x_min":106,"x_max":610,"o":"m 610 439 q 562 281 610 347 q 428 210 509 210 q 320 250 356 210 q 328 86 326 199 q 327 -68 332 -33 l 208 -68 q 211 7 211 -37 q 177 417 211 169 q 106 788 144 661 l 221 812 q 298 463 267 686 q 334 375 306 408 q 400 343 362 343 q 464 375 438 343 q 489 451 489 406 q 452 603 489 502 q 380 765 419 694 l 488 812 q 566 650 528 756 q 610 439 610 528 z "},"۳":{"ha":920,"x_min":106,"x_max":920,"o":"m 920 430 q 865 276 920 339 q 718 210 806 210 q 611 243 665 210 q 549 299 566 271 q 503 243 535 270 q 428 210 465 210 q 320 243 350 210 q 328 83 326 193 q 327 -68 332 -33 l 208 -68 q 211 10 211 -35 q 178 413 211 174 q 106 774 146 651 l 213 822 q 298 463 270 666 q 335 373 306 406 q 404 340 363 340 q 454 369 434 340 q 474 436 474 397 q 471 461 474 449 l 410 777 l 529 816 l 593 504 q 706 347 625 347 q 784 451 784 347 q 749 602 784 500 q 677 759 715 703 l 788 812 q 877 629 836 746 q 920 430 920 507 z "},"۴":{"ha":909,"x_min":106,"x_max":909,"o":"m 909 772 q 882 655 909 762 q 664 706 792 706 q 542 665 593 706 q 491 559 491 623 q 596 396 491 454 q 789 349 681 349 l 905 349 l 905 224 l 361 224 q 320 243 343 224 q 328 83 326 193 q 327 -68 332 -33 l 208 -68 q 211 10 211 -35 q 178 413 211 174 q 106 774 146 651 l 213 822 q 296 463 277 648 q 381 349 307 349 l 452 349 q 368 555 368 431 q 447 738 368 659 q 680 827 536 827 q 909 772 792 827 z "},"۵":{"ha":827,"x_min":104,"x_max":827,"o":"m 827 237 q 748 28 827 117 q 568 -61 669 -61 q 506 -35 537 -61 q 458 -8 475 -8 q 412 -38 444 -8 q 313 -68 380 -68 q 157 12 216 -68 q 104 190 104 85 q 176 431 104 280 q 321 661 243 567 l 419 570 q 302 382 354 489 q 242 174 242 256 q 326 83 242 83 q 401 119 369 83 q 450 156 433 156 q 506 126 473 156 q 568 96 538 96 q 654 129 621 96 q 692 234 692 166 q 578 495 692 345 q 357 721 485 620 l 433 817 q 692 559 570 730 q 827 237 827 373 z "},"۶":{"ha":779,"x_min":101,"x_max":779,"o":"m 779 511 l 420 -83 l 309 -14 l 433 188 q 351 174 393 174 q 176 249 248 174 q 101 448 101 327 q 174 663 101 552 q 313 810 235 755 l 393 712 q 233 465 233 606 q 376 317 233 317 q 602 465 511 317 l 671 578 l 779 511 z "},"۷":{"ha":932,"x_min":104,"x_max":932,"o":"m 932 747 q 616 -68 690 420 l 477 -68 q 104 726 344 486 l 197 811 q 398 553 290 745 q 535 238 500 375 q 648 548 572 383 q 817 819 735 737 l 932 747 z "},"۸":{"ha":929,"x_min":101,"x_max":929,"o":"m 929 24 l 836 -62 q 635 196 744 5 q 498 511 534 374 q 385 201 461 366 q 216 -70 298 12 l 101 2 q 418 817 344 329 l 556 817 q 929 24 690 263 z "},"۹":{"ha":680,"x_min":102,"x_max":680,"o":"m 680 673 q 659 515 680 644 q 637 259 637 387 q 654 -68 637 72 l 529 -68 q 504 236 518 -24 q 225 316 337 236 q 102 557 102 405 q 209 768 102 682 q 432 848 308 848 q 596 802 522 848 q 680 673 680 751 m 543 612 q 502 686 543 658 q 397 715 460 715 q 264 662 317 715 q 219 557 219 615 q 302 412 219 469 q 513 355 385 355 q 528 498 513 410 q 543 612 543 587 z "},"‌":{"ha":31,"x_min":0,"x_max":31,"o":"m 31 0 l 0 0 l 0 1104 l 31 1104 l 31 0 z "},"‍":{"ha":31,"x_min":-77,"x_max":109,"o":"m 109 1015 l 88 994 l 31 1052 l 31 0 l 0 0 l 0 1051 l -57 994 l -77 1015 l -5 1087 l -77 1160 l -57 1180 l 16 1107 l 88 1180 l 109 1160 l 36 1087 l 109 1015 z "},"‎":{"ha":31,"x_min":0,"x_max":205,"o":"m 205 1088 l 113 994 l 92 1015 l 150 1074 l 31 1074 l 31 0 l 0 0 l 0 1104 l 147 1104 l 92 1160 l 113 1181 l 205 1088 z "},"‏":{"ha":31,"x_min":-175,"x_max":31,"o":"m 31 0 l 0 0 l 0 1074 l -119 1074 l -61 1015 l -82 994 l -175 1088 l -82 1181 l -61 1160 l -117 1104 l 31 1104 l 31 0 z "},"–":{"ha":694,"x_min":-8,"x_max":703,"o":"m 703 419 l -8 419 l -8 460 l 703 460 l 703 419 z "},"—":{"ha":1389,"x_min":-8,"x_max":1397,"o":"m 1397 419 l -8 419 l -8 460 l 1397 460 l 1397 419 z "},"‘":{"ha":333,"x_min":85,"x_max":317,"o":"m 317 1008 q 212 909 256 968 q 161 779 161 841 q 182 712 161 741 q 243 744 209 744 q 313 676 313 744 q 280 614 313 636 q 210 593 251 593 q 119 628 154 593 q 85 718 85 662 q 158 909 85 813 q 317 1045 224 996 l 317 1008 z "},"’":{"ha":333,"x_min":71,"x_max":301,"o":"m 301 918 q 229 727 301 821 q 71 591 166 647 l 71 629 q 226 859 226 739 q 203 927 226 901 q 139 894 181 894 q 92 913 111 894 q 73 960 73 932 q 106 1023 73 999 q 176 1044 135 1044 q 268 1010 235 1044 q 301 918 301 976 z "},"‚":{"ha":333,"x_min":81,"x_max":311,"o":"m 311 111 q 237 -79 311 16 q 81 -214 175 -159 l 81 -176 q 235 52 235 -66 q 213 120 235 94 q 149 87 191 87 q 101 106 121 87 q 82 153 82 125 q 115 216 82 193 q 186 238 145 238 q 277 204 244 238 q 311 111 311 170 z "},"“":{"ha":441,"x_min":47,"x_max":388,"o":"m 388 777 q 360 760 379 773 q 325 695 325 725 q 380 619 380 680 q 359 566 380 589 q 307 544 338 544 q 250 572 272 544 q 231 635 231 598 q 368 878 231 771 q 369 815 368 821 q 388 777 372 788 m 205 777 q 177 760 196 773 q 142 695 142 725 q 197 619 197 680 q 176 566 197 589 q 124 544 155 544 q 67 572 89 544 q 47 635 47 598 q 185 878 47 771 q 186 815 185 821 q 205 777 189 788 z "},"”":{"ha":441,"x_min":53,"x_max":393,"o":"m 393 781 q 256 537 393 644 q 255 600 256 594 q 236 638 252 627 q 264 656 245 642 q 299 720 299 690 q 243 796 243 735 q 264 849 243 827 q 317 871 286 871 q 373 845 353 871 q 393 781 393 818 m 210 781 q 73 537 210 644 q 72 600 73 594 q 53 638 69 627 q 81 656 62 642 q 116 720 116 690 q 60 796 60 735 q 81 849 60 827 q 134 871 102 871 q 191 844 170 871 q 210 781 210 818 z "},"„":{"ha":637,"x_min":53,"x_max":586,"o":"m 586 111 q 515 -80 586 13 q 358 -216 454 -158 l 358 -178 q 511 55 511 -69 q 490 120 511 89 q 429 87 467 87 q 380 107 400 87 q 360 155 360 126 q 393 218 360 195 q 463 237 421 237 q 586 111 586 237 m 281 113 q 53 -216 281 -77 l 53 -176 q 157 -80 115 -139 q 205 51 205 -14 q 186 120 205 87 q 123 87 163 87 q 74 106 94 87 q 55 155 55 125 q 88 218 55 195 q 159 237 117 237 q 248 203 214 237 q 281 113 281 169 z "},"†":{"ha":608,"x_min":59,"x_max":548,"o":"m 548 572 l 517 572 q 437 636 514 615 l 321 668 q 386 441 335 558 q 321 -222 332 229 l 286 -222 q 221 441 273 203 q 286 668 270 553 l 195 644 q 128 622 145 630 q 87 572 91 604 l 59 572 l 59 802 l 87 802 q 189 730 93 754 l 286 706 l 262 836 q 243 927 249 911 q 180 983 224 980 l 180 1013 l 425 1013 l 425 983 q 363 930 382 983 q 345 844 356 912 l 321 706 l 404 726 q 517 802 513 753 l 548 802 l 548 572 z "},"‡":{"ha":608,"x_min":56,"x_max":554,"o":"m 554 -14 l 521 -14 q 453 47 517 20 l 324 83 l 357 -87 q 375 -156 368 -142 q 431 -190 391 -189 l 431 -221 l 180 -221 l 180 -190 q 235 -155 218 -189 q 254 -87 245 -137 l 285 87 l 152 45 q 91 -14 94 27 l 56 -14 l 56 220 l 91 220 q 127 172 96 189 q 188 150 140 165 l 285 120 q 218 398 271 222 q 285 669 250 491 l 170 636 q 86 572 89 613 l 56 572 l 56 804 l 86 804 q 114 760 93 774 q 164 739 120 757 l 285 706 l 248 897 q 230 954 239 939 q 180 982 214 980 l 180 1013 l 427 1013 l 427 982 q 365 934 383 981 q 346 849 359 920 l 319 706 l 390 724 q 468 747 452 740 q 516 804 514 768 l 554 804 l 554 572 l 516 572 q 498 608 513 595 q 431 636 486 619 l 324 669 q 390 398 355 499 q 324 120 347 256 l 431 154 l 439 158 l 464 166 q 521 220 516 184 l 554 220 l 554 -14 z "},"•":{"ha":391,"x_min":40,"x_max":351,"o":"m 351 521 q 306 411 351 456 q 195 366 260 366 q 85 411 130 366 q 40 521 40 456 q 85 632 40 587 q 195 677 130 677 q 306 632 262 677 q 351 521 351 587 z "},"…":{"ha":1389,"x_min":150,"x_max":1239,"o":"m 1239 149 q 1215 92 1239 115 q 1158 68 1191 68 q 1100 91 1124 68 q 1076 149 1076 115 q 1099 205 1076 181 q 1156 229 1123 229 q 1215 206 1190 229 q 1239 149 1239 183 m 776 149 q 752 92 776 115 q 694 68 728 68 q 637 91 661 68 q 613 149 613 115 q 636 205 613 182 q 693 229 660 229 q 751 205 727 229 q 776 149 776 182 m 313 149 q 289 91 313 115 q 231 68 265 68 q 174 92 198 68 q 150 149 150 115 q 174 205 150 181 q 230 229 197 229 q 289 206 264 229 q 313 149 313 183 z "},"‰":{"ha":1403,"x_min":55,"x_max":1350,"o":"m 1350 335 q 1289 157 1350 233 q 1124 74 1223 74 q 988 134 1040 74 q 939 276 939 191 q 999 458 939 380 q 1166 542 1065 542 q 1301 479 1251 542 q 1350 335 1350 421 m 891 335 q 831 156 891 232 q 665 74 766 74 q 530 134 582 74 q 481 276 481 191 q 541 457 481 379 q 707 542 607 542 q 843 479 792 542 q 891 335 891 421 m 465 758 q 402 580 465 656 q 236 499 336 499 q 102 560 153 499 q 55 703 55 617 q 117 881 55 802 q 281 966 183 966 q 418 904 367 966 q 465 758 465 846 m 802 993 l 201 46 l 142 46 l 745 993 l 802 993 m 1270 267 q 1236 414 1270 346 q 1124 497 1195 497 q 1042 451 1069 497 q 1020 355 1020 413 q 1053 208 1020 277 q 1162 121 1094 121 q 1270 267 1270 121 m 812 267 q 779 414 812 346 q 666 497 737 497 q 585 451 612 497 q 562 355 562 413 q 594 208 562 277 q 705 121 635 121 q 812 267 812 121 m 385 696 q 351 839 385 772 q 240 921 309 921 q 135 775 135 921 q 168 627 135 694 q 282 543 210 543 q 385 696 385 543 z "},"‹":{"ha":347,"x_min":46,"x_max":310,"o":"m 310 655 l 155 396 l 306 138 l 306 87 l 46 396 l 310 706 l 310 655 z "},"›":{"ha":347,"x_min":43,"x_max":310,"o":"m 310 397 l 43 87 l 43 138 l 200 397 l 50 656 l 50 708 l 310 397 z "},"™":{"ha":1259,"x_min":28,"x_max":1243,"o":"m 1243 406 l 1009 406 l 1009 428 q 1078 449 1063 428 q 1089 524 1089 466 l 1089 873 l 879 406 l 867 406 l 648 864 l 648 519 q 659 445 648 458 q 728 428 671 428 l 728 406 l 534 406 l 534 428 q 602 448 589 428 q 611 524 611 462 l 611 836 q 600 908 611 892 q 534 932 586 928 l 534 955 l 694 955 l 895 524 l 1089 955 l 1243 955 l 1243 932 q 1179 914 1192 930 q 1166 845 1166 898 l 1166 524 q 1177 450 1166 467 q 1243 428 1191 429 l 1243 406 m 486 826 l 468 826 q 440 902 463 882 q 361 921 418 921 l 298 921 l 298 537 q 307 455 298 471 q 378 428 322 427 l 378 406 l 136 406 l 136 428 q 206 455 191 427 q 215 537 215 471 l 215 921 l 153 921 q 75 900 98 921 q 45 826 52 880 l 28 826 l 28 955 l 486 955 l 486 826 z "},"":{"ha":407,"x_min":-64,"x_max":298,"o":"m 298 882 q -29 679 148 826 l -64 729 q 273 939 104 870 l 298 882 z "},"":{"ha":407,"x_min":-28,"x_max":214,"o":"m 214 933 q 139 764 214 836 q -24 696 66 696 q -28 751 -24 700 q 111 808 64 756 q 33 880 33 830 q 79 1010 33 945 q 146 1068 121 1068 q 214 933 214 1068 m 168 941 q 142 1012 168 1012 q 108 970 131 1012 q 84 898 84 927 q 146 855 84 865 q 168 941 168 884 z "},"":{"ha":407,"x_min":-20,"x_max":231,"o":"m 231 818 q 195 730 231 766 q 106 694 158 694 q 17 730 54 694 q -20 818 -20 766 q 17 907 -20 870 q 106 943 54 943 q 195 907 158 943 q 231 818 231 870 m 170 819 q 151 864 170 845 q 106 883 132 883 q 60 864 79 883 q 41 819 41 845 q 60 773 41 792 q 106 755 79 755 q 151 773 132 755 q 170 819 170 792 z "},"":{"ha":407,"x_min":-92,"x_max":298,"o":"m 271 1004 q -56 801 121 948 l -92 851 q 246 1061 77 992 l 271 1004 m 298 882 q -29 679 148 826 l -64 729 q 273 939 104 870 l 298 882 z "},"":{"ha":407,"x_min":-84,"x_max":214,"o":"m 214 934 q 139 765 214 837 q -24 696 66 696 q -28 752 -24 701 l -8 755 q -3 793 -3 779 q -20 819 -3 819 q -68 796 -35 819 l -84 840 q -12 871 -50 871 q 25 856 13 871 q 33 761 47 828 q 111 809 79 773 q 33 880 33 831 q 79 1011 33 946 q 146 1069 121 1069 q 214 934 214 1069 m 168 941 q 142 1013 168 1013 q 108 971 131 1013 q 84 899 84 928 q 146 856 84 866 q 168 941 168 884 z "},"":{"ha":407,"x_min":-63,"x_max":290,"o":"m 290 817 q 267 736 290 770 q 196 698 241 698 q 124 732 161 698 q 43 696 98 695 q -33 739 0 696 q -63 827 -63 779 q -54 925 -63 871 l 3 912 q -5 851 -5 885 q 43 759 -5 759 q 82 805 82 759 q 66 909 82 819 q 128 916 90 911 q 145 806 144 807 q 194 763 157 763 q 223 799 223 763 q 188 916 223 841 l 240 943 q 290 817 290 861 z "},"":{"ha":407,"x_min":40,"x_max":403,"o":"m 403 -156 q 75 -359 252 -212 l 40 -309 q 378 -98 208 -168 l 403 -156 z "},"":{"ha":407,"x_min":40,"x_max":430,"o":"m 403 -136 q 75 -338 252 -191 l 40 -288 q 378 -78 208 -147 l 403 -136 m 430 -258 q 102 -460 279 -313 l 67 -410 q 405 -200 235 -269 l 430 -258 z "},"":{"ha":0,"x_min":-40,"x_max":326,"o":"m 326 1305 l 288 1204 l -40 1129 l -7 1223 l 326 1305 m 208 1028 q 231 1077 229 1028 q 239 1143 232 1126 l 243 1152 l 252 1149 q 279 1120 269 1143 q 289 1065 289 1096 q 274 992 289 1028 q 232 940 260 957 q 215 937 221 937 q 189 947 201 937 q 143 906 171 922 q 86 890 115 890 q 60 895 72 890 q 27 933 39 907 q 16 990 16 960 q 43 1063 16 1042 l 53 1071 l 60 1061 q 79 1013 74 1043 q 92 982 83 982 q 103 986 96 982 q 143 1039 134 991 q 180 1092 153 1086 q 202 1060 193 1082 q 208 1028 211 1039 z "},"":{"ha":407,"x_min":-71,"x_max":265,"o":"m 214 1204 q 139 1036 214 1107 q -24 967 66 967 q -28 1022 -24 971 q 111 1080 64 1027 q 33 1151 33 1101 q 79 1282 33 1217 q 146 1339 121 1339 q 214 1204 214 1339 m 265 857 q 181 732 264 732 q 109 766 134 732 q 28 696 83 696 q -45 727 -18 696 q -71 806 -71 758 q -62 891 -71 851 l -5 878 q -12 821 -12 846 q 28 759 -12 759 q 71 818 71 759 q 55 918 71 850 q 113 930 77 922 q 135 829 125 854 q 179 797 149 797 q 210 835 210 797 q 173 957 210 878 l 225 984 q 265 857 265 901 m 168 1212 q 142 1283 168 1283 q 108 1242 131 1283 q 84 1169 84 1198 q 146 1126 84 1137 q 168 1212 168 1155 z "},"":{"ha":0,"x_min":-58,"x_max":323,"o":"m 307 1349 l 268 1249 l -58 1174 l -26 1268 l 307 1349 m 323 1474 l 283 1372 l -43 1297 l -11 1392 l 323 1474 m 184 1050 q 207 1099 205 1050 q 215 1165 208 1149 l 218 1174 l 227 1171 q 255 1142 244 1165 q 265 1086 265 1118 q 251 1014 265 1048 q 208 962 236 979 q 192 960 197 960 q 165 970 178 960 q 119 929 147 945 q 62 913 92 913 q 36 917 49 913 q 2 956 14 930 q -9 1013 -9 982 q 20 1084 -9 1064 l 29 1093 l 35 1083 q 55 1034 50 1064 q 68 1004 60 1004 q 79 1008 72 1004 q 119 1061 110 1014 q 157 1114 129 1108 q 179 1082 170 1103 q 184 1050 189 1061 z "},"":{"ha":407,"x_min":-91,"x_max":265,"o":"m 208 1212 q 132 1043 208 1115 q -31 975 60 975 q -35 1030 -31 979 l -15 1033 q -10 1072 -10 1057 q -26 1097 -10 1097 q -75 1074 -41 1097 l -91 1118 q -19 1149 -57 1149 q 18 1134 6 1149 q 26 1039 40 1106 q 104 1087 73 1051 q 26 1158 26 1109 q 73 1289 26 1224 q 139 1347 114 1347 q 208 1212 208 1347 m 265 857 q 181 732 264 732 q 109 766 134 732 q 28 696 83 696 q -45 727 -18 696 q -71 806 -71 758 q -62 891 -71 851 l -5 878 q -12 821 -12 846 q 28 759 -12 759 q 71 818 71 759 q 55 918 71 850 q 113 930 77 922 q 135 829 125 854 q 179 797 149 797 q 210 835 210 797 q 173 957 210 878 l 225 984 q 265 857 265 901 m 161 1219 q 136 1291 161 1291 q 101 1249 124 1291 q 77 1177 77 1206 q 139 1134 77 1144 q 161 1219 161 1162 z "},"":{"ha":407,"x_min":-78,"x_max":298,"o":"m 258 1067 q 174 942 258 942 q 102 977 127 942 q 21 906 77 906 q -52 937 -25 906 q -78 1017 -78 968 q -68 1101 -78 1061 l -12 1088 q -19 1031 -19 1057 q 21 969 -19 969 q 64 1028 64 969 q 48 1128 64 1060 q 106 1140 71 1132 q 128 1040 118 1064 q 172 1007 142 1007 q 203 1045 203 1007 q 166 1167 203 1088 l 218 1194 q 258 1067 258 1111 m 298 868 q -29 665 148 812 l -64 715 q 273 926 104 857 l 298 868 z "},"":{"ha":407,"x_min":-71,"x_max":319,"o":"m 292 1662 q -36 1459 141 1606 l -71 1509 q 267 1719 97 1650 l 292 1662 m 319 1539 q -9 1337 168 1484 l -44 1387 q 294 1597 124 1528 l 319 1539 m 299 1230 q 215 1105 298 1105 q 143 1139 168 1105 q 62 1069 117 1069 q -11 1100 16 1069 q -37 1179 -37 1131 q -28 1264 -37 1224 l 28 1251 q 22 1194 22 1219 q 62 1132 22 1132 q 104 1191 104 1132 q 89 1291 104 1223 q 147 1303 111 1295 q 169 1202 159 1227 q 213 1170 183 1170 q 244 1208 244 1170 q 207 1330 244 1251 l 259 1357 q 299 1230 299 1274 z "},"":{"ha":407,"x_min":-117,"x_max":298,"o":"m 219 1177 q 135 1053 218 1053 q 63 1087 88 1053 q -18 1017 37 1017 q -91 1048 -64 1017 q -117 1127 -117 1079 q -108 1212 -117 1172 l -52 1199 q -58 1141 -58 1167 q -18 1080 -58 1080 q 24 1139 24 1080 q 9 1238 24 1171 q 67 1251 31 1242 q 89 1150 79 1175 q 133 1118 103 1118 q 164 1156 164 1118 q 127 1278 164 1199 l 179 1305 q 219 1177 219 1221 m 259 979 q -68 776 109 923 l -104 826 q 234 1036 64 967 l 259 979 m 298 868 q -29 665 148 812 l -64 715 q 273 926 104 857 l 298 868 z "},"":{"ha":407,"x_min":-134,"x_max":234,"o":"m 229 1120 q -99 917 78 1064 l -134 967 q 203 1177 34 1108 l 229 1120 m 234 774 q 23 688 112 740 l -17 739 l 37 766 q -26 863 -26 806 q 170 990 -26 986 l 174 930 q 35 866 35 920 q 59 822 35 838 q 113 805 83 805 q 218 833 130 805 l 234 774 z "},"":{"ha":407,"x_min":-169,"x_max":234,"o":"m 229 1120 q -99 917 78 1064 l -134 967 q 203 1177 34 1108 l 229 1120 m 234 774 q 23 688 112 740 l -17 739 l 37 766 q -26 863 -26 806 q 170 990 -26 986 l 174 930 q 35 866 35 920 q 59 822 35 838 q 113 805 83 805 q 218 833 130 805 l 234 774 m 194 1238 q -134 1036 43 1183 l -169 1086 q 169 1296 -1 1227 l 194 1238 z "},"":{"ha":407,"x_min":-66,"x_max":234,"o":"m 234 774 q 23 688 112 740 l -17 739 l 37 766 q -26 863 -26 806 q 170 990 -26 986 l 174 930 q 35 866 35 920 q 59 822 35 838 q 113 805 83 805 q 218 833 130 805 l 234 774 m 184 1148 q 148 1060 184 1096 q 59 1024 111 1024 q -30 1060 7 1024 q -66 1148 -66 1096 q -30 1237 -66 1200 q 59 1274 7 1274 q 148 1237 111 1274 q 184 1148 184 1200 m 123 1149 q 104 1194 123 1175 q 59 1213 85 1213 q 14 1194 33 1213 q -5 1149 -5 1175 q 14 1104 -5 1122 q 59 1085 33 1085 q 104 1104 85 1085 q 123 1149 123 1122 z "},"":{"ha":407,"x_min":-79,"x_max":234,"o":"m 234 774 q 23 688 112 740 l -17 739 l 37 766 q -26 863 -26 806 q 170 990 -26 986 l 174 930 q 35 866 35 920 q 59 822 35 838 q 113 805 83 805 q 218 833 130 805 l 234 774 m 163 1222 q 88 1053 163 1125 q -75 985 16 985 q -79 1040 -75 989 q 60 1097 13 1045 q -18 1168 -18 1119 q 28 1299 -18 1234 q 95 1357 70 1357 q 163 1222 163 1357 m 117 1230 q 92 1301 117 1301 q 57 1259 80 1301 q 33 1187 33 1216 q 95 1144 33 1154 q 117 1230 117 1173 z "},"":{"ha":407,"x_min":-98,"x_max":244,"o":"m 244 770 q 33 684 122 736 l -7 735 l 47 763 q -16 859 -16 803 q 180 987 -16 983 l 184 927 q 45 863 45 917 q 69 818 45 835 q 123 802 93 802 q 228 830 140 802 l 244 770 m 200 1226 q 125 1057 200 1129 q -38 989 52 989 q -42 1044 -38 993 l -22 1047 q -18 1086 -18 1072 q -34 1111 -18 1111 q -83 1088 -49 1111 l -98 1132 q -26 1164 -64 1164 q 11 1148 -1 1164 q 18 1053 33 1120 q 97 1101 65 1065 q 18 1173 18 1123 q 65 1303 18 1238 q 132 1361 106 1361 q 200 1226 200 1361 m 154 1234 q 128 1305 154 1305 q 94 1263 117 1305 q 70 1191 70 1220 q 132 1148 70 1158 q 154 1234 154 1177 z "},"ﭐ":{"ha":380,"x_min":21,"x_max":392,"o":"m 375 0 l 256 0 q 258 75 258 31 q 224 485 258 237 q 153 856 191 728 l 281 880 q 343 536 315 743 q 379 104 379 281 q 375 0 379 47 m 296 1157 q 364 1109 335 1157 q 392 1011 392 1064 q 391 991 392 1000 q 244 933 329 933 q 227 934 238 933 q 210 934 216 934 q 73 887 130 934 q 21 946 47 916 q 104 996 62 984 q 182 1004 127 1002 q 228 1122 187 1079 q 296 1157 260 1157 m 330 1028 q 291 1092 323 1092 q 252 1064 269 1092 q 236 1003 235 1036 q 260 1002 249 1002 q 330 1028 314 1002 z "},"ﭑ":{"ha":421,"x_min":54,"x_max":441,"o":"m 441 0 l 302 0 q 160 70 216 0 q 105 257 105 140 q 136 568 105 395 q 216 877 166 743 l 337 839 q 262 545 292 728 q 235 267 235 380 q 267 149 235 182 q 350 123 293 123 l 441 123 l 441 0 m 329 1163 q 397 1115 368 1163 q 425 1017 425 1070 q 424 997 425 1006 q 277 939 362 939 q 260 940 272 939 q 243 940 249 940 q 106 893 163 940 q 54 952 81 922 q 138 1002 95 990 q 215 1010 161 1008 q 261 1128 220 1085 q 329 1163 294 1163 m 363 1034 q 324 1098 356 1098 q 285 1070 302 1098 q 269 1009 268 1042 q 294 1008 282 1008 q 363 1034 347 1008 z "},"ﭖ":{"ha":1533,"x_min":43,"x_max":1303,"o":"m 901 -133 q 958 -157 937 -133 q 979 -211 979 -180 q 964 -261 979 -244 q 913 -277 949 -277 q 857 -255 879 -277 q 835 -211 835 -233 q 859 -159 835 -184 q 901 -133 884 -133 m 1039 -288 q 1096 -312 1075 -288 q 1117 -366 1117 -336 q 1102 -416 1117 -399 q 1050 -433 1086 -433 q 995 -411 1017 -433 q 972 -366 972 -389 q 996 -313 972 -338 q 1039 -288 1019 -288 m 43 346 q 71 519 43 460 q 163 679 100 579 q 211 764 178 708 q 289 829 244 819 q 171 619 220 724 q 122 412 122 514 q 232 157 122 235 q 515 79 342 79 q 765 119 602 79 q 1093 200 928 158 q 1137 198 1109 200 q 1173 196 1165 196 q 1219 233 1219 196 q 1124 299 1219 249 q 1029 387 1029 349 q 1054 454 1035 421 q 1143 488 1074 488 q 1260 421 1217 488 q 1303 267 1303 354 q 1253 155 1303 243 q 1188 62 1203 66 q 1167 58 1173 58 q 1161 58 1162 58 q 1132 62 1153 58 q 1096 66 1111 66 q 767 -12 928 22 q 503 -45 607 -45 q 172 59 301 -45 q 43 346 43 164 m 1029 -174 q 1049 -116 1029 -138 q 1104 -93 1069 -93 q 1159 -114 1140 -93 q 1178 -166 1178 -136 q 1156 -216 1178 -193 q 1096 -240 1133 -240 q 1029 -174 1029 -240 z "},"ﭗ":{"ha":1733,"x_min":37,"x_max":1760,"o":"m 1154 -60 q 1211 -83 1190 -60 q 1232 -137 1232 -106 q 1217 -187 1232 -170 q 1165 -204 1202 -204 q 1110 -182 1132 -204 q 1088 -137 1088 -159 q 1111 -84 1088 -109 q 1154 -60 1135 -60 m 1246 -244 q 1303 -268 1282 -244 q 1324 -322 1324 -292 q 1309 -372 1324 -355 q 1257 -389 1293 -389 q 1201 -366 1223 -389 q 1179 -322 1179 -344 q 1203 -270 1179 -296 q 1246 -244 1227 -244 m 1293 -151 q 1309 -99 1293 -127 q 1367 -71 1324 -71 q 1421 -92 1402 -71 q 1440 -144 1440 -113 q 1419 -195 1440 -172 q 1360 -218 1397 -218 q 1293 -151 1293 -218 m 1284 138 q 1365 208 1317 142 q 1451 273 1414 273 q 1490 242 1472 258 q 1538 192 1507 227 q 1624 145 1569 158 q 1729 132 1679 132 q 1747 132 1740 132 q 1760 134 1754 132 l 1760 0 q 1737 0 1750 0 q 1707 -1 1725 0 q 1670 -1 1687 -1 q 1643 4 1653 0 q 1575 17 1604 11 q 1516 37 1546 24 q 1462 74 1486 50 q 1426 102 1438 98 q 1349 48 1407 104 q 1234 -8 1291 -8 q 1047 -12 1179 -8 q 856 -16 914 -16 q 643 -12 732 -16 q 403 20 554 -7 q 144 120 252 46 q 37 349 37 195 q 48 460 37 379 q 139 648 58 541 q 248 770 225 743 q 306 839 271 798 q 404 897 361 897 q 232 690 302 793 q 147 508 161 587 q 132 395 132 429 q 179 253 132 300 q 283 192 225 207 q 450 155 340 176 q 649 129 559 134 q 850 123 739 123 q 1104 129 982 123 q 1284 138 1226 134 z "},"ﭘ":{"ha":407,"x_min":-20,"x_max":402,"o":"m 374 284 q 385 216 385 252 q 334 68 385 133 q 203 0 281 0 l -20 0 l -20 123 l 162 123 q 227 155 201 123 q 252 225 252 186 q 248 256 252 241 l 145 556 l 260 609 q 374 284 304 498 m 402 -115 q 391 -256 397 -115 q 216 -242 340 -244 q 37 -250 92 -240 l 31 -111 q 216 -100 85 -100 q 402 -115 357 -100 m 271 -435 q 122 -435 189 -424 l 122 -302 q 195 -294 137 -295 q 271 -298 248 -294 l 271 -435 z "},"ﭙ":{"ha":454,"x_min":-20,"x_max":474,"o":"m 474 0 l 424 0 q 296 74 342 0 q 165 0 237 0 l -20 0 l -20 123 l 124 123 q 189 155 163 123 q 214 225 214 186 q 210 256 214 241 l 107 556 l 222 609 q 375 170 267 498 q 424 123 391 123 l 474 123 l 474 0 m 412 -115 q 401 -256 408 -115 q 227 -242 351 -244 q 47 -250 102 -240 l 41 -111 q 226 -100 96 -100 q 412 -115 368 -100 m 281 -435 q 132 -435 199 -424 l 132 -302 q 205 -294 147 -295 q 281 -298 258 -294 l 281 -435 z "},"ﭪ":{"ha":1503,"x_min":26,"x_max":1437,"o":"m 1145 850 q 1167 895 1145 873 q 1223 917 1188 917 q 1276 898 1262 917 q 1290 850 1290 879 q 1262 791 1290 810 q 1201 772 1234 772 q 1163 794 1181 779 q 1145 850 1145 808 m 1031 1013 q 1053 1058 1031 1036 q 1109 1079 1074 1079 q 1176 1013 1176 1079 q 1155 960 1176 985 q 1098 935 1134 935 q 1055 960 1078 935 q 1031 1013 1031 985 m 915 821 q 930 881 909 843 q 972 925 951 918 q 1001 932 994 932 q 1046 917 1023 932 q 1075 881 1069 901 q 1081 848 1081 861 q 1042 778 1081 790 q 994 766 1004 766 q 946 783 969 766 q 915 821 923 800 m 1248 338 q 1200 331 1213 332 q 1179 330 1187 330 q 1087 351 1124 330 q 1044 401 1050 371 q 1037 453 1037 432 q 1077 597 1037 526 q 1161 682 1118 668 q 1224 696 1204 696 q 1328 644 1278 696 q 1407 504 1377 591 q 1427 454 1417 484 q 1437 374 1437 424 q 1417 264 1437 321 q 1358 128 1404 216 q 1296 36 1313 40 q 1267 32 1278 32 q 1236 36 1259 32 q 1195 40 1212 40 q 1044 5 1179 40 q 775 -57 910 -31 q 537 -84 641 -84 q 169 32 312 -84 q 26 351 26 149 q 57 545 26 479 q 137 688 88 610 q 213 812 185 766 q 299 889 259 879 q 168 655 222 770 q 115 427 115 541 q 236 142 115 229 q 551 56 357 56 q 828 99 646 56 q 1192 189 1009 143 q 1240 188 1219 189 q 1281 184 1261 186 q 1333 227 1333 184 q 1308 319 1333 296 q 1248 338 1282 343 m 1164 490 q 1198 452 1164 444 q 1230 457 1215 454 q 1245 468 1245 460 q 1238 490 1245 473 q 1217 522 1232 507 q 1191 534 1202 536 q 1172 522 1180 534 q 1164 490 1164 509 z "},"ﭫ":{"ha":1644,"x_min":33,"x_max":1671,"o":"m 1383 621 q 1405 666 1383 644 q 1461 688 1426 688 q 1514 669 1500 688 q 1528 621 1528 650 q 1500 562 1528 581 q 1439 543 1472 543 q 1401 565 1419 550 q 1383 621 1383 579 m 1268 783 q 1290 828 1268 807 q 1346 850 1311 850 q 1397 833 1382 850 q 1413 783 1413 817 q 1392 730 1413 754 q 1335 705 1372 705 q 1292 730 1315 705 q 1268 783 1268 755 m 1336 576 q 1317 527 1336 543 q 1270 510 1297 510 q 1187 568 1187 510 q 1213 631 1187 604 q 1276 657 1238 657 q 1316 632 1296 648 q 1336 576 1336 616 m 1671 0 l 1533 0 q 1484 14 1511 0 q 1449 25 1457 28 q 1392 0 1415 9 q 1276 -9 1369 -9 q 1110 -15 1210 -12 q 901 -18 1010 -18 q 632 -12 717 -18 q 401 20 547 -7 q 144 118 256 46 q 33 335 33 189 q 48 456 33 371 q 107 601 64 541 q 237 757 150 661 q 306 839 271 798 q 404 897 361 897 q 234 689 307 793 q 147 508 161 586 q 132 395 132 429 q 179 253 132 300 q 283 192 225 207 q 454 154 340 176 q 684 126 568 132 q 918 119 799 119 q 1134 122 1057 119 q 1265 129 1210 125 q 1297 146 1297 129 q 1283 173 1297 150 q 1261 210 1268 196 q 1254 265 1254 224 q 1298 376 1254 338 q 1410 414 1341 414 q 1533 348 1485 414 q 1582 207 1582 282 q 1578 185 1581 197 q 1560 134 1575 174 l 1671 134 l 1671 0 m 1379 235 q 1395 194 1385 212 q 1417 175 1404 175 q 1433 188 1423 175 q 1449 213 1443 200 q 1455 241 1455 227 q 1452 266 1455 250 q 1439 294 1449 281 q 1407 304 1430 307 q 1382 292 1389 301 q 1375 267 1375 282 q 1377 251 1375 260 q 1379 235 1378 243 z "},"ﭬ":{"ha":564,"x_min":-20,"x_max":564,"o":"m 564 197 q 496 53 564 109 q 340 0 432 0 l -20 0 l -20 123 l 339 123 q 439 170 439 123 q 326 155 391 155 q 46 356 46 155 q 90 515 46 437 q 216 606 140 606 q 449 454 328 606 q 564 197 564 309 m 397 304 q 327 416 378 359 q 236 477 273 477 q 185 433 205 477 q 170 366 170 399 q 197 297 170 317 q 281 280 222 280 q 397 304 357 280 m 288 861 q 139 860 205 871 l 139 994 q 212 1001 154 1000 q 288 997 264 1001 l 288 861 m 406 808 q 394 667 401 808 q 220 680 344 678 q 40 672 96 682 l 35 811 q 219 823 89 823 q 406 808 361 823 z "},"ﭭ":{"ha":581,"x_min":-20,"x_max":601,"o":"m 601 0 l 273 0 q 199 15 219 0 q 109 0 177 0 l -20 0 l -20 123 l 115 123 q 90 288 90 176 q 123 488 90 399 q 242 600 165 600 q 430 447 335 600 q 513 241 513 313 q 465 123 513 152 l 601 123 l 601 0 m 389 243 q 335 375 389 278 q 258 473 281 473 q 209 302 209 473 q 267 124 209 177 q 338 161 303 134 q 389 243 389 198 m 302 861 q 153 860 219 871 l 153 994 q 225 1001 168 1000 q 302 997 278 1001 l 302 861 m 419 808 q 408 667 414 808 q 233 680 357 678 q 54 672 109 682 l 48 811 q 233 823 102 823 q 419 808 374 823 z "},"ﭺ":{"ha":926,"x_min":48,"x_max":963,"o":"m 420 -149 q 477 -172 456 -149 q 498 -226 498 -195 q 483 -276 498 -259 q 431 -293 467 -293 q 376 -271 398 -293 q 353 -226 353 -248 q 377 -173 353 -198 q 420 -149 401 -149 m 616 -170 q 677 -189 649 -170 q 705 -248 705 -207 q 691 -296 705 -277 q 638 -315 677 -315 q 583 -294 605 -315 q 560 -248 560 -273 q 581 -188 560 -199 q 616 -170 602 -176 m 512 -333 q 569 -357 548 -333 q 589 -411 589 -380 q 574 -461 589 -444 q 523 -477 559 -477 q 467 -455 490 -477 q 445 -411 445 -433 q 469 -359 445 -385 q 512 -333 494 -333 m 640 135 q 602 239 640 211 q 507 273 565 267 q 449 240 474 252 q 409 228 425 228 q 367 242 378 228 q 355 279 355 256 q 358 308 355 292 q 368 358 362 323 q 408 422 374 393 q 503 452 441 452 q 637 368 580 452 q 706 245 671 307 q 791 166 735 210 q 887 134 848 123 q 920 138 906 138 q 954 126 944 138 q 963 92 963 114 q 940 18 963 58 q 895 -22 916 -22 q 853 -12 869 -22 q 756 -3 837 -3 q 468 -16 537 -3 q 260 -76 398 -29 q 188 -124 224 -93 q 152 -235 152 -155 q 192 -383 152 -297 q 321 -581 231 -469 l 284 -615 q 113 -410 177 -515 q 48 -226 48 -305 q 93 -78 48 -146 q 212 31 138 -9 q 388 96 286 72 q 640 135 490 121 z "},"ﭻ":{"ha":926,"x_min":48,"x_max":980,"o":"m 442 -170 q 499 -194 479 -170 q 520 -248 520 -218 q 505 -298 520 -281 q 454 -315 490 -315 q 398 -293 420 -315 q 376 -248 376 -271 q 399 -195 376 -220 q 442 -170 423 -170 m 638 -193 q 699 -211 671 -193 q 727 -271 727 -229 q 713 -318 727 -300 q 661 -337 699 -337 q 605 -316 627 -337 q 583 -271 583 -296 q 604 -210 583 -222 q 638 -193 625 -198 m 534 -355 q 591 -379 570 -355 q 612 -433 612 -402 q 596 -483 612 -467 q 545 -500 581 -500 q 490 -477 512 -500 q 467 -433 467 -455 q 492 -381 467 -407 q 534 -355 516 -355 m 640 135 q 602 239 640 211 q 507 273 565 267 q 449 240 474 252 q 409 228 425 228 q 367 242 378 228 q 355 279 355 256 q 358 308 355 292 q 368 358 362 323 q 408 422 374 393 q 503 452 441 452 q 637 368 580 452 q 706 245 671 307 q 738 211 722 227 q 788 174 753 196 q 840 142 823 153 q 884 132 858 132 q 909 132 895 132 q 939 134 923 132 q 971 110 963 134 q 980 62 980 86 q 971 17 980 35 q 943 0 962 0 q 868 -1 918 0 q 756 -3 819 -3 q 468 -16 537 -3 q 260 -76 398 -29 q 188 -124 224 -93 q 152 -235 152 -155 q 192 -383 152 -297 q 321 -581 231 -469 l 284 -615 q 113 -410 177 -515 q 48 -226 48 -305 q 93 -78 48 -146 q 212 31 138 -9 q 388 96 286 72 q 640 135 490 121 z "},"ﭼ":{"ha":926,"x_min":-18,"x_max":838,"o":"m 265 -170 q 322 -194 301 -170 q 343 -248 343 -218 q 328 -298 343 -281 q 277 -315 313 -315 q 221 -293 243 -315 q 199 -248 199 -271 q 222 -195 199 -220 q 265 -170 245 -170 m 461 -193 q 522 -211 494 -193 q 550 -271 550 -229 q 536 -318 550 -300 q 484 -337 522 -337 q 428 -316 450 -337 q 406 -271 406 -296 q 426 -210 406 -222 q 461 -193 447 -198 m 357 -355 q 414 -379 393 -355 q 435 -433 435 -402 q 419 -483 435 -467 q 368 -500 404 -500 q 313 -477 335 -500 q 290 -433 290 -455 q 315 -381 290 -407 q 357 -355 339 -355 m -18 134 q 33 133 7 134 q 96 132 58 132 q 269 138 179 132 q 427 149 359 143 q 368 249 427 220 q 277 288 322 268 q 233 253 252 267 q 196 239 215 239 q 131 271 147 239 q 115 339 115 302 q 157 424 115 397 q 260 450 199 450 q 451 342 372 450 q 565 206 529 235 q 630 171 600 178 q 699 164 660 164 l 734 164 q 812 146 787 164 q 838 65 838 129 q 821 -3 838 21 q 766 -27 804 -27 q 680 -7 758 -27 q 541 12 602 12 q 233 7 342 12 q 60 1 123 1 l -18 0 l -18 134 z "},"ﭽ":{"ha":854,"x_min":-20,"x_max":729,"o":"m 265 -170 q 322 -194 301 -170 q 343 -248 343 -218 q 328 -298 343 -281 q 277 -315 313 -315 q 221 -293 243 -315 q 199 -248 199 -271 q 222 -195 199 -220 q 265 -170 245 -170 m 461 -193 q 522 -211 494 -193 q 550 -271 550 -229 q 536 -318 550 -300 q 484 -337 522 -337 q 428 -316 450 -337 q 406 -271 406 -296 q 426 -210 406 -222 q 461 -193 447 -198 m 357 -355 q 414 -379 393 -355 q 435 -433 435 -402 q 419 -483 435 -467 q 368 -500 404 -500 q 313 -477 335 -500 q 290 -433 290 -455 q 315 -381 290 -407 q 357 -355 339 -355 m -20 134 l 33 132 q 193 137 117 132 q 340 149 269 142 q 282 249 340 220 q 191 288 236 268 q 156 257 176 275 q 111 239 136 239 q 44 269 60 239 q 29 339 29 300 q 71 424 29 397 q 174 450 113 450 q 369 340 289 450 q 491 197 449 231 q 601 151 533 163 q 729 134 668 139 l 729 0 l 685 0 q 598 6 676 0 q 456 12 521 12 q 178 7 260 12 q 29 1 97 1 l -20 0 l -20 134 z "},"ﮊ":{"ha":420,"x_min":45,"x_max":416,"o":"m 299 872 q 150 871 216 883 l 150 1005 q 222 1013 165 1012 q 299 1008 275 1013 l 299 872 m 416 819 q 405 678 412 819 q 231 692 355 690 q 51 684 106 694 l 45 823 q 230 834 100 834 q 416 819 372 834 m 403 133 q 247 -257 403 -90 l 151 -180 q 278 157 278 -15 q 228 372 278 235 l 159 558 l 270 614 l 346 400 q 403 133 403 240 z "},"ﮋ":{"ha":492,"x_min":45,"x_max":511,"o":"m 299 871 q 150 871 216 882 l 150 1004 q 222 1012 165 1011 q 299 1008 275 1012 l 299 871 m 416 819 q 405 677 412 819 q 231 691 355 689 q 51 683 106 693 l 45 822 q 230 833 100 833 q 416 819 372 833 m 511 0 l 456 0 q 387 31 420 0 q 240 -257 357 -132 l 144 -180 q 271 157 271 -15 q 221 372 271 235 l 153 558 l 263 614 l 400 222 q 482 123 435 123 l 511 123 l 511 0 z "},"ﮎ":{"ha":1110,"x_min":102,"x_max":1106,"o":"m 1105 203 q 1106 179 1106 191 q 1067 56 1106 108 q 962 0 1026 0 l 406 0 q 195 77 282 0 q 102 286 102 158 q 244 608 102 440 l 332 524 q 227 307 227 403 q 274 178 227 233 q 387 123 322 123 l 918 123 q 988 197 988 123 q 987 214 988 206 l 964 391 q 853 494 954 463 q 760 503 831 500 q 676 500 694 504 q 652 498 663 498 q 585 576 585 498 q 589 615 585 594 l 600 673 q 648 756 608 718 q 735 807 685 791 q 898 822 785 822 q 1074 808 1013 822 l 1074 688 q 918 707 977 707 q 713 615 713 707 q 905 603 855 615 q 1078 429 1063 564 l 1105 203 z "},"ﮏ":{"ha":1196,"x_min":102,"x_max":1217,"o":"m 1217 0 l 1147 0 q 1062 48 1102 0 q 962 0 1021 0 l 406 0 q 195 77 282 0 q 102 286 102 158 q 244 608 102 440 l 332 524 q 227 307 227 403 q 274 178 227 233 q 387 123 322 123 l 918 123 q 988 197 988 123 q 987 214 988 206 l 964 391 q 853 494 954 463 q 760 503 831 500 q 676 500 694 504 q 652 498 663 498 q 585 576 585 498 q 589 615 585 594 l 600 673 q 648 756 608 718 q 735 807 685 791 q 898 822 785 822 q 1074 808 1013 822 l 1074 688 q 918 707 977 707 q 713 615 713 707 q 905 603 855 615 q 1078 429 1063 564 l 1102 225 q 1172 123 1114 123 l 1217 123 l 1217 0 z "},"ﮐ":{"ha":580,"x_min":-20,"x_max":581,"o":"m 580 203 q 581 179 581 191 q 543 56 581 108 q 437 0 501 0 l -20 0 l -20 123 l 393 123 q 463 197 463 123 q 462 214 463 206 l 439 391 q 328 494 429 463 q 235 503 306 500 q 151 500 169 504 q 127 498 138 498 q 60 576 60 498 q 64 615 60 594 l 75 673 q 123 756 83 718 q 210 807 160 791 q 373 822 260 822 q 549 808 488 822 l 549 688 q 393 707 452 707 q 189 615 189 707 q 380 603 330 615 q 553 429 538 564 l 580 203 z "},"ﮑ":{"ha":687,"x_min":-20,"x_max":707,"o":"m 707 0 l 623 0 q 537 48 577 0 q 437 0 496 0 l -20 0 l -20 123 l 393 123 q 463 197 463 123 q 462 214 463 206 l 439 391 q 328 494 429 463 q 235 503 306 500 q 151 500 169 504 q 127 498 138 498 q 60 576 60 498 q 64 615 60 594 l 75 673 q 123 756 83 718 q 210 807 160 791 q 373 822 260 822 q 549 808 488 822 l 549 688 q 393 707 452 707 q 189 615 189 707 q 380 603 330 615 q 553 429 538 564 l 577 225 q 647 123 589 123 l 707 123 l 707 0 z "},"ﮒ":{"ha":1110,"x_min":102,"x_max":1106,"o":"m 1105 203 q 1106 179 1106 191 q 1067 56 1106 108 q 962 0 1026 0 l 406 0 q 195 77 282 0 q 102 286 102 158 q 244 608 102 440 l 332 524 q 227 307 227 403 q 274 178 227 233 q 387 123 322 123 l 918 123 q 988 197 988 123 q 987 214 988 206 l 964 391 q 853 494 954 463 q 760 503 831 500 q 676 500 694 504 q 652 498 663 498 q 585 576 585 498 q 589 615 585 594 l 600 673 q 648 756 608 718 q 735 807 685 791 q 898 822 785 822 q 1074 808 1013 822 l 1074 688 q 918 707 977 707 q 713 615 713 707 q 905 603 855 615 q 1078 429 1063 564 l 1105 203 z "},"ﮓ":{"ha":1196,"x_min":102,"x_max":1217,"o":"m 1217 0 l 1147 0 q 1062 48 1102 0 q 962 0 1021 0 l 406 0 q 195 77 282 0 q 102 286 102 158 q 244 608 102 440 l 332 524 q 227 307 227 403 q 274 178 227 233 q 387 123 322 123 l 918 123 q 988 197 988 123 q 987 214 988 206 l 964 391 q 853 494 954 463 q 760 503 831 500 q 676 500 694 504 q 652 498 663 498 q 585 576 585 498 q 589 615 585 594 l 600 673 q 648 756 608 718 q 735 807 685 791 q 898 822 785 822 q 1074 808 1013 822 l 1074 688 q 918 707 977 707 q 713 615 713 707 q 905 603 855 615 q 1078 429 1063 564 l 1102 225 q 1172 123 1114 123 l 1217 123 l 1217 0 z "},"ﮔ":{"ha":580,"x_min":-20,"x_max":581,"o":"m 580 203 q 581 179 581 191 q 543 56 581 108 q 437 0 501 0 l -20 0 l -20 123 l 393 123 q 463 197 463 123 q 462 214 463 206 l 439 391 q 328 494 429 463 q 235 503 306 500 q 151 500 169 504 q 127 498 138 498 q 60 576 60 498 q 64 615 60 594 l 75 673 q 123 756 83 718 q 210 807 160 791 q 373 822 260 822 q 549 808 488 822 l 549 688 q 393 707 452 707 q 189 615 189 707 q 380 603 330 615 q 553 429 538 564 l 580 203 z "},"ﮕ":{"ha":1548,"x_min":35,"x_max":1565,"o":"m 1565 0 l 1497 0 q 1463 -30 1480 -22 q 1423 -37 1446 -37 q 1370 -27 1392 -37 q 1335 0 1348 -16 l 218 0 q 178 -42 214 0 q 118 -84 142 -84 q 65 -62 82 -84 q 52 -11 58 -36 q 35 61 35 16 q 46 113 35 92 q 86 134 58 134 l 1297 134 l 1379 134 q 1353 226 1379 196 q 1297 256 1326 256 l 378 256 q 206 292 278 256 q 134 411 134 328 q 266 629 134 514 q 541 745 399 745 q 642 721 610 745 q 675 633 675 697 q 662 581 675 595 q 607 567 650 567 q 537 592 562 567 q 489 618 511 618 q 362 543 458 618 q 267 411 267 468 q 317 374 267 382 q 519 367 367 367 l 757 367 l 1320 367 q 1469 291 1418 367 q 1520 134 1520 215 l 1565 134 l 1565 0 z "},"ﯼ":{"ha":842,"x_min":102,"x_max":842,"o":"m 842 488 l 699 488 q 642 461 665 488 q 623 413 623 439 q 677 317 623 370 q 777 219 773 223 q 830 77 830 153 q 687 -137 830 -61 q 395 -201 566 -201 q 102 25 102 -201 q 161 256 102 119 q 260 442 205 361 l 368 378 q 229 45 229 165 q 285 -63 229 -35 q 407 -82 323 -82 q 697 79 697 -82 q 645 178 697 125 q 549 276 597 227 q 496 411 496 340 q 562 556 496 495 q 708 615 625 615 l 842 615 l 842 488 z "},"ﯽ":{"ha":856,"x_min":101,"x_max":876,"o":"m 876 0 l 749 0 q 774 -66 774 -47 q 675 -203 774 -148 q 420 -259 575 -259 q 101 -18 101 -259 q 199 267 101 68 q 353 530 282 435 l 456 464 q 321 235 389 366 q 238 9 238 73 q 300 -116 238 -81 q 447 -142 346 -142 q 563 -123 506 -142 q 637 -59 637 -100 q 612 -18 637 -35 q 556 0 587 0 l 556 123 l 876 123 l 876 0 z "},"ﱞ":{"ha":407,"x_min":-57,"x_max":299,"o":"m 241 1585 q 166 1416 241 1488 q 3 1348 94 1348 q -1 1403 3 1352 l 19 1406 q 24 1444 24 1430 q 7 1470 24 1470 q -41 1447 -7 1470 l -57 1491 q 15 1522 -23 1522 q 52 1507 40 1522 q 60 1412 74 1479 q 138 1460 106 1424 q 60 1531 60 1482 q 106 1662 60 1597 q 173 1720 148 1720 q 241 1585 241 1720 m 299 1230 q 215 1105 298 1105 q 143 1139 168 1105 q 62 1069 117 1069 q -11 1100 16 1069 q -37 1179 -37 1131 q -28 1264 -37 1224 l 28 1251 q 22 1194 22 1219 q 62 1132 22 1132 q 104 1191 104 1132 q 89 1291 104 1223 q 147 1303 111 1295 q 169 1202 159 1227 q 213 1170 183 1170 q 244 1208 244 1170 q 207 1330 244 1251 l 259 1357 q 299 1230 299 1274 m 195 1592 q 170 1664 195 1664 q 135 1622 158 1664 q 111 1550 111 1579 q 173 1507 111 1517 q 195 1592 195 1535 z "},"ﱟ":{"ha":0,"x_min":-9,"x_max":396,"o":"m 371 1022 l 322 925 l -9 879 l 31 971 l 371 1022 m 396 1145 l 349 1047 l 17 1002 l 57 1093 l 396 1145 m 193 1272 q 215 1321 214 1272 q 224 1388 216 1371 l 228 1396 l 236 1393 q 264 1363 254 1388 q 273 1308 273 1339 q 260 1236 273 1268 q 218 1185 248 1203 q 201 1182 207 1182 q 174 1192 186 1182 q 127 1151 155 1166 q 71 1135 100 1135 q 46 1139 58 1135 q 12 1179 24 1153 q 0 1235 0 1204 q 29 1307 0 1286 l 37 1315 l 45 1305 q 63 1257 58 1287 q 77 1226 68 1226 q 87 1231 81 1226 q 128 1283 118 1236 q 165 1336 138 1331 q 188 1304 178 1326 q 193 1272 197 1282 z "},"ﱠ":{"ha":407,"x_min":-64,"x_max":313,"o":"m 298 1526 q -29 1323 148 1470 l -64 1373 q 273 1584 104 1514 l 298 1526 m 313 1230 q 229 1105 312 1105 q 157 1139 182 1105 q 75 1069 131 1069 q 3 1100 29 1069 q -24 1179 -24 1131 q -14 1264 -24 1224 l 42 1251 q 35 1194 35 1219 q 75 1132 35 1132 q 118 1191 118 1132 q 102 1291 118 1223 q 161 1303 125 1295 q 182 1202 172 1227 q 227 1170 197 1170 q 258 1208 258 1170 q 220 1330 258 1251 l 273 1357 q 313 1230 313 1274 z "},"ﱡ":{"ha":407,"x_min":-31,"x_max":305,"o":"m 254 1577 q 179 1409 254 1480 q 16 1340 106 1340 q 12 1395 16 1344 q 151 1453 104 1400 q 73 1524 73 1474 q 119 1655 73 1590 q 186 1712 161 1712 q 254 1577 254 1712 m 305 1230 q 221 1105 304 1105 q 149 1139 174 1105 q 68 1069 123 1069 q -5 1100 22 1069 q -31 1179 -31 1131 q -22 1264 -31 1224 l 35 1251 q 28 1194 28 1219 q 68 1132 28 1132 q 111 1191 111 1132 q 95 1291 111 1223 q 153 1303 117 1295 q 175 1202 165 1227 q 219 1170 189 1170 q 250 1208 250 1170 q 213 1330 250 1251 l 265 1357 q 305 1230 305 1274 m 208 1585 q 182 1656 208 1656 q 148 1615 171 1656 q 124 1542 124 1571 q 186 1499 124 1510 q 208 1585 208 1528 z "},"ﱢ":{"ha":0,"x_min":0,"x_max":379,"o":"m 379 1022 l 332 925 l 0 879 l 40 971 l 379 1022 m 218 1139 q 240 1188 239 1139 q 249 1254 241 1238 l 252 1263 l 260 1260 q 288 1231 278 1254 q 298 1175 298 1207 q 284 1103 298 1137 q 241 1051 269 1068 q 225 1048 231 1048 q 199 1059 211 1048 q 153 1018 180 1034 q 96 1002 125 1002 q 69 1006 82 1002 q 36 1045 47 1019 q 24 1101 24 1071 q 53 1174 24 1153 l 62 1182 l 68 1173 q 88 1123 83 1153 q 102 1093 93 1093 q 113 1097 106 1093 q 153 1150 143 1103 q 191 1203 163 1197 q 213 1171 203 1192 q 218 1139 222 1150 z "},"ﳲ":{"ha":400,"x_min":-20,"x_max":422,"o":"m 359 1153 q 32 950 209 1097 l -3 1000 q 334 1211 165 1141 l 359 1153 m 374 857 q 290 732 373 732 q 218 766 243 732 q 136 696 192 696 q 64 727 90 696 q 37 806 37 758 q 47 891 37 851 l 103 878 q 96 821 96 846 q 136 759 96 759 q 179 818 179 759 q 163 918 179 850 q 222 930 186 922 q 243 829 233 854 q 288 797 258 797 q 319 835 319 797 q 281 957 319 878 l 334 984 q 374 857 374 901 m 422 0 l -20 0 l -20 123 l 422 123 l 422 0 z "},"ﳳ":{"ha":400,"x_min":-20,"x_max":422,"o":"m 422 0 l -20 0 l -20 123 l 422 123 l 422 0 m 318 1204 q 243 1036 318 1107 q 80 967 170 967 q 76 1022 80 971 q 215 1080 168 1027 q 136 1151 136 1101 q 183 1282 136 1217 q 250 1339 224 1339 q 318 1204 318 1339 m 369 857 q 285 732 368 732 q 213 766 238 732 q 132 696 187 696 q 59 727 85 696 q 33 806 33 758 q 42 891 33 851 l 98 878 q 92 821 92 846 q 132 759 92 759 q 174 818 174 759 q 159 918 174 850 q 217 930 181 922 q 239 829 229 854 q 283 797 253 797 q 314 835 314 797 q 277 957 314 878 l 329 984 q 369 857 369 901 m 272 1212 q 246 1283 272 1283 q 212 1242 235 1283 q 188 1169 188 1198 q 250 1126 188 1137 q 272 1212 272 1155 z "},"ﳴ":{"ha":400,"x_min":-20,"x_max":422,"o":"m 422 0 l -20 0 l -20 123 l 422 123 l 422 0 m 353 1067 q 269 942 353 942 q 197 977 222 942 q 116 906 172 906 q 43 937 70 906 q 17 1017 17 968 q 26 1101 17 1061 l 83 1088 q 76 1031 76 1057 q 116 969 76 969 q 159 1028 159 969 q 143 1128 159 1060 q 201 1140 165 1132 q 223 1040 213 1064 q 267 1007 237 1007 q 298 1045 298 1007 q 261 1167 298 1088 l 313 1194 q 353 1067 353 1111 m 393 868 q 66 665 243 812 l 31 715 q 368 926 199 857 l 393 868 z "},"ﴼ":{"ha":510,"x_min":92,"x_max":530,"o":"m 530 0 l 391 0 q 249 70 304 0 q 193 257 193 140 q 224 568 193 395 q 304 877 254 743 l 425 839 q 351 545 380 728 q 323 267 323 380 q 355 149 323 182 q 438 123 381 123 l 530 123 l 530 0 m 454 1161 q 127 958 304 1105 l 92 1008 q 429 1219 260 1149 l 454 1161 m 481 1039 q 154 836 331 983 l 119 886 q 456 1097 287 1027 l 481 1039 z "},"ﴽ":{"ha":510,"x_min":92,"x_max":494,"o":"m 454 1161 q 127 958 304 1105 l 92 1008 q 429 1219 260 1149 l 454 1161 m 481 1039 q 154 836 331 983 l 119 886 q 456 1097 287 1027 l 481 1039 m 490 0 l 371 0 q 374 75 374 31 q 340 485 374 237 q 269 856 307 728 l 397 880 q 458 536 430 743 q 494 104 494 281 q 490 0 494 47 z "},"﴾":{"ha":500,"x_min":35,"x_max":444,"o":"m 35 349 q 125 16 35 136 q 316 -150 215 -104 q 444 -195 416 -195 q 360 -143 428 -195 q 231 31 292 -90 q 171 351 171 151 q 231 669 171 549 q 360 842 292 789 q 444 896 429 896 q 316 851 415 896 q 125 684 216 806 q 35 349 35 562 z "},"﴿":{"ha":500,"x_min":32,"x_max":441,"o":"m 441 349 q 351 16 441 136 q 160 -150 261 -104 q 32 -195 60 -195 q 117 -143 49 -195 q 245 31 184 -90 q 306 351 306 151 q 245 669 306 549 q 116 842 184 789 q 32 896 47 896 q 160 851 61 896 q 351 684 260 806 q 441 349 441 562 z "},"ﷲ":{"ha":1000,"x_min":32,"x_max":958,"o":"m 958 254 q 930 44 958 149 q 822 -60 901 -60 q 784 -30 811 -60 q 739 0 757 0 l 650 0 l 650 134 l 772 134 q 807 123 790 134 q 833 106 823 113 q 841 229 838 161 q 844 354 844 296 q 832 478 844 424 q 813 561 819 532 q 766 657 807 590 q 725 777 725 725 q 762 862 725 827 q 838 897 799 897 q 887 862 863 897 q 911 783 911 827 q 907 743 911 768 q 905 707 904 717 q 921 551 905 637 q 940 434 936 465 q 951 351 945 403 q 958 254 958 300 m 421 134 l 566 134 q 610 149 587 140 q 632 175 632 158 q 603 421 616 302 q 581 590 589 541 q 533 690 572 639 q 493 804 493 742 q 530 890 493 854 q 607 925 567 925 q 656 890 633 925 q 679 811 679 854 q 676 770 679 800 q 673 733 673 739 q 691 578 673 665 q 716 434 708 492 q 729 260 724 376 q 741 136 734 144 q 760 134 745 135 q 791 134 775 134 q 820 134 814 134 q 835 134 825 134 l 835 0 l 713 0 q 661 -93 700 -43 q 578 -159 623 -144 q 594 -88 578 -133 q 615 0 610 -43 l 421 0 l 421 134 m 532 0 l 557 -1 q 535 -1 550 -1 q 496 -1 519 -1 q 385 -46 425 -1 q 252 -90 345 -90 q 286 -45 257 -73 q 321 -1 314 -16 q 297 0 310 0 q 277 0 283 0 q 213 -1 225 0 q 193 -4 201 -1 q 85 36 139 4 q 32 191 32 68 q 119 354 32 304 q 323 410 221 382 q 323 449 329 422 q 309 492 317 476 q 267 531 301 509 q 232 574 232 553 q 260 641 232 627 q 330 654 288 654 q 411 614 379 654 q 443 507 443 574 q 442 420 443 464 q 441 330 441 376 q 441 239 441 285 q 453 134 444 168 l 532 134 l 532 0 m 171 170 q 192 143 171 150 q 245 136 214 136 q 288 138 278 138 q 347 182 347 138 l 345 205 l 338 271 q 307 296 338 296 q 248 281 282 296 q 198 253 214 267 q 177 218 183 240 q 171 170 171 196 m 396 904 q 389 920 393 916 q 379 932 385 925 q 390 966 378 951 q 418 981 403 981 q 433 970 428 981 q 436 956 437 960 q 430 932 432 943 q 428 909 428 921 q 433 840 428 882 q 439 777 439 799 q 419 726 439 758 q 366 684 400 693 q 391 722 385 710 q 401 748 397 733 q 404 789 404 764 q 403 811 403 803 l 403 825 l 396 904 m 668 1069 q 685 1108 684 1069 q 692 1161 686 1147 l 694 1168 l 701 1165 q 724 1142 715 1161 q 732 1099 732 1122 q 720 1040 732 1068 q 686 999 708 1013 q 653 1004 667 993 q 615 971 637 985 q 570 958 593 958 q 545 965 559 958 q 522 992 530 972 q 513 1036 513 1011 q 536 1097 513 1078 l 543 1103 l 547 1096 q 564 1054 558 1080 q 583 1036 570 1028 q 616 1078 608 1040 q 646 1120 624 1116 q 662 1094 654 1111 q 668 1069 669 1078 z "},"ﹰ":{"ha":407,"x_min":-58,"x_max":332,"o":"m 305 1377 q -22 1174 155 1321 l -58 1224 q 280 1434 111 1365 l 305 1377 m 332 1255 q 5 1052 182 1199 l -31 1102 q 307 1312 138 1243 l 332 1255 z "},"ﹱ":{"ha":400,"x_min":-20,"x_max":422,"o":"m 359 890 q 32 687 209 834 l -3 737 q 334 947 165 878 l 359 890 m 387 768 q 59 565 236 712 l 24 615 q 361 825 192 756 l 387 768 m 422 0 l -20 0 l -20 123 l 422 123 l 422 0 z "},"ﹲ":{"ha":407,"x_min":-50,"x_max":248,"o":"m 248 1307 q 173 1138 248 1210 q 10 1069 100 1069 q 6 1125 10 1074 l 26 1128 q 31 1166 31 1152 q 14 1192 31 1192 q -35 1169 -1 1192 l -50 1213 q 22 1244 -16 1244 q 59 1229 47 1244 q 66 1134 81 1201 q 145 1182 113 1146 q 66 1253 66 1204 q 113 1384 66 1319 q 180 1442 155 1442 q 248 1307 248 1442 m 202 1314 q 176 1385 202 1385 q 142 1344 165 1385 q 118 1272 118 1301 q 180 1229 118 1239 q 202 1314 202 1257 z "},"ﹴ":{"ha":407,"x_min":108,"x_max":498,"o":"m 471 -475 q 143 -677 320 -530 l 108 -627 q 446 -417 276 -486 l 471 -475 m 498 -597 q 170 -800 347 -652 l 135 -749 q 473 -539 303 -608 l 498 -597 z "},"ﹶ":{"ha":407,"x_min":-31,"x_max":332,"o":"m 332 1255 q 5 1052 182 1199 l -31 1102 q 307 1312 138 1243 l 332 1255 z "},"ﹷ":{"ha":400,"x_min":-20,"x_max":422,"o":"m 422 0 l -20 0 l -20 123 l 422 123 l 422 0 m 380 871 q 52 668 229 815 l 17 718 q 355 928 185 859 l 380 871 z "},"ﹸ":{"ha":407,"x_min":6,"x_max":248,"o":"m 248 1306 q 173 1137 248 1209 q 10 1069 100 1069 q 6 1124 10 1073 q 145 1181 98 1129 q 66 1253 66 1203 q 113 1383 66 1318 q 180 1441 155 1441 q 248 1306 248 1441 m 202 1314 q 176 1385 202 1385 q 142 1343 165 1385 q 118 1271 118 1300 q 180 1228 118 1238 q 202 1314 202 1257 z "},"ﹹ":{"ha":400,"x_min":-20,"x_max":422,"o":"m 302 802 q 227 633 302 705 q 64 564 155 564 q 60 619 64 568 q 199 677 152 625 q 139 703 155 689 q 121 748 121 719 q 168 879 121 814 q 234 937 209 937 q 302 802 302 937 m 256 809 q 231 880 256 880 q 196 839 219 880 q 172 766 172 795 q 234 724 172 734 q 256 809 256 752 m 422 0 l -20 0 l -20 123 l 422 123 l 422 0 z "},"ﹺ":{"ha":407,"x_min":108,"x_max":471,"o":"m 471 -495 q 143 -698 320 -551 l 108 -648 q 446 -437 276 -507 l 471 -495 z "},"ﹻ":{"ha":400,"x_min":-20,"x_max":422,"o":"m 369 -271 q 41 -474 218 -327 l 6 -424 q 344 -214 174 -283 l 369 -271 m 422 0 l -20 0 l -20 123 l 422 123 l 422 0 z "},"ﹼ":{"ha":407,"x_min":-29,"x_max":323,"o":"m 323 1190 q 300 1109 323 1143 q 230 1071 275 1071 q 158 1105 195 1071 q 77 1069 132 1068 q 2 1110 34 1069 q -29 1200 -29 1152 q -20 1298 -29 1244 l 37 1285 q 28 1224 28 1258 q 77 1132 28 1132 q 116 1178 116 1132 q 100 1282 116 1192 q 162 1289 124 1284 q 179 1179 178 1180 q 228 1136 191 1136 q 257 1172 257 1136 q 222 1289 257 1214 l 274 1316 q 323 1190 323 1234 z "},"ﹽ":{"ha":400,"x_min":-20,"x_max":422,"o":"m 422 0 l -20 0 l -20 123 l 422 123 l 422 0 m 380 695 q 357 614 380 648 q 286 576 331 576 q 214 610 251 576 q 133 574 189 573 q 58 616 90 574 q 27 705 27 656 q 37 803 27 749 l 93 790 q 85 729 85 763 q 133 637 85 637 q 172 683 172 637 q 156 787 172 696 q 218 794 180 789 q 235 684 235 685 q 284 641 248 641 q 313 677 313 641 q 278 794 313 719 l 330 821 q 380 695 380 739 z "},"ﹾ":{"ha":407,"x_min":14,"x_max":265,"o":"m 265 1191 q 229 1103 265 1139 q 140 1067 192 1067 q 51 1103 87 1067 q 14 1191 14 1139 q 51 1280 14 1243 q 140 1316 87 1316 q 229 1280 192 1316 q 265 1191 265 1243 m 204 1192 q 185 1237 204 1218 q 140 1256 166 1256 q 94 1237 113 1256 q 75 1192 75 1218 q 94 1146 75 1165 q 140 1128 113 1128 q 185 1146 166 1128 q 204 1192 204 1165 z "},"ﹿ":{"ha":400,"x_min":-20,"x_max":422,"o":"m 422 0 l -20 0 l -20 123 l 422 123 l 422 0 m 326 735 q 289 647 326 683 q 200 611 252 611 q 111 647 148 611 q 75 735 75 683 q 111 824 75 787 q 200 861 148 861 q 289 824 252 861 q 326 735 326 787 m 264 736 q 245 781 264 762 q 200 800 227 800 q 155 781 174 800 q 136 736 136 762 q 155 691 136 709 q 200 672 174 672 q 245 691 227 672 q 264 736 264 709 z "},"ﺀ":{"ha":379,"x_min":39,"x_max":330,"o":"m 170 144 q 144 97 139 127 q 166 69 149 78 q 204 60 183 60 q 250 75 211 60 q 297 89 289 90 q 324 64 318 85 q 330 8 330 43 q 184 -59 297 -11 q 68 -104 71 -108 q 46 -68 54 -83 q 39 -41 39 -54 q 44 -23 39 -33 q 69 -5 50 -12 q 104 7 87 1 q 62 63 68 33 q 56 110 56 93 q 82 185 56 150 q 136 229 109 220 q 184 237 164 237 q 250 223 220 237 q 279 191 279 208 q 233 144 279 144 q 211 147 225 144 q 193 150 196 150 q 170 144 180 150 z "},"ﺁ":{"ha":304,"x_min":-106,"x_max":488,"o":"m 92 604 q 70 658 86 639 q 36 699 53 677 q 74 810 29 760 q 168 861 119 861 q 219 829 204 861 q 229 777 233 798 q 209 706 220 743 q 199 624 199 668 q 218 393 199 533 q 237 179 237 253 q 170 12 237 121 q -11 -129 102 -97 q 74 -9 50 -54 q 108 77 98 35 q 121 149 118 119 q 123 207 123 179 q 121 271 123 232 q 115 342 118 310 l 92 604 m 47 886 q 9 868 21 882 q -8 852 -3 854 q -77 876 -47 848 q -106 932 -106 903 q -87 963 -106 954 q -55 970 -68 971 q -9 956 -32 962 q 36 950 14 950 q 180 962 94 950 q 302 974 267 974 q 404 933 340 974 q 488 825 468 893 q 425 872 449 856 q 370 896 400 889 q 325 904 340 903 q 289 905 309 905 q 246 903 271 905 q 205 900 221 901 l 47 886 z "},"ﺂ":{"ha":362,"x_min":-106,"x_max":488,"o":"m 385 134 l 289 134 q 268 215 282 160 q 231 376 253 271 q 191 604 208 482 q 200 683 189 619 q 211 774 211 747 q 195 842 211 814 q 151 869 179 869 q 76 834 115 869 q 37 729 37 799 q 63 639 37 685 q 113 553 89 593 l 187 135 q 160 -33 187 22 q 110 -108 123 -81 l 117 -129 q 218 -58 182 -106 q 268 -3 254 -9 q 311 4 281 4 q 363 3 351 4 q 385 0 375 3 l 385 134 m 47 916 q 9 897 21 911 q -8 882 -3 884 q -77 905 -47 878 q -106 961 -106 932 q -87 992 -106 983 q -55 999 -68 1000 q -7 986 -32 991 q 36 981 17 981 q 191 992 96 981 q 302 1003 286 1003 q 404 963 340 1003 q 488 854 468 922 q 425 902 450 885 q 364 927 399 920 q 296 935 329 935 q 243 932 277 935 q 205 930 210 930 l 47 916 z "},"ﺃ":{"ha":301,"x_min":18,"x_max":286,"o":"m 120 1029 q 101 993 94 1017 q 119 971 105 979 q 146 962 133 962 q 182 975 152 962 q 218 986 212 987 q 239 967 234 983 q 243 925 243 951 q 131 872 218 909 q 41 839 44 835 q 23 872 28 857 q 23 899 18 888 q 42 915 28 909 q 68 924 56 920 q 35 967 41 946 q 30 1002 30 989 q 51 1061 30 1035 q 94 1095 71 1088 q 130 1101 116 1101 q 181 1091 159 1101 q 203 1065 203 1080 q 191 1035 203 1046 q 159 1031 178 1025 q 137 1035 142 1035 q 120 1029 127 1035 m 140 608 q 118 663 134 643 q 84 703 101 682 q 122 814 77 764 q 216 865 168 865 q 267 833 252 865 q 277 781 281 802 q 257 710 267 747 q 247 628 247 672 q 266 397 247 538 q 286 183 286 257 q 217 16 286 125 q 37 -125 149 -93 q 122 -5 98 -50 q 156 81 146 39 q 169 153 166 123 q 172 211 172 183 q 169 275 172 236 q 163 346 166 314 l 140 608 z "},"ﺄ":{"ha":362,"x_min":-50,"x_max":385,"o":"m 75 1099 q 56 1063 49 1086 q 68 1044 58 1051 q 102 1032 78 1036 q 149 1040 104 1032 q 201 1047 193 1047 q 227 1019 227 1047 q 198 995 227 999 q 142 981 170 990 q 83 954 114 971 q 30 921 52 936 q -9 893 8 907 q -40 926 -50 897 q -7 971 -29 951 q 24 993 16 990 q -9 1039 -4 1015 q -14 1069 -14 1063 q 6 1130 -14 1103 q 48 1164 26 1157 q 85 1171 71 1171 q 136 1160 114 1171 q 158 1135 158 1150 q 146 1105 158 1116 q 115 1100 134 1095 q 92 1104 94 1104 q 75 1099 82 1104 m 385 134 l 289 134 q 268 215 282 160 q 231 376 253 271 q 191 604 208 482 q 200 683 189 619 q 211 774 211 747 q 195 842 211 814 q 151 869 179 869 q 76 834 115 869 q 37 729 37 799 q 63 639 37 685 q 113 553 89 593 l 187 135 q 160 -33 187 22 q 110 -108 123 -81 l 117 -129 q 218 -58 182 -106 q 268 -3 254 -9 q 311 4 281 4 q 363 3 351 4 q 385 0 375 3 l 385 134 z "},"ﺅ":{"ha":555,"x_min":-621,"x_max":490,"o":"m 147 724 q 127 688 122 708 q 145 665 132 672 q 174 657 158 657 q 211 669 182 657 q 245 679 240 681 q 268 658 265 676 q 271 618 271 640 q 157 565 244 603 q 68 532 71 528 q 54 558 61 543 q 47 581 47 572 q 52 594 47 585 q 70 609 56 604 q 96 618 83 614 q 62 671 68 639 q 58 696 58 684 q 79 753 58 726 q 122 787 100 781 q 158 794 144 794 q 210 784 187 794 q 232 758 232 774 q 219 729 232 739 q 187 724 205 718 q 165 728 167 728 q 147 724 158 728 m -47 -376 q 231 -245 114 -353 q 349 8 349 -138 q 290 -2 332 8 q 235 -12 249 -12 q 179 -4 225 -12 q 110 48 132 4 q 87 179 87 92 q 150 376 87 314 q 279 439 212 439 q 432 335 374 439 q 490 83 490 231 q 322 -319 490 -155 q -54 -483 154 -483 q -229 -459 -129 -483 q -409 -359 -329 -436 q -536 -228 -490 -281 q -597 -128 -582 -174 q -616 -67 -612 -83 q -621 -48 -621 -52 q -610 -37 -621 -33 q -596 -53 -598 -39 q -593 -77 -594 -66 q -488 -209 -532 -169 q -367 -299 -444 -250 q -228 -365 -290 -349 q -108 -380 -166 -380 q -47 -376 -79 -380 m 257 293 q 215 250 227 293 q 207 191 208 200 q 227 144 204 170 q 271 121 250 118 q 326 140 313 126 q 339 175 339 154 q 338 196 338 191 q 315 258 338 220 q 257 293 293 297 z "},"ﺆ":{"ha":488,"x_min":-349,"x_max":509,"o":"m 121 618 q 102 582 96 603 q 118 559 104 567 q 147 551 131 551 q 198 558 155 550 q 248 566 240 566 q 272 538 272 566 q 231 510 272 517 q 148 482 189 504 q 72 435 106 460 q 36 412 39 411 q 3 435 3 416 l 5 446 q 36 486 14 465 q 69 513 58 507 q 37 555 43 532 q 31 590 31 578 q 51 649 31 623 q 94 682 72 675 q 131 689 117 689 q 182 679 160 689 q 204 653 204 668 q 192 623 204 633 q 160 618 179 612 q 138 623 143 623 q 121 618 129 623 m 243 214 q 231 186 231 203 q 249 150 231 167 q 294 132 267 132 q 315 134 306 132 q 323 154 323 136 q 303 207 323 192 q 267 221 282 221 q 243 214 254 221 m 509 0 l 439 0 q 316 -224 375 -138 q 165 -363 257 -311 q -65 -416 74 -416 q -158 -401 -125 -416 q -236 -343 -191 -386 q -306 -244 -280 -300 q -349 -45 -332 -189 l -342 -1 q -311 -53 -326 -9 q -269 -176 -296 -96 q -155 -307 -218 -292 q -49 -323 -92 -322 q 12 -325 -7 -323 q 210 -214 113 -325 q 307 4 307 -102 q 155 48 200 4 q 110 165 110 92 q 154 311 110 218 q 268 403 199 403 q 410 273 363 403 q 441 134 440 140 l 509 134 l 509 0 z "},"ﺇ":{"ha":292,"x_min":-11,"x_max":240,"o":"m 115 -237 q 96 -273 92 -248 q 114 -295 100 -288 q 143 -302 127 -302 q 178 -290 150 -302 q 214 -279 207 -277 q 235 -299 231 -283 q 240 -341 240 -315 q 130 -393 220 -354 q 37 -427 40 -431 q 19 -397 28 -412 q 18 -368 11 -382 q 38 -352 24 -357 q 65 -342 53 -347 q 31 -290 36 -319 q 26 -265 26 -277 q 47 -206 26 -233 q 90 -172 68 -179 q 126 -165 113 -165 q 176 -176 153 -165 q 200 -201 200 -187 q 187 -231 200 -220 q 155 -236 174 -241 q 135 -232 139 -232 q 115 -237 125 -232 m 92 648 q 70 703 86 684 q 36 743 53 722 q 74 855 29 804 q 168 905 119 905 q 219 873 204 905 q 229 821 233 842 q 209 750 220 787 q 199 668 199 713 q 218 437 199 578 q 237 224 237 297 q 170 57 237 165 q -11 -84 102 -52 q 74 35 50 -9 q 108 122 98 79 q 121 194 118 164 q 123 252 123 224 q 121 315 123 277 q 115 386 118 354 l 92 648 z "},"ﺈ":{"ha":362,"x_min":37,"x_max":385,"o":"m 229 -262 q 210 -298 205 -276 q 227 -321 214 -313 q 257 -329 240 -329 q 308 -322 265 -330 q 357 -315 350 -315 q 382 -342 382 -315 q 339 -370 382 -363 q 251 -400 296 -376 q 185 -439 207 -425 q 146 -468 164 -454 q 113 -446 113 -464 l 115 -435 q 146 -394 123 -415 q 179 -368 168 -373 q 146 -324 151 -347 q 140 -293 140 -301 q 160 -232 140 -259 q 203 -198 180 -205 q 239 -191 225 -191 q 290 -202 268 -191 q 313 -227 313 -212 q 300 -257 313 -247 q 269 -262 288 -268 q 245 -258 253 -258 q 229 -262 237 -258 m 385 134 l 289 134 q 268 215 282 160 q 231 376 253 271 q 191 604 208 482 q 200 683 189 619 q 211 774 211 747 q 195 842 211 814 q 151 869 179 869 q 76 834 115 869 q 37 729 37 799 q 63 639 37 685 q 113 553 89 593 l 187 135 q 160 -33 187 22 q 110 -108 123 -81 l 117 -129 q 218 -58 182 -106 q 268 -3 254 -9 q 311 4 281 4 q 363 3 351 4 q 385 0 375 3 l 385 134 z "},"ﺉ":{"ha":1387,"x_min":50,"x_max":1351,"o":"m 434 541 q 414 504 409 525 q 432 481 418 489 q 460 473 445 473 q 497 485 469 473 q 531 496 526 497 q 553 478 548 493 q 557 435 557 463 q 444 382 531 419 q 355 349 357 345 q 341 374 348 359 q 334 397 334 389 q 338 411 334 401 q 356 426 342 421 q 382 435 370 431 q 350 477 356 454 q 344 513 344 500 q 365 571 344 545 q 408 604 385 597 q 444 611 430 611 q 495 601 473 611 q 517 575 517 590 q 505 545 517 555 q 473 541 492 534 q 451 545 456 545 q 434 541 442 545 m 254 452 q 154 252 180 328 q 128 85 128 176 q 267 -194 128 -50 q 651 -338 405 -338 q 893 -257 785 -338 q 1065 -77 1001 -175 q 1128 47 1128 21 q 1076 142 1128 87 q 1023 227 1023 197 q 1122 318 1023 252 q 1233 385 1221 385 q 1294 343 1252 385 q 1351 277 1335 301 q 1328 244 1342 260 q 1286 225 1314 228 q 1266 251 1278 239 q 1240 264 1255 264 q 1204 227 1219 264 q 1242 170 1223 197 q 1265 69 1265 127 q 1142 -181 1265 -24 q 901 -402 1020 -338 q 670 -465 783 -465 q 277 -341 450 -465 q 80 -118 104 -216 q 53 1 56 -19 q 50 53 50 21 q 58 141 50 78 q 131 319 67 204 q 239 468 194 435 q 247 460 242 469 q 254 452 251 452 z "},"ﺊ":{"ha":1044,"x_min":-1059,"x_max":1095,"o":"m 149 460 q 129 424 122 447 q 144 402 132 408 q 175 393 155 396 q 223 401 178 393 q 275 408 268 408 q 300 380 300 408 q 271 355 300 359 q 215 341 243 351 q 156 314 187 332 q 103 282 125 297 q 64 254 82 268 q 31 277 31 258 l 33 288 q 65 329 41 307 q 97 354 89 351 q 64 398 69 376 q 58 432 58 419 q 79 492 58 465 q 122 525 100 518 q 158 532 144 532 q 210 522 187 532 q 232 496 232 511 q 219 466 232 476 q 187 461 207 456 q 165 465 171 465 q 149 460 155 465 m -1059 7 q -875 -305 -1005 -175 q -611 -466 -745 -435 q -377 -509 -476 -497 q -182 -521 -277 -521 q 370 -396 135 -521 q 637 -118 606 -272 q 669 43 669 36 q 658 101 669 69 q 627 164 647 132 q 616 178 616 172 q 655 198 616 191 q 715 205 693 205 q 744 138 729 168 q 784 83 760 107 q 851 38 808 58 q 929 8 893 18 q 1001 3 953 4 q 1092 0 1048 1 l 1095 134 q 1060 131 1083 132 q 1023 129 1036 129 q 928 137 958 129 q 877 163 899 144 q 820 260 854 182 q 761 344 785 338 q 725 350 737 350 q 567 298 669 350 q 460 225 464 245 q 503 137 453 201 q 553 39 553 72 q 535 -84 553 31 q 291 -309 517 -199 q -229 -418 65 -418 q -425 -404 -330 -418 q -626 -356 -519 -390 q -871 -213 -733 -322 q -1059 7 -1009 -104 z "},"ﺋ":{"ha":355,"x_min":-18,"x_max":309,"o":"m 147 599 q 127 562 122 583 q 145 539 132 547 q 174 532 158 532 q 211 544 182 532 q 245 554 240 555 q 268 533 265 551 q 271 493 271 515 q 157 440 244 478 q 68 407 71 403 q 54 432 61 418 q 47 456 47 447 q 52 470 47 460 q 70 484 56 479 q 96 493 83 489 q 62 546 68 514 q 58 571 58 558 q 79 629 58 602 q 122 663 100 656 q 158 669 144 669 q 210 659 187 669 q 232 633 232 648 q 219 603 232 614 q 187 599 205 593 q 165 603 167 603 q 147 599 158 603 m -18 134 l 75 134 q 138 133 132 134 q 204 117 144 132 q 208 129 207 122 q 210 144 210 135 q 205 167 210 160 q 196 181 200 174 q 160 189 192 189 q 113 211 132 189 q 93 262 93 233 q 119 322 93 293 q 191 351 146 351 q 267 290 225 351 q 309 138 309 229 q 285 23 309 72 q 227 -26 261 -26 q 179 -9 210 -19 q 60 0 149 0 l -18 0 l -18 134 z "},"ﺌ":{"ha":385,"x_min":-18,"x_max":410,"o":"m 192 667 q 233 653 215 667 q 252 616 252 639 q 247 588 252 606 q 232 571 241 571 q 224 590 229 571 q 209 619 220 608 q 179 629 197 629 q 133 612 155 629 q 111 585 111 595 q 146 542 111 554 q 215 529 182 529 q 243 530 220 529 q 278 532 267 532 q 290 531 285 532 q 293 528 296 530 q 251 502 271 511 q 203 480 232 492 q 121 439 175 468 q 79 422 100 431 q 95 451 78 432 q 132 488 113 469 q 125 489 131 488 q 104 501 119 490 q 80 525 86 511 q 74 555 74 538 q 79 589 74 567 q 96 628 83 611 q 135 656 109 646 q 192 667 161 667 m 410 0 l 272 0 q 252 -4 260 -4 q 215 27 236 -4 q 176 74 193 58 q 145 19 157 37 q 110 0 134 0 l -18 0 l -18 134 l 49 134 q 172 194 157 134 q 227 254 187 254 q 270 194 232 254 q 366 134 309 134 l 410 134 l 410 0 z "},"ﺍ":{"ha":287,"x_min":-11,"x_max":237,"o":"m 92 648 q 70 703 86 684 q 36 743 53 722 q 74 855 29 804 q 168 905 119 905 q 219 873 204 905 q 229 821 233 842 q 209 750 220 787 q 199 668 199 713 q 218 437 199 578 q 237 224 237 297 q 170 57 237 165 q -11 -84 102 -52 q 74 35 50 -9 q 108 122 98 79 q 121 194 118 164 q 123 252 123 224 q 121 315 123 277 q 115 386 118 354 l 92 648 z "},"ﺎ":{"ha":362,"x_min":37,"x_max":385,"o":"m 385 134 l 289 134 q 268 215 282 160 q 231 376 253 271 q 191 604 208 482 q 200 683 189 619 q 211 774 211 747 q 195 842 211 814 q 151 869 179 869 q 76 834 115 869 q 37 729 37 799 q 63 639 37 685 q 113 553 89 593 l 187 135 q 160 -33 187 22 q 110 -108 123 -81 l 117 -129 q 218 -58 182 -106 q 268 -3 254 -9 q 311 4 281 4 q 363 3 351 4 q 385 0 375 3 l 385 134 z "},"ﺏ":{"ha":1384,"x_min":43,"x_max":1303,"o":"m 43 346 q 71 519 43 460 q 163 679 100 579 q 211 764 178 708 q 289 829 244 819 q 171 619 220 724 q 122 412 122 514 q 232 157 122 235 q 515 79 342 79 q 765 119 602 79 q 1093 200 928 158 q 1137 198 1109 200 q 1173 196 1165 196 q 1219 233 1219 196 q 1124 299 1219 249 q 1029 387 1029 349 q 1054 454 1035 421 q 1143 488 1074 488 q 1260 421 1217 488 q 1303 267 1303 354 q 1253 155 1303 243 q 1188 62 1203 66 q 1167 58 1173 58 q 1161 58 1162 58 q 1132 62 1153 58 q 1096 66 1111 66 q 767 -12 928 22 q 503 -45 607 -45 q 172 59 301 -45 q 43 346 43 164 m 1029 -174 q 1049 -116 1029 -138 q 1104 -93 1069 -93 q 1159 -114 1140 -93 q 1178 -166 1178 -136 q 1156 -216 1178 -193 q 1096 -240 1133 -240 q 1029 -174 1029 -240 z "},"ﺐ":{"ha":1733,"x_min":37,"x_max":1760,"o":"m 1293 -151 q 1309 -99 1293 -127 q 1367 -71 1324 -71 q 1421 -92 1402 -71 q 1440 -144 1440 -113 q 1419 -195 1440 -172 q 1360 -218 1397 -218 q 1293 -151 1293 -218 m 1284 138 q 1365 208 1317 142 q 1451 273 1414 273 q 1490 242 1472 258 q 1538 192 1507 227 q 1624 145 1569 158 q 1729 132 1679 132 q 1747 132 1740 132 q 1760 134 1754 132 l 1760 0 q 1737 0 1750 0 q 1707 -1 1725 0 q 1670 -1 1687 -1 q 1643 4 1653 0 q 1575 17 1604 11 q 1516 37 1546 24 q 1462 74 1486 50 q 1426 102 1438 98 q 1349 48 1407 104 q 1234 -8 1291 -8 q 1047 -12 1179 -8 q 856 -16 914 -16 q 643 -12 732 -16 q 403 20 554 -7 q 144 120 252 46 q 37 349 37 195 q 48 460 37 379 q 139 648 58 541 q 248 770 225 743 q 306 839 271 798 q 404 897 361 897 q 232 690 302 793 q 147 508 161 587 q 132 395 132 429 q 179 253 132 300 q 283 192 225 207 q 450 155 340 176 q 649 129 559 134 q 850 123 739 123 q 1104 129 982 123 q 1284 138 1226 134 z "},"ﺑ":{"ha":386,"x_min":-18,"x_max":350,"o":"m -18 134 l 75 134 q 138 133 132 134 q 204 117 144 132 q 208 129 207 122 q 210 144 210 135 q 205 167 210 160 q 196 181 200 174 q 160 189 192 189 q 113 211 132 189 q 93 262 93 233 q 119 322 93 293 q 191 351 146 351 q 267 290 225 351 q 309 138 309 229 q 285 23 309 72 q 227 -26 261 -26 q 179 -9 210 -19 q 60 0 149 0 l -18 0 l -18 134 m 205 -194 q 227 -149 205 -170 q 283 -127 249 -127 q 336 -146 322 -127 q 350 -194 350 -165 q 322 -253 350 -235 q 261 -272 294 -272 q 223 -251 241 -265 q 205 -194 205 -236 z "},"ﺒ":{"ha":389,"x_min":-18,"x_max":410,"o":"m 410 0 l 272 0 q 252 -4 260 -4 q 215 27 236 -4 q 176 74 193 58 q 145 19 157 37 q 110 0 134 0 l -18 0 l -18 134 l 49 134 q 172 194 157 134 q 227 254 187 254 q 270 194 232 254 q 366 134 309 134 l 410 134 l 410 0 m 102 -165 q 123 -120 102 -141 q 179 -98 144 -98 q 230 -115 215 -98 q 245 -165 245 -132 q 225 -218 245 -194 q 168 -243 205 -243 q 125 -218 149 -243 q 102 -165 102 -193 z "},"ﺓ":{"ha":718,"x_min":12,"x_max":614,"o":"m 12 677 q 34 723 12 701 q 90 745 56 745 q 141 728 126 745 q 157 677 157 711 q 137 624 157 648 q 79 600 117 600 q 36 625 60 600 q 12 677 12 650 m 221 700 q 242 745 221 724 q 298 766 264 766 q 352 748 338 766 q 366 700 366 729 q 338 641 366 660 q 277 623 310 623 q 239 644 257 629 q 221 700 221 659 m 127 161 q 218 344 127 269 q 428 419 309 419 q 448 418 436 419 q 465 416 460 416 q 424 525 465 475 q 383 595 383 575 q 409 666 383 637 q 476 694 435 694 q 549 671 529 694 q 570 614 570 647 q 565 581 570 596 q 558 557 561 566 q 596 419 578 497 q 614 250 614 342 q 573 40 614 139 q 443 -115 533 -60 q 441 -93 441 -106 q 457 -31 441 -71 q 476 35 472 8 q 392 0 433 17 q 306 -16 350 -16 q 170 32 212 -16 q 127 161 127 81 m 272 149 q 301 108 278 122 q 354 94 323 94 q 425 110 389 94 q 478 149 461 126 q 499 194 494 171 q 504 245 504 216 q 485 308 500 296 q 453 321 469 321 q 369 296 418 321 q 302 239 321 271 q 276 188 283 208 q 272 149 269 168 z "},"ﺔ":{"ha":517,"x_min":-16,"x_max":562,"o":"m -16 757 q 6 811 -16 799 q 61 823 29 823 q 110 813 96 823 q 139 768 123 803 q 176 828 157 811 q 239 846 195 846 q 288 817 268 846 q 307 768 307 789 q 279 720 307 739 q 216 701 250 701 q 172 715 186 701 q 150 746 158 734 q 93 688 111 697 q 50 679 74 679 q 4 700 25 679 q -16 757 -16 721 m 538 0 l 562 -1 q 540 -1 555 -1 q 501 -1 525 -1 q 390 -46 431 -1 q 257 -90 350 -90 q 291 -45 262 -73 q 326 -1 319 -16 q 302 0 315 0 q 282 0 289 0 q 219 -1 231 0 q 199 -4 207 -1 q 91 36 144 4 q 37 191 37 68 q 125 354 37 304 q 329 410 227 382 q 329 449 335 422 q 315 492 322 476 q 272 531 307 509 q 237 574 237 553 q 265 641 237 627 q 336 654 293 654 q 417 614 385 654 q 449 507 449 574 q 448 420 449 464 q 447 330 447 376 q 447 239 447 285 q 458 134 450 168 l 538 134 l 538 0 m 176 170 q 198 143 176 150 q 252 136 220 136 q 293 138 283 138 q 353 182 353 138 l 350 205 l 343 271 q 313 296 343 296 q 254 281 288 296 q 204 253 220 267 q 183 218 189 240 q 176 170 176 196 z "},"ﺕ":{"ha":1379,"x_min":43,"x_max":1303,"o":"m 710 604 q 731 649 710 628 q 787 671 753 671 q 854 604 854 671 q 833 551 854 576 q 777 526 812 526 q 733 551 757 526 q 710 604 710 576 m 917 627 q 938 671 917 650 q 994 693 960 693 q 1047 674 1034 693 q 1061 627 1061 656 q 1034 567 1061 586 q 972 549 1006 549 q 935 570 953 555 q 917 627 917 585 m 43 346 q 71 519 43 460 q 163 679 100 579 q 211 764 178 708 q 289 829 244 819 q 171 619 220 724 q 122 412 122 514 q 232 157 122 235 q 515 79 342 79 q 765 119 602 79 q 1093 200 928 158 q 1137 198 1109 200 q 1173 196 1165 196 q 1219 233 1219 196 q 1124 299 1219 249 q 1029 387 1029 349 q 1054 454 1035 421 q 1143 488 1074 488 q 1260 421 1217 488 q 1303 267 1303 354 q 1253 155 1303 243 q 1188 62 1203 66 q 1167 58 1173 58 q 1161 58 1162 58 q 1132 62 1153 58 q 1096 66 1111 66 q 767 -12 928 22 q 503 -45 607 -45 q 172 59 301 -45 q 43 346 43 164 z "},"ﺖ":{"ha":1677,"x_min":37,"x_max":1760,"o":"m 811 559 q 826 612 811 583 q 885 640 842 640 q 940 620 921 640 q 960 567 960 599 q 938 517 960 541 q 878 493 916 493 q 811 559 811 493 m 1004 574 q 1024 633 1004 610 q 1078 656 1044 656 q 1133 634 1114 656 q 1152 582 1152 612 q 1130 530 1152 553 q 1071 507 1108 507 q 1004 574 1004 507 m 1284 138 q 1365 208 1317 142 q 1451 273 1414 273 q 1490 242 1472 258 q 1538 192 1507 227 q 1624 145 1569 158 q 1729 132 1679 132 q 1747 132 1740 132 q 1760 134 1754 132 l 1760 0 q 1737 0 1750 0 q 1707 -1 1725 0 q 1670 -1 1687 -1 q 1643 4 1653 0 q 1575 17 1604 11 q 1516 37 1546 24 q 1462 74 1486 50 q 1426 102 1438 98 q 1349 48 1407 104 q 1234 -8 1291 -8 q 1047 -12 1179 -8 q 856 -16 914 -16 q 643 -12 732 -16 q 403 20 554 -7 q 144 120 252 46 q 37 349 37 195 q 48 460 37 379 q 139 648 58 541 q 248 770 225 743 q 306 839 271 798 q 404 897 361 897 q 232 690 302 793 q 147 508 161 587 q 132 395 132 429 q 179 253 132 300 q 283 192 225 207 q 450 155 340 176 q 649 129 559 134 q 850 123 739 123 q 1104 129 982 123 q 1284 138 1226 134 z "},"ﺗ":{"ha":370,"x_min":-18,"x_max":328,"o":"m 183 546 q 205 592 183 571 q 261 612 228 612 q 313 594 298 612 q 328 546 328 575 q 300 487 328 505 q 239 468 273 468 q 201 489 220 475 q 183 546 183 504 m 16 538 q 37 583 16 561 q 93 604 58 604 q 160 538 160 604 q 139 485 160 510 q 82 460 118 460 q 39 485 62 460 q 16 538 16 510 m -18 134 l 75 134 q 138 133 132 134 q 204 117 144 132 q 208 129 207 122 q 210 144 210 135 q 205 167 210 160 q 196 181 200 174 q 160 189 192 189 q 113 211 132 189 q 93 262 93 233 q 119 322 93 293 q 191 351 146 351 q 267 290 225 351 q 309 138 309 229 q 285 23 309 72 q 227 -26 261 -26 q 179 -9 210 -19 q 60 0 149 0 l -18 0 l -18 134 z "},"ﺘ":{"ha":401,"x_min":-18,"x_max":410,"o":"m 410 0 l 272 0 q 252 -4 260 -4 q 215 27 236 -4 q 176 74 193 58 q 145 19 157 37 q 110 0 134 0 l -18 0 l -18 134 l 49 134 q 172 194 157 134 q 227 254 187 254 q 270 194 232 254 q 366 134 309 134 l 410 134 l 410 0 m 35 533 q 56 578 35 557 q 113 600 78 600 q 164 584 149 600 q 179 533 179 567 q 159 480 179 504 q 102 456 139 456 q 58 480 82 456 q 35 533 35 505 m 216 533 q 238 578 216 557 q 294 600 260 600 q 347 581 334 600 q 361 533 361 562 q 333 474 361 493 q 272 456 306 456 q 235 477 253 463 q 216 533 216 492 z "},"ﺙ":{"ha":1379,"x_min":43,"x_max":1303,"o":"m 793 775 q 814 820 793 799 q 871 842 836 842 q 937 775 937 842 q 917 722 937 747 q 860 697 896 697 q 817 722 840 697 q 793 775 793 747 m 710 604 q 731 649 710 628 q 787 671 753 671 q 854 604 854 671 q 833 551 854 576 q 777 526 812 526 q 733 551 757 526 q 710 604 710 576 m 917 627 q 938 671 917 650 q 994 693 960 693 q 1047 674 1034 693 q 1061 627 1061 656 q 1034 567 1061 586 q 972 549 1006 549 q 935 570 953 555 q 917 627 917 585 m 43 346 q 71 519 43 460 q 163 679 100 579 q 211 764 178 708 q 289 829 244 819 q 171 619 220 724 q 122 412 122 514 q 232 157 122 235 q 515 79 342 79 q 765 119 602 79 q 1093 200 928 158 q 1137 198 1109 200 q 1173 196 1165 196 q 1219 233 1219 196 q 1124 299 1219 249 q 1029 387 1029 349 q 1054 454 1035 421 q 1143 488 1074 488 q 1260 421 1217 488 q 1303 267 1303 354 q 1253 155 1303 243 q 1188 62 1203 66 q 1167 58 1173 58 q 1161 58 1162 58 q 1132 62 1153 58 q 1096 66 1111 66 q 767 -12 928 22 q 503 -45 607 -45 q 172 59 301 -45 q 43 346 43 164 z "},"ﺚ":{"ha":1711,"x_min":37,"x_max":1760,"o":"m 878 729 q 898 788 878 765 q 951 811 918 811 q 1007 790 987 811 q 1026 737 1026 770 q 1004 686 1026 710 q 945 663 982 663 q 878 729 878 663 m 811 559 q 826 612 811 583 q 885 640 842 640 q 940 620 921 640 q 960 567 960 599 q 938 517 960 541 q 878 493 916 493 q 811 559 811 493 m 1004 574 q 1024 633 1004 610 q 1078 656 1044 656 q 1133 634 1114 656 q 1152 582 1152 612 q 1130 530 1152 553 q 1071 507 1108 507 q 1004 574 1004 507 m 1284 138 q 1365 208 1317 142 q 1451 273 1414 273 q 1490 242 1472 258 q 1538 192 1507 227 q 1624 145 1569 158 q 1729 132 1679 132 q 1747 132 1740 132 q 1760 134 1754 132 l 1760 0 q 1737 0 1750 0 q 1707 -1 1725 0 q 1670 -1 1687 -1 q 1643 4 1653 0 q 1575 17 1604 11 q 1516 37 1546 24 q 1462 74 1486 50 q 1426 102 1438 98 q 1349 48 1407 104 q 1234 -8 1291 -8 q 1047 -12 1179 -8 q 856 -16 914 -16 q 643 -12 732 -16 q 403 20 554 -7 q 144 120 252 46 q 37 349 37 195 q 48 460 37 379 q 139 648 58 541 q 248 770 225 743 q 306 839 271 798 q 404 897 361 897 q 232 690 302 793 q 147 508 161 587 q 132 395 132 429 q 179 253 132 300 q 283 192 225 207 q 450 155 340 176 q 649 129 559 134 q 850 123 739 123 q 1104 129 982 123 q 1284 138 1226 134 z "},"ﺛ":{"ha":420,"x_min":-18,"x_max":350,"o":"m 90 724 q 112 769 90 747 q 168 790 134 790 q 219 773 204 790 q 235 724 235 757 q 215 670 235 694 q 157 646 195 646 q 114 671 138 646 q 90 724 90 696 m 205 561 q 227 606 205 585 q 283 628 249 628 q 336 609 322 628 q 350 561 350 590 q 322 502 350 521 q 261 484 294 484 q 223 505 241 490 q 205 561 205 519 m -18 134 l 75 134 q 138 133 132 134 q 204 117 144 132 q 208 129 207 122 q 210 144 210 135 q 205 167 210 160 q 196 181 200 174 q 160 189 192 189 q 113 211 132 189 q 93 262 93 233 q 119 322 93 293 q 191 351 146 351 q 267 290 225 351 q 309 138 309 229 q 285 23 309 72 q 227 -26 261 -26 q 179 -9 210 -19 q 60 0 149 0 l -18 0 l -18 134 m 104 538 q 126 583 104 561 q 182 604 147 604 q 249 538 249 604 q 228 485 249 510 q 171 460 207 460 q 128 485 151 460 q 104 538 104 510 z "},"ﺜ":{"ha":393,"x_min":-18,"x_max":410,"o":"m 113 710 q 134 755 113 733 q 191 777 155 777 q 242 760 227 777 q 257 710 257 743 q 237 656 257 681 q 179 632 216 632 q 136 657 160 632 q 113 710 113 682 m 410 0 l 272 0 q 252 -4 260 -4 q 215 27 236 -4 q 176 74 193 58 q 145 19 157 37 q 110 0 134 0 l -18 0 l -18 134 l 49 134 q 172 194 157 134 q 227 254 187 254 q 270 194 232 254 q 366 134 309 134 l 410 134 l 410 0 m 35 533 q 56 578 35 557 q 113 600 78 600 q 164 584 149 600 q 179 533 179 567 q 159 480 179 504 q 102 456 139 456 q 58 480 82 456 q 35 533 35 505 m 216 533 q 238 578 216 557 q 294 600 260 600 q 347 581 334 600 q 361 533 361 562 q 333 474 361 493 q 272 456 306 456 q 235 477 253 463 q 216 533 216 492 z "},"ﺝ":{"ha":1025,"x_min":48,"x_max":963,"o":"m 581 -195 q 596 -143 581 -172 q 655 -115 612 -115 q 710 -136 691 -115 q 728 -189 728 -158 q 707 -239 728 -216 q 648 -262 686 -262 q 581 -195 581 -262 m 640 135 q 602 239 640 211 q 507 273 565 267 q 449 240 474 252 q 409 228 425 228 q 367 242 378 228 q 355 279 355 256 q 358 308 355 292 q 368 358 362 323 q 408 422 374 393 q 503 452 441 452 q 637 368 580 452 q 706 245 671 307 q 791 166 735 210 q 887 134 848 123 q 920 138 906 138 q 954 126 944 138 q 963 92 963 114 q 940 18 963 58 q 895 -22 916 -22 q 853 -12 869 -22 q 756 -3 837 -3 q 468 -16 537 -3 q 260 -76 398 -29 q 188 -124 224 -93 q 152 -235 152 -155 q 192 -383 152 -297 q 321 -581 231 -469 l 284 -615 q 113 -410 177 -515 q 48 -226 48 -305 q 93 -78 48 -146 q 212 31 138 -9 q 388 96 286 72 q 640 135 490 121 z "},"ﺞ":{"ha":926,"x_min":48,"x_max":980,"o":"m 538 -239 q 560 -193 538 -215 q 616 -172 581 -172 q 683 -239 683 -172 q 662 -291 683 -267 q 605 -316 641 -316 q 562 -291 585 -316 q 538 -239 538 -267 m 640 135 q 602 239 640 211 q 507 273 565 267 q 449 240 474 252 q 409 228 425 228 q 367 242 378 228 q 355 279 355 256 q 358 308 355 292 q 368 358 362 323 q 408 422 374 393 q 503 452 441 452 q 637 368 580 452 q 706 245 671 307 q 738 211 722 227 q 788 174 753 196 q 840 142 823 153 q 884 132 858 132 q 909 132 895 132 q 939 134 923 132 q 971 110 963 134 q 980 62 980 86 q 971 17 980 35 q 943 0 962 0 q 868 -1 918 0 q 756 -3 819 -3 q 468 -16 537 -3 q 260 -76 398 -29 q 188 -124 224 -93 q 152 -235 152 -155 q 192 -383 152 -297 q 321 -581 231 -469 l 284 -615 q 113 -410 177 -515 q 48 -226 48 -305 q 93 -78 48 -146 q 212 31 138 -9 q 388 96 286 72 q 640 135 490 121 z "},"ﺟ":{"ha":892,"x_min":-18,"x_max":838,"o":"m 416 -165 q 438 -120 416 -141 q 494 -98 460 -98 q 561 -165 561 -98 q 540 -218 561 -193 q 484 -243 519 -243 q 440 -218 464 -243 q 416 -165 416 -193 m -18 134 q 33 133 7 134 q 96 132 58 132 q 269 138 179 132 q 427 149 359 143 q 368 249 427 220 q 277 288 322 268 q 233 253 252 267 q 196 239 215 239 q 131 271 147 239 q 115 339 115 302 q 157 424 115 397 q 260 450 199 450 q 451 342 372 450 q 565 206 529 235 q 630 171 600 178 q 699 164 660 164 l 734 164 q 812 146 787 164 q 838 65 838 129 q 821 -3 838 21 q 766 -27 804 -27 q 680 -7 758 -27 q 541 12 602 12 q 233 7 342 12 q 60 1 123 1 l -18 0 l -18 134 z "},"ﺠ":{"ha":711,"x_min":-20,"x_max":729,"o":"m 294 -172 q 316 -127 294 -149 q 372 -105 338 -105 q 425 -124 411 -105 q 439 -172 439 -142 q 411 -231 439 -212 q 350 -250 383 -250 q 312 -228 330 -243 q 294 -172 294 -214 m -20 134 l 33 132 q 193 137 117 132 q 340 149 269 142 q 282 249 340 220 q 191 288 236 268 q 156 257 176 275 q 111 239 136 239 q 44 269 60 239 q 29 339 29 300 q 71 424 29 397 q 174 450 113 450 q 369 340 289 450 q 491 197 449 231 q 601 151 533 163 q 729 134 668 139 l 729 0 l 685 0 q 598 6 676 0 q 456 12 521 12 q 178 7 260 12 q 29 1 97 1 l -20 0 l -20 134 z "},"ﺡ":{"ha":1025,"x_min":48,"x_max":963,"o":"m 640 135 q 602 239 640 211 q 507 273 565 267 q 449 240 474 252 q 409 228 425 228 q 367 242 378 228 q 355 279 355 256 q 358 308 355 292 q 368 358 362 323 q 408 422 374 393 q 503 452 441 452 q 637 368 580 452 q 706 245 671 307 q 791 166 735 210 q 887 134 848 123 q 920 138 906 138 q 954 126 944 138 q 963 92 963 114 q 940 18 963 58 q 895 -22 916 -22 q 853 -12 869 -22 q 756 -3 837 -3 q 468 -16 537 -3 q 260 -76 398 -29 q 188 -124 224 -93 q 152 -235 152 -155 q 192 -383 152 -297 q 321 -581 231 -469 l 284 -615 q 113 -410 177 -515 q 48 -226 48 -305 q 93 -78 48 -146 q 212 31 138 -9 q 388 96 286 72 q 640 135 490 121 z "},"ﺢ":{"ha":926,"x_min":48,"x_max":980,"o":"m 640 135 q 602 239 640 211 q 507 273 565 267 q 449 240 474 252 q 409 228 425 228 q 367 242 378 228 q 355 279 355 256 q 358 308 355 292 q 368 358 362 323 q 408 422 374 393 q 503 452 441 452 q 637 368 580 452 q 706 245 671 307 q 738 211 722 227 q 788 174 753 196 q 840 142 823 153 q 884 132 858 132 q 909 132 895 132 q 939 134 923 132 q 971 110 963 134 q 980 62 980 86 q 971 17 980 35 q 943 0 962 0 q 868 -1 918 0 q 756 -3 819 -3 q 468 -16 537 -3 q 260 -76 398 -29 q 188 -124 224 -93 q 152 -235 152 -155 q 192 -383 152 -297 q 321 -581 231 -469 l 284 -615 q 113 -410 177 -515 q 48 -226 48 -305 q 93 -78 48 -146 q 212 31 138 -9 q 388 96 286 72 q 640 135 490 121 z "},"ﺣ":{"ha":892,"x_min":-18,"x_max":838,"o":"m -18 134 q 33 133 7 134 q 96 132 58 132 q 269 138 179 132 q 427 149 359 143 q 368 249 427 220 q 277 288 322 268 q 233 253 252 267 q 196 239 215 239 q 131 271 147 239 q 115 339 115 302 q 157 424 115 397 q 260 450 199 450 q 451 342 372 450 q 565 206 529 235 q 630 171 600 178 q 699 164 660 164 l 734 164 q 812 146 787 164 q 838 65 838 129 q 821 -3 838 21 q 766 -27 804 -27 q 680 -7 758 -27 q 541 12 602 12 q 233 7 342 12 q 60 1 123 1 l -18 0 l -18 134 z "},"ﺤ":{"ha":711,"x_min":-20,"x_max":729,"o":"m -20 134 l 33 132 q 193 137 117 132 q 340 149 269 142 q 282 249 340 220 q 191 288 236 268 q 156 257 176 275 q 111 239 136 239 q 44 269 60 239 q 29 339 29 300 q 71 424 29 397 q 174 450 113 450 q 369 340 289 450 q 491 197 449 231 q 601 151 533 163 q 729 134 668 139 l 729 0 l 685 0 q 598 6 676 0 q 456 12 521 12 q 178 7 260 12 q 29 1 97 1 l -20 0 l -20 134 z "},"ﺥ":{"ha":1025,"x_min":48,"x_max":963,"o":"m 366 671 q 381 723 366 694 q 439 751 397 751 q 495 731 475 751 q 515 677 515 710 q 492 628 515 652 q 433 604 470 604 q 366 671 366 604 m 640 135 q 602 239 640 211 q 507 273 565 267 q 449 240 474 252 q 409 228 425 228 q 367 242 378 228 q 355 279 355 256 q 358 308 355 292 q 368 358 362 323 q 408 422 374 393 q 503 452 441 452 q 637 368 580 452 q 706 245 671 307 q 791 166 735 210 q 887 134 848 123 q 920 138 906 138 q 954 126 944 138 q 963 92 963 114 q 940 18 963 58 q 895 -22 916 -22 q 853 -12 869 -22 q 756 -3 837 -3 q 468 -16 537 -3 q 260 -76 398 -29 q 188 -124 224 -93 q 152 -235 152 -155 q 192 -383 152 -297 q 321 -581 231 -469 l 284 -615 q 113 -410 177 -515 q 48 -226 48 -305 q 93 -78 48 -146 q 212 31 138 -9 q 388 96 286 72 q 640 135 490 121 z "},"ﺦ":{"ha":926,"x_min":48,"x_max":980,"o":"m 405 635 q 427 680 405 659 q 483 701 448 701 q 549 635 549 701 q 529 582 549 607 q 471 557 508 557 q 429 582 452 557 q 405 635 405 607 m 640 135 q 602 239 640 211 q 507 273 565 267 q 449 240 474 252 q 409 228 425 228 q 367 242 378 228 q 355 279 355 256 q 358 308 355 292 q 368 358 362 323 q 408 422 374 393 q 503 452 441 452 q 637 368 580 452 q 706 245 671 307 q 738 211 722 227 q 788 174 753 196 q 840 142 823 153 q 884 132 858 132 q 909 132 895 132 q 939 134 923 132 q 971 110 963 134 q 980 62 980 86 q 971 17 980 35 q 943 0 962 0 q 868 -1 918 0 q 756 -3 819 -3 q 468 -16 537 -3 q 260 -76 398 -29 q 188 -124 224 -93 q 152 -235 152 -155 q 192 -383 152 -297 q 321 -581 231 -469 l 284 -615 q 113 -410 177 -515 q 48 -226 48 -305 q 93 -78 48 -146 q 212 31 138 -9 q 388 96 286 72 q 640 135 490 121 z "},"ﺧ":{"ha":892,"x_min":-18,"x_max":838,"o":"m 250 621 q 272 666 250 644 q 328 688 293 688 q 381 669 367 688 q 395 621 395 650 q 367 562 395 581 q 306 543 339 543 q 268 565 286 550 q 250 621 250 579 m -18 134 q 33 133 7 134 q 96 132 58 132 q 269 138 179 132 q 427 149 359 143 q 368 249 427 220 q 277 288 322 268 q 233 253 252 267 q 196 239 215 239 q 131 271 147 239 q 115 339 115 302 q 157 424 115 397 q 260 450 199 450 q 451 342 372 450 q 565 206 529 235 q 630 171 600 178 q 699 164 660 164 l 734 164 q 812 146 787 164 q 838 65 838 129 q 821 -3 838 21 q 766 -27 804 -27 q 680 -7 758 -27 q 541 12 602 12 q 233 7 342 12 q 60 1 123 1 l -18 0 l -18 134 z "},"ﺨ":{"ha":711,"x_min":-20,"x_max":729,"o":"m 176 650 q 198 695 176 673 q 254 717 220 717 q 307 698 293 717 q 321 650 321 679 q 293 591 321 610 q 232 572 265 572 q 194 594 212 579 q 176 650 176 608 m -20 134 l 33 132 q 193 137 117 132 q 340 149 269 142 q 282 249 340 220 q 191 288 236 268 q 156 257 176 275 q 111 239 136 239 q 44 269 60 239 q 29 339 29 300 q 71 424 29 397 q 174 450 113 450 q 369 340 289 450 q 491 197 449 231 q 601 151 533 163 q 729 134 668 139 l 729 0 l 685 0 q 598 6 676 0 q 456 12 521 12 q 178 7 260 12 q 29 1 97 1 l -20 0 l -20 134 z "},"ﺩ":{"ha":833,"x_min":44,"x_max":777,"o":"m 44 -109 q 127 44 44 -11 q 324 123 210 98 q 439 143 381 134 q 283 304 344 222 q 222 468 222 386 q 252 553 222 515 q 311 590 281 590 q 387 558 352 590 q 422 490 422 526 l 388 401 q 467 297 402 354 q 599 212 531 240 q 726 163 667 184 q 777 68 777 132 q 751 -2 777 16 q 666 -20 726 -20 q 596 2 620 -20 q 555 24 573 24 q 221 -14 352 24 q 51 -154 91 -51 q 45 -136 47 -142 q 44 -109 44 -130 z "},"ﺪ":{"ha":662,"x_min":22,"x_max":675,"o":"m 675 0 l 606 0 q 545 15 581 0 q 505 29 508 29 q 485 15 500 29 q 423 1 469 1 q 352 11 398 1 q 279 20 307 20 q 136 -32 198 20 q 28 -159 81 -96 q 28 -132 22 -137 q 94 18 28 -54 q 214 109 159 90 q 308 133 269 127 q 360 142 348 139 q 228 224 281 186 q 174 343 174 262 q 206 432 174 395 q 290 469 238 469 q 342 443 324 469 q 360 397 360 416 q 322 347 360 353 q 284 329 284 340 q 402 265 284 296 q 551 146 520 235 q 649 134 588 134 l 675 134 l 675 0 z "},"ﺫ":{"ha":833,"x_min":44,"x_max":777,"o":"m 112 760 q 133 805 112 783 q 190 827 155 827 q 241 810 226 827 q 256 760 256 793 q 236 706 256 730 q 178 682 216 682 q 136 707 159 682 q 112 760 112 732 m 44 -109 q 127 44 44 -11 q 324 123 210 98 q 439 143 381 134 q 283 304 344 222 q 222 468 222 386 q 252 553 222 515 q 311 590 281 590 q 387 558 352 590 q 422 490 422 526 l 388 401 q 467 297 402 354 q 599 212 531 240 q 726 163 667 184 q 777 68 777 132 q 751 -2 777 16 q 666 -20 726 -20 q 596 2 620 -20 q 555 24 573 24 q 221 -14 352 24 q 51 -154 91 -51 q 45 -136 47 -142 q 44 -109 44 -130 z "},"ﺬ":{"ha":662,"x_min":22,"x_max":675,"o":"m 138 665 q 160 710 138 689 q 216 732 181 732 q 283 665 283 732 q 262 612 283 637 q 205 587 241 587 q 162 612 185 587 q 138 665 138 637 m 675 0 l 606 0 q 545 15 581 0 q 505 29 508 29 q 485 15 500 29 q 423 1 469 1 q 352 11 398 1 q 279 20 307 20 q 136 -32 198 20 q 28 -159 81 -96 q 28 -132 22 -137 q 94 18 28 -54 q 214 109 159 90 q 308 133 269 127 q 360 142 348 139 q 228 224 281 186 q 174 343 174 262 q 206 432 174 395 q 290 469 238 469 q 342 443 324 469 q 360 397 360 416 q 322 347 360 353 q 284 329 284 340 q 402 265 284 296 q 551 146 520 235 q 649 134 588 134 l 675 134 l 675 0 z "},"ﺭ":{"ha":622,"x_min":-662,"x_max":490,"o":"m -121 -383 q -473 -270 -305 -383 q -662 12 -642 -157 l -640 -5 q -446 -216 -559 -138 q -154 -293 -333 -293 q 29 -271 -58 -293 q 176 -208 117 -248 q 309 -66 235 -168 q 383 151 383 36 q 382 184 383 171 q 316 224 380 197 q 252 314 252 250 q 332 416 252 416 q 443 340 396 416 q 490 161 490 264 q 419 -72 490 53 q 292 -248 349 -197 q 109 -346 211 -308 q -121 -383 7 -383 z "},"ﺮ":{"ha":543,"x_min":-811,"x_max":561,"o":"m 561 0 l 505 0 q 410 -95 440 0 q 301 -301 380 -190 q 52 -493 221 -412 q -237 -573 -118 -573 q -645 -434 -515 -573 q -793 -175 -776 -294 q -811 -40 -811 -56 l -811 -12 q -811 4 -811 -1 q -808 11 -811 9 q -773 -130 -793 -56 q -714 -268 -753 -204 q -549 -398 -675 -332 q -255 -465 -423 -465 q -28 -399 -159 -465 q 193 -229 103 -333 q 254 -113 204 -211 q 304 12 304 -15 q 279 47 304 20 q 253 126 253 74 q 276 188 253 170 q 338 207 298 207 q 412 170 385 207 q 464 134 439 134 l 561 134 l 561 0 z "},"ﺯ":{"ha":622,"x_min":-662,"x_max":490,"o":"m 75 647 q 97 692 75 671 q 153 714 118 714 q 220 647 220 714 q 199 594 220 619 q 142 570 178 570 q 99 594 122 570 q 75 647 75 619 m -121 -383 q -473 -270 -305 -383 q -662 12 -642 -157 l -640 -5 q -446 -216 -559 -138 q -154 -293 -333 -293 q 29 -271 -58 -293 q 176 -208 117 -248 q 309 -66 235 -168 q 383 151 383 36 q 382 184 383 171 q 316 224 380 197 q 252 314 252 250 q 332 416 252 416 q 443 340 396 416 q 490 161 490 264 q 419 -72 490 53 q 292 -248 349 -197 q 109 -346 211 -308 q -121 -383 7 -383 z "},"ﺰ":{"ha":543,"x_min":-811,"x_max":561,"o":"m 90 431 q 112 476 90 454 q 168 497 134 497 q 219 480 204 497 q 235 431 235 464 q 215 377 235 401 q 157 353 195 353 q 114 378 138 353 q 90 431 90 403 m 561 0 l 505 0 q 410 -95 440 0 q 301 -301 380 -190 q 52 -493 221 -412 q -237 -573 -118 -573 q -645 -434 -515 -573 q -793 -175 -776 -294 q -811 -40 -811 -56 l -811 -12 q -811 4 -811 -1 q -808 11 -811 9 q -773 -130 -793 -56 q -714 -268 -753 -204 q -549 -398 -675 -332 q -255 -465 -423 -465 q -28 -399 -159 -465 q 193 -229 103 -333 q 254 -113 204 -211 q 304 12 304 -15 q 279 47 304 20 q 253 126 253 74 q 276 188 253 170 q 338 207 298 207 q 412 170 385 207 q 464 134 439 134 l 561 134 l 561 0 z "},"ﺱ":{"ha":659,"x_min":-1116,"x_max":625,"o":"m 306 110 q 356 163 335 110 q 390 216 376 216 q 444 130 418 165 q 501 102 471 94 q 519 123 515 104 q 522 151 522 142 q 522 166 522 160 q 521 176 522 172 q 514 201 521 197 q 473 205 507 205 q 424 228 446 205 q 401 272 401 250 q 433 334 401 300 q 505 368 464 368 q 578 299 532 368 q 624 172 624 231 q 625 153 625 161 q 594 38 625 94 q 472 -35 564 -18 q 433 -4 458 -37 q 396 39 408 29 q 359 0 380 25 q 306 -32 338 -24 q 261 7 282 -11 q 221 32 240 20 q 151 -177 227 -11 q -62 -485 75 -344 q -380 -626 -199 -626 q -808 -539 -644 -626 q -1044 -320 -972 -452 q -1116 -45 -1116 -187 l -1093 -45 q -922 -360 -1093 -227 q -406 -493 -751 -493 q -37 -305 -163 -493 q 89 89 89 -117 q 86 142 89 122 q 83 172 83 161 q 82 189 82 183 q 101 256 82 236 q 149 277 119 277 q 197 253 193 277 q 210 211 200 229 q 232 171 220 192 q 262 127 244 144 q 306 110 279 110 z "},"ﺲ":{"ha":826,"x_min":-729,"x_max":854,"o":"m 854 0 q 791 -3 833 -1 q 721 -4 749 -4 q 663 19 690 -4 q 611 65 635 43 q 572 14 587 37 q 543 -9 557 -9 q 507 7 530 -9 q 449 53 484 24 q 443 10 449 28 q 422 -16 436 -8 q 395 -24 408 -24 q 354 -20 366 -20 q 342 -22 343 -19 q 322 -139 340 -69 q 244 -312 304 -210 q 38 -517 183 -414 q -262 -621 -106 -621 q -587 -524 -446 -621 q -729 -268 -729 -427 q -710 -151 -724 -211 q -654 -64 -696 -90 q -677 -151 -669 -117 q -684 -211 -684 -186 q -569 -408 -684 -308 q -269 -508 -454 -508 q -61 -446 -155 -508 q 87 -320 33 -385 q 165 -216 140 -255 q 203 -116 191 -176 q 215 -9 215 -55 q 206 38 215 20 q 197 107 197 56 q 215 173 197 155 q 273 191 232 191 q 333 163 307 191 q 383 110 358 136 q 435 167 393 118 q 488 216 476 216 q 526 181 504 216 q 570 122 547 146 q 614 179 583 135 q 664 222 644 222 q 721 163 693 189 q 771 138 749 138 q 801 135 777 136 q 827 134 825 134 q 845 134 842 134 q 854 134 848 134 l 854 0 z "},"ﺳ":{"ha":633,"x_min":-23,"x_max":581,"o":"m 428 -12 q 389 18 414 -15 q 351 61 364 52 q 319 29 343 54 q 261 -9 294 4 q 226 26 260 -9 q 179 61 192 61 q 143 32 163 61 q 113 0 123 3 l -23 0 l -23 134 l 12 134 q 135 194 114 134 q 191 250 157 254 q 227 204 204 248 q 268 135 249 160 q 303 192 278 144 q 346 239 328 239 q 400 152 374 187 q 457 123 427 117 q 474 145 471 126 q 478 174 478 164 q 478 188 478 182 q 476 199 478 195 q 469 224 476 220 q 429 228 463 228 q 379 250 401 228 q 357 294 357 272 q 388 356 357 322 q 461 390 419 390 q 533 321 488 390 q 579 195 579 253 q 581 175 581 183 q 550 60 581 117 q 428 -12 519 4 z "},"ﺴ":{"ha":673,"x_min":-20,"x_max":693,"o":"m 693 0 l 676 0 q 654 -1 663 -1 q 602 13 631 -1 q 518 77 572 28 q 487 15 498 35 q 444 -4 476 -4 q 401 17 428 -4 q 351 60 375 39 q 315 20 330 41 q 271 -8 300 -1 q 232 36 256 9 q 197 62 208 62 q 166 40 183 62 q 131 11 149 18 q 93 1 114 4 q 50 -3 72 -3 q 12 0 18 0 l -20 1 l -19 134 l 41 134 q 158 185 135 134 q 211 232 180 236 q 240 194 224 231 q 275 132 256 158 q 309 181 286 142 q 350 220 332 220 q 383 192 358 220 q 431 146 408 164 q 477 205 460 183 q 511 227 494 227 q 567 185 526 227 q 639 134 607 143 l 693 134 l 693 0 z "},"ﺵ":{"ha":682,"x_min":-1116,"x_max":625,"o":"m 72 524 q 94 569 72 547 q 150 590 115 590 q 216 524 216 590 q 196 471 216 496 q 139 446 175 446 q 96 471 119 446 q 72 524 72 496 m 279 546 q 301 592 279 571 q 357 612 323 612 q 409 594 395 612 q 424 546 424 575 q 397 487 424 505 q 335 468 370 468 q 297 489 315 475 q 279 546 279 504 m 165 710 q 187 755 165 733 q 243 777 208 777 q 310 710 310 777 q 289 657 310 682 q 232 632 268 632 q 189 657 212 632 q 165 710 165 682 m 306 110 q 356 163 335 110 q 390 216 376 216 q 444 130 418 165 q 501 102 471 94 q 519 123 515 104 q 522 151 522 142 q 522 166 522 160 q 521 176 522 172 q 514 201 521 197 q 473 205 507 205 q 424 228 446 205 q 401 272 401 250 q 433 334 401 300 q 505 368 464 368 q 578 299 532 368 q 624 172 624 231 q 625 153 625 161 q 594 38 625 94 q 472 -35 564 -18 q 433 -4 458 -37 q 396 39 408 29 q 359 0 380 25 q 306 -32 338 -24 q 261 7 282 -11 q 221 32 240 20 q 151 -177 227 -11 q -62 -485 75 -344 q -380 -626 -199 -626 q -808 -539 -644 -626 q -1044 -320 -972 -452 q -1116 -45 -1116 -187 l -1093 -45 q -922 -360 -1093 -227 q -406 -493 -751 -493 q -37 -305 -163 -493 q 89 89 89 -117 q 86 142 89 122 q 83 172 83 161 q 82 189 82 183 q 101 256 82 236 q 149 277 119 277 q 197 253 193 277 q 210 211 200 229 q 232 171 220 192 q 262 127 244 144 q 306 110 279 110 z "},"ﺶ":{"ha":826,"x_min":-729,"x_max":854,"o":"m 288 510 q 309 555 288 533 q 366 576 330 576 q 432 510 432 576 q 411 457 432 482 q 354 432 390 432 q 311 457 335 432 q 288 510 288 482 m 494 532 q 516 577 494 555 q 572 599 538 599 q 625 580 611 599 q 639 532 639 561 q 611 473 639 492 q 550 454 583 454 q 512 476 530 461 q 494 532 494 490 m 379 694 q 401 740 379 718 q 457 761 422 761 q 508 744 493 761 q 524 694 524 728 q 504 641 524 665 q 446 616 484 616 q 403 642 427 616 q 379 694 379 667 m 854 0 q 791 -3 833 -1 q 721 -4 749 -4 q 663 19 690 -4 q 611 65 635 43 q 572 14 587 37 q 543 -9 557 -9 q 507 7 530 -9 q 449 53 484 24 q 443 10 449 28 q 422 -16 436 -8 q 395 -24 408 -24 q 354 -20 366 -20 q 342 -22 343 -19 q 322 -139 340 -69 q 244 -312 304 -210 q 38 -517 183 -414 q -262 -621 -106 -621 q -587 -524 -446 -621 q -729 -268 -729 -427 q -710 -151 -724 -211 q -654 -64 -696 -90 q -677 -151 -669 -117 q -684 -211 -684 -186 q -569 -408 -684 -308 q -269 -508 -454 -508 q -61 -446 -155 -508 q 87 -320 33 -385 q 165 -216 140 -255 q 203 -116 191 -176 q 215 -9 215 -55 q 206 38 215 20 q 197 107 197 56 q 215 173 197 155 q 273 191 232 191 q 333 163 307 191 q 383 110 358 136 q 435 167 393 118 q 488 216 476 216 q 526 181 504 216 q 570 122 547 146 q 614 179 583 135 q 664 222 644 222 q 721 163 693 189 q 771 138 749 138 q 801 135 777 136 q 827 134 825 134 q 845 134 842 134 q 854 134 848 134 l 854 0 z "},"ﺷ":{"ha":633,"x_min":-23,"x_max":581,"o":"m 72 524 q 94 569 72 547 q 150 590 115 590 q 216 524 216 590 q 196 471 216 496 q 139 446 175 446 q 96 471 119 446 q 72 524 72 496 m 279 546 q 301 592 279 571 q 357 612 323 612 q 409 594 395 612 q 424 546 424 575 q 397 487 424 505 q 335 468 370 468 q 297 489 315 475 q 279 546 279 504 m 165 710 q 187 755 165 733 q 243 777 208 777 q 310 710 310 777 q 289 657 310 682 q 232 632 268 632 q 189 657 212 632 q 165 710 165 682 m 428 -12 q 389 18 414 -15 q 351 61 364 52 q 319 29 343 54 q 261 -9 294 4 q 226 26 260 -9 q 179 61 192 61 q 143 32 163 61 q 113 0 123 3 l -23 0 l -23 134 l 12 134 q 135 194 114 134 q 191 250 157 254 q 227 204 204 248 q 268 135 249 160 q 303 192 278 144 q 346 239 328 239 q 400 152 374 187 q 457 123 427 117 q 474 145 471 126 q 478 174 478 164 q 478 188 478 182 q 476 199 478 195 q 469 224 476 220 q 429 228 463 228 q 379 250 401 228 q 357 294 357 272 q 388 356 357 322 q 461 390 419 390 q 533 321 488 390 q 579 195 579 253 q 581 175 581 183 q 550 60 581 117 q 428 -12 519 4 z "},"ﺸ":{"ha":673,"x_min":-20,"x_max":693,"o":"m 183 524 q 205 569 183 547 q 261 590 227 590 q 328 524 328 590 q 307 471 328 496 q 250 446 286 446 q 207 471 231 446 q 183 524 183 496 m 390 546 q 412 592 390 571 q 468 612 435 612 q 520 594 505 612 q 534 546 534 575 q 508 487 534 505 q 446 468 481 468 q 408 489 427 475 q 390 546 390 504 m 277 710 q 298 755 277 733 q 354 777 319 777 q 421 710 421 777 q 400 657 421 682 q 343 632 379 632 q 300 657 323 632 q 277 710 277 682 m 693 0 l 676 0 q 654 -1 663 -1 q 602 13 631 -1 q 518 77 572 28 q 487 15 498 35 q 444 -4 476 -4 q 401 17 428 -4 q 351 60 375 39 q 315 20 330 41 q 271 -8 300 -1 q 232 36 256 9 q 197 62 208 62 q 166 40 183 62 q 131 11 149 18 q 93 1 114 4 q 50 -3 72 -3 q 12 0 18 0 l -20 1 l -19 134 l 41 134 q 158 185 135 134 q 211 232 180 236 q 240 194 224 231 q 275 132 256 158 q 309 181 286 142 q 350 220 332 220 q 383 192 358 220 q 431 146 408 164 q 477 205 460 183 q 511 227 494 227 q 567 185 526 227 q 639 134 607 143 l 693 134 l 693 0 z "},"ﺹ":{"ha":1177,"x_min":-956,"x_max":1099,"o":"m 951 142 q 862 239 930 196 q 748 288 793 282 q 689 293 703 293 q 540 248 619 293 q 410 123 461 203 q 476 109 444 113 q 596 104 509 104 q 773 116 654 104 q 951 142 892 127 m -909 -304 q -942 -200 -929 -254 q -956 -96 -956 -146 q -952 -56 -956 -66 q -932 -29 -948 -45 q -887 -188 -924 -106 q -812 -323 -850 -269 q -679 -454 -776 -395 q -460 -512 -582 -512 q -150 -411 -286 -512 q 65 -181 -15 -311 q 144 1 144 -52 q 126 50 144 16 q 107 104 107 83 q 125 152 107 132 q 180 172 143 172 q 224 164 214 172 q 267 129 235 157 q 472 345 370 236 q 761 424 595 424 q 1000 322 901 424 q 1099 81 1099 221 q 1089 5 1099 40 q 1050 -29 1079 -29 q 1013 -11 1039 -29 q 957 7 986 7 q 902 -5 928 7 q 725 -18 876 -18 q 489 -5 590 -18 q 346 7 389 7 q 250 -98 267 7 q 134 -353 233 -203 q -136 -568 35 -503 q -443 -634 -307 -634 q -640 -595 -561 -634 q -827 -447 -719 -555 l -909 -304 z "},"ﺺ":{"ha":1148,"x_min":-956,"x_max":1166,"o":"m 951 142 q 862 239 930 196 q 748 288 793 282 q 689 293 703 293 q 540 248 619 293 q 410 123 461 203 q 476 109 444 113 q 596 104 509 104 q 773 116 654 104 q 951 142 892 127 m 1166 0 l 1088 0 q 1074 -19 1086 0 q 1050 -39 1061 -39 q 1012 -16 1039 -39 q 957 7 985 7 q 902 -5 928 7 q 725 -18 876 -18 q 489 -5 590 -18 q 346 7 389 7 q 250 -98 267 7 q 134 -353 233 -203 q -136 -568 35 -503 q -443 -634 -307 -634 q -640 -595 -561 -634 q -827 -447 -719 -555 l -909 -304 q -942 -200 -929 -254 q -956 -96 -956 -146 q -952 -56 -956 -66 q -932 -29 -948 -45 q -887 -188 -924 -106 q -812 -323 -850 -269 q -679 -454 -776 -395 q -460 -512 -582 -512 q -150 -411 -286 -512 q 65 -181 -15 -311 q 144 1 144 -52 q 126 50 144 16 q 107 104 107 83 q 125 152 107 132 q 180 172 143 172 q 224 164 214 172 q 267 129 235 157 q 472 345 370 236 q 761 424 595 424 q 982 340 888 424 q 1095 134 1076 256 l 1166 134 l 1166 0 z "},"ﺻ":{"ha":1051,"x_min":-18,"x_max":996,"o":"m 850 164 q 761 261 829 218 q 647 310 692 304 q 587 315 602 315 q 439 270 518 315 q 310 146 359 225 q 372 135 334 139 q 496 131 410 131 q 678 140 567 131 q 850 164 789 149 m 945 -54 q 890 -12 911 -54 q 844 29 869 29 q 796 17 815 29 q 624 4 777 4 q 456 7 510 4 q 363 14 401 11 q 312 9 336 14 q 270 2 288 5 q 227 -25 253 -1 q 168 -48 201 -48 q 118 -25 134 -48 q 93 -1 103 -1 l 54 -1 l 29 -1 l 11 -1 q -18 0 -11 -1 l -18 134 l 49 132 q 57 219 49 191 q 86 248 65 248 q 157 146 136 248 q 258 267 200 197 q 414 391 317 336 q 660 446 511 446 q 888 356 791 446 q 996 134 985 267 q 986 8 994 71 q 945 -54 978 -54 z "},"ﺼ":{"ha":1051,"x_min":-18,"x_max":1072,"o":"m 850 164 q 761 261 829 218 q 647 310 692 304 q 587 315 602 315 q 439 270 518 315 q 310 146 359 225 q 372 135 334 139 q 496 131 410 131 q 678 140 567 131 q 850 164 789 149 m 1071 134 l 1071 -4 q 1068 -1 1072 -3 q 1021 0 1064 0 q 978 -27 986 0 q 945 -54 970 -54 q 890 -12 911 -54 q 844 29 869 29 q 796 17 815 29 q 624 4 777 4 q 456 7 510 4 q 363 14 401 11 q 312 9 336 14 q 270 2 288 5 q 227 -25 253 -1 q 168 -48 201 -48 q 118 -25 134 -48 q 93 -1 103 -1 l 54 -1 l 29 -1 l 11 -1 q -18 0 -11 -1 l -18 134 l 49 132 q 57 219 49 191 q 86 248 65 248 q 157 146 136 248 q 258 267 200 197 q 414 391 317 336 q 660 446 511 446 q 888 356 791 446 q 996 134 985 267 l 1071 134 z "},"ﺽ":{"ha":1177,"x_min":-956,"x_max":1099,"o":"m 399 657 q 420 702 399 681 q 476 724 441 724 q 543 657 543 724 q 522 604 543 629 q 465 579 501 579 q 422 604 446 579 q 399 657 399 629 m 951 142 q 862 239 930 196 q 748 288 793 282 q 689 293 703 293 q 540 248 619 293 q 410 123 461 203 q 476 109 444 113 q 596 104 509 104 q 773 116 654 104 q 951 142 892 127 m -909 -304 q -942 -200 -929 -254 q -956 -96 -956 -146 q -952 -56 -956 -66 q -932 -29 -948 -45 q -887 -188 -924 -106 q -812 -323 -850 -269 q -679 -454 -776 -395 q -460 -512 -582 -512 q -150 -411 -286 -512 q 65 -181 -15 -311 q 144 1 144 -52 q 126 50 144 16 q 107 104 107 83 q 125 152 107 132 q 180 172 143 172 q 224 164 214 172 q 267 129 235 157 q 472 345 370 236 q 761 424 595 424 q 1000 322 901 424 q 1099 81 1099 221 q 1089 5 1099 40 q 1050 -29 1079 -29 q 1013 -11 1039 -29 q 957 7 986 7 q 902 -5 928 7 q 725 -18 876 -18 q 489 -5 590 -18 q 346 7 389 7 q 250 -98 267 7 q 134 -353 233 -203 q -136 -568 35 -503 q -443 -634 -307 -634 q -640 -595 -561 -634 q -827 -447 -719 -555 l -909 -304 z "},"ﺾ":{"ha":1148,"x_min":-956,"x_max":1166,"o":"m 368 665 q 390 710 368 689 q 446 732 411 732 q 497 715 482 732 q 513 665 513 699 q 492 612 513 636 q 435 587 472 587 q 392 612 415 587 q 368 665 368 637 m 951 142 q 862 239 930 196 q 748 288 793 282 q 689 293 703 293 q 540 248 619 293 q 410 123 461 203 q 476 109 444 113 q 596 104 509 104 q 773 116 654 104 q 951 142 892 127 m 1166 0 l 1088 0 q 1074 -19 1086 0 q 1050 -39 1061 -39 q 1012 -16 1039 -39 q 957 7 985 7 q 902 -5 928 7 q 725 -18 876 -18 q 489 -5 590 -18 q 346 7 389 7 q 250 -98 267 7 q 134 -353 233 -203 q -136 -568 35 -503 q -443 -634 -307 -634 q -640 -595 -561 -634 q -827 -447 -719 -555 l -909 -304 q -942 -200 -929 -254 q -956 -96 -956 -146 q -952 -56 -956 -66 q -932 -29 -948 -45 q -887 -188 -924 -106 q -812 -323 -850 -269 q -679 -454 -776 -395 q -460 -512 -582 -512 q -150 -411 -286 -512 q 65 -181 -15 -311 q 144 1 144 -52 q 126 50 144 16 q 107 104 107 83 q 125 152 107 132 q 180 172 143 172 q 224 164 214 172 q 267 129 235 157 q 472 345 370 236 q 761 424 595 424 q 982 340 888 424 q 1095 134 1076 256 l 1166 134 l 1166 0 z "},"ﺿ":{"ha":1051,"x_min":-18,"x_max":996,"o":"m 379 694 q 401 740 379 718 q 457 761 422 761 q 508 744 493 761 q 524 694 524 728 q 504 641 524 665 q 446 616 484 616 q 403 642 427 616 q 379 694 379 667 m 850 164 q 761 261 829 218 q 647 310 692 304 q 587 315 602 315 q 439 270 518 315 q 310 146 359 225 q 372 135 334 139 q 496 131 410 131 q 678 140 567 131 q 850 164 789 149 m 945 -54 q 890 -12 911 -54 q 844 29 869 29 q 796 17 815 29 q 624 4 777 4 q 456 7 510 4 q 363 14 401 11 q 312 9 336 14 q 270 2 288 5 q 227 -25 253 -1 q 168 -48 201 -48 q 118 -25 134 -48 q 93 -1 103 -1 l 54 -1 l 29 -1 l 11 -1 q -18 0 -11 -1 l -18 134 l 49 132 q 57 219 49 191 q 86 248 65 248 q 157 146 136 248 q 258 267 200 197 q 414 391 317 336 q 660 446 511 446 q 888 356 791 446 q 996 134 985 267 q 986 8 994 71 q 945 -54 978 -54 z "},"ﻀ":{"ha":1051,"x_min":-18,"x_max":1072,"o":"m 443 739 q 465 784 443 762 q 521 806 486 806 q 573 787 559 806 q 587 739 587 768 q 559 680 587 699 q 498 661 532 661 q 461 683 479 668 q 443 739 443 697 m 850 164 q 761 261 829 218 q 647 310 692 304 q 587 315 602 315 q 439 270 518 315 q 310 146 359 225 q 372 135 334 139 q 496 131 410 131 q 678 140 567 131 q 850 164 789 149 m 1071 134 l 1071 -4 q 1068 -1 1072 -3 q 1021 0 1064 0 q 978 -27 986 0 q 945 -54 970 -54 q 890 -12 911 -54 q 844 29 869 29 q 796 17 815 29 q 624 4 777 4 q 456 7 510 4 q 363 14 401 11 q 312 9 336 14 q 270 2 288 5 q 227 -25 253 -1 q 168 -48 201 -48 q 118 -25 134 -48 q 93 -1 103 -1 l 54 -1 l 29 -1 l 11 -1 q -18 0 -11 -1 l -18 134 l 49 132 q 57 219 49 191 q 86 248 65 248 q 157 146 136 248 q 258 267 200 197 q 414 391 317 336 q 660 446 511 446 q 888 356 791 446 q 996 134 985 267 l 1071 134 z "},"ﻁ":{"ha":1062,"x_min":-22,"x_max":935,"o":"m 672 432 q 860 310 785 404 q 935 98 935 216 q 922 16 935 45 q 888 -12 909 -12 q 850 4 878 -12 q 793 21 822 21 q 693 6 760 21 q 559 -9 627 -9 q 351 3 452 -9 q 191 16 250 16 q 163 13 170 16 q 151 -10 157 9 q 130 -44 146 -29 q 101 -60 114 -58 q 77 -62 87 -62 q 36 -33 39 -62 q 31 5 33 -3 q 17 12 28 12 q -6 7 4 12 q -22 0 -16 3 l -22 134 l 90 134 q 312 369 208 300 q 570 439 416 439 q 633 626 618 579 q 652 695 648 672 q 656 733 656 718 q 645 785 656 761 q 635 818 633 808 q 691 898 646 867 q 783 929 737 929 q 818 923 800 929 q 842 902 835 917 q 850 865 850 886 q 848 844 850 854 q 842 823 847 833 q 798 765 819 796 q 747 656 777 734 q 702 539 717 578 q 672 432 688 500 m 515 310 q 372 263 447 310 q 248 140 297 216 q 317 126 285 131 q 433 122 349 122 q 620 132 514 122 q 787 160 725 142 q 716 255 765 211 q 607 298 668 298 q 485 188 562 236 q 302 140 408 140 q 432 219 386 191 q 515 310 478 248 z "},"ﻂ":{"ha":970,"x_min":9,"x_max":979,"o":"m 524 310 q 380 264 456 310 q 257 140 304 218 q 325 126 292 131 q 443 122 358 122 q 641 126 545 122 q 798 144 737 131 q 727 249 777 200 q 615 298 677 298 q 496 188 574 236 q 313 140 419 140 q 453 228 382 183 q 524 310 493 258 m 979 0 q 950 -3 970 0 q 929 -5 930 -5 q 896 0 914 -5 q 859 13 885 0 q 803 25 832 25 q 748 13 774 25 q 571 0 722 0 q 330 11 433 0 q 196 21 227 21 q 178 15 184 21 q 166 -14 172 8 q 142 -47 160 -36 q 104 -61 125 -58 q 62 -31 62 -66 q 71 11 62 -12 q 87 54 79 35 q 67 68 89 61 q 36 81 46 75 q 18 108 26 87 q 9 151 9 129 q 20 198 9 178 q 50 222 31 218 q 87 198 66 225 q 143 171 109 171 q 321 372 215 306 q 579 439 427 439 q 618 567 607 522 q 636 665 629 612 q 643 733 643 718 q 631 784 643 760 q 621 818 619 808 q 679 898 633 867 q 771 929 725 929 q 805 923 787 929 q 830 902 822 917 q 838 865 838 886 q 836 844 838 854 q 829 823 835 833 q 779 759 799 789 q 737 657 758 729 q 705 538 715 586 q 682 432 694 490 q 860 322 786 406 q 943 134 933 239 l 979 134 l 979 0 z "},"ﻃ":{"ha":970,"x_min":9,"x_max":943,"o":"m 524 310 q 380 264 456 310 q 257 140 304 218 q 325 126 292 131 q 443 122 358 122 q 641 126 545 122 q 798 144 737 131 q 727 249 777 200 q 615 298 677 298 q 496 188 574 236 q 313 140 419 140 q 453 228 382 183 q 524 310 493 258 m 896 0 q 859 13 885 0 q 803 25 832 25 q 748 13 774 25 q 571 0 722 0 q 330 11 433 0 q 196 21 227 21 q 178 15 184 21 q 166 -14 172 8 q 142 -47 160 -36 q 104 -61 125 -58 q 62 -31 62 -66 q 71 11 62 -12 q 87 54 79 35 q 67 68 89 61 q 36 81 46 75 q 18 108 26 87 q 9 151 9 129 q 20 198 9 178 q 50 222 31 218 q 87 198 66 225 q 143 171 109 171 q 321 372 215 306 q 579 439 427 439 q 618 567 607 522 q 636 665 629 612 q 643 733 643 718 q 631 784 643 760 q 621 818 619 808 q 679 898 633 867 q 771 929 725 929 q 805 923 787 929 q 830 902 822 917 q 838 865 838 886 q 836 844 838 854 q 829 823 835 833 q 779 759 799 789 q 737 657 758 729 q 705 538 715 586 q 682 432 694 490 q 860 322 786 406 q 943 134 933 239 q 932 38 940 85 q 896 0 924 -8 z "},"ﻄ":{"ha":976,"x_min":-22,"x_max":999,"o":"m 515 310 q 372 263 447 310 q 248 140 297 216 q 317 126 285 131 q 433 122 349 122 q 631 126 534 122 q 787 144 728 131 q 717 249 766 199 q 607 298 668 298 q 485 188 562 236 q 302 140 408 140 q 432 219 386 191 q 515 310 478 248 m 999 0 l 888 0 q 850 13 878 0 q 793 25 822 25 q 739 13 764 25 q 562 0 714 0 q 466 0 514 0 q 371 -1 418 0 q 301 7 349 -1 q 195 16 254 16 q 162 9 171 16 q 148 -16 153 3 q 129 -46 143 -35 q 101 -60 114 -58 q 77 -62 87 -62 q 36 -33 39 -62 q 31 5 33 -3 q 17 12 28 12 q -6 7 4 12 q -22 0 -16 3 l -22 134 l 90 135 q 296 354 193 244 q 570 439 418 439 q 608 567 597 522 q 626 665 619 612 q 633 733 633 718 q 622 785 633 761 q 612 818 611 808 q 670 898 624 867 q 761 929 715 929 q 795 923 778 929 q 820 902 812 917 q 828 865 828 886 q 827 844 828 854 q 819 823 825 833 q 769 759 789 789 q 728 661 749 729 q 696 542 708 593 q 672 432 685 490 q 851 323 778 406 q 935 134 924 240 l 999 134 l 999 0 z "},"ﻅ":{"ha":1101,"x_min":-22,"x_max":990,"o":"m 846 590 q 867 635 846 614 q 924 657 889 657 q 975 641 960 657 q 990 590 990 624 q 970 537 990 561 q 913 513 950 513 q 869 537 893 513 q 846 590 846 562 m 672 432 q 860 310 785 404 q 935 98 935 216 q 922 16 935 45 q 888 -12 909 -12 q 850 4 878 -12 q 793 21 822 21 q 693 6 760 21 q 559 -9 627 -9 q 351 3 452 -9 q 191 16 250 16 q 163 13 170 16 q 151 -10 157 9 q 130 -44 146 -29 q 101 -60 114 -58 q 77 -62 87 -62 q 36 -33 39 -62 q 31 5 33 -3 q 17 12 28 12 q -6 7 4 12 q -22 0 -16 3 l -22 134 l 90 134 q 312 369 208 300 q 570 439 416 439 q 633 626 618 579 q 652 695 648 672 q 656 733 656 718 q 645 785 656 761 q 635 818 633 808 q 691 898 646 867 q 783 929 737 929 q 818 923 800 929 q 842 902 835 917 q 850 865 850 886 q 848 844 850 854 q 842 823 847 833 q 798 765 819 796 q 747 656 777 734 q 702 539 717 578 q 672 432 688 500 m 515 310 q 372 263 447 310 q 248 140 297 216 q 317 126 285 131 q 433 122 349 122 q 620 132 514 122 q 787 160 725 142 q 716 255 765 211 q 607 298 668 298 q 485 188 562 236 q 302 140 408 140 q 432 219 386 191 q 515 310 478 248 z "},"ﻆ":{"ha":970,"x_min":9,"x_max":979,"o":"m 787 554 q 809 599 787 578 q 865 621 831 621 q 932 554 932 621 q 911 501 932 526 q 854 476 890 476 q 811 501 835 476 q 787 554 787 526 m 524 310 q 380 264 456 310 q 257 140 304 218 q 325 126 292 131 q 443 122 358 122 q 641 126 545 122 q 798 144 737 131 q 727 249 777 200 q 615 298 677 298 q 496 188 574 236 q 313 140 419 140 q 453 228 382 183 q 524 310 493 258 m 979 0 q 950 -3 970 0 q 929 -5 930 -5 q 896 0 914 -5 q 859 13 885 0 q 803 25 832 25 q 748 13 774 25 q 571 0 722 0 q 330 11 433 0 q 196 21 227 21 q 178 15 184 21 q 166 -14 172 8 q 142 -47 160 -36 q 104 -61 125 -58 q 62 -31 62 -66 q 71 11 62 -12 q 87 54 79 35 q 67 68 89 61 q 36 81 46 75 q 18 108 26 87 q 9 151 9 129 q 20 198 9 178 q 50 222 31 218 q 87 198 66 225 q 143 171 109 171 q 321 372 215 306 q 579 439 427 439 q 618 567 607 522 q 636 665 629 612 q 643 733 643 718 q 631 784 643 760 q 621 818 619 808 q 679 898 633 867 q 771 929 725 929 q 805 923 787 929 q 830 902 822 917 q 838 865 838 886 q 836 844 838 854 q 829 823 835 833 q 779 759 799 789 q 737 657 758 729 q 705 538 715 586 q 682 432 694 490 q 860 322 786 406 q 943 134 933 239 l 979 134 l 979 0 z "}}}
